<?xml version="1.0" encoding="UTF-8"?>
<svg version="1.1" xmlns="http://www.w3.org/2000/svg" width="500" height="500">
<path d="M0 0 C1.21008658 -0.00657338 1.21008658 -0.00657338 2.44461936 -0.01327956 C5.16300761 -0.02669405 7.88136343 -0.03285233 10.59977722 -0.03897095 C12.54267525 -0.04686976 14.4855718 -0.05513857 16.4284668 -0.06375122 C22.82173761 -0.08999453 29.21501506 -0.10528008 35.60832214 -0.11953735 C37.80667818 -0.12489588 40.00503418 -0.13027338 42.20339012 -0.13566971 C51.34541283 -0.15730085 60.48743376 -0.17603901 69.62947559 -0.1872921 C82.74486128 -0.20354062 95.85995113 -0.23673778 108.97522527 -0.29369295 C118.18970494 -0.33234854 127.40410533 -0.35191954 136.61866397 -0.35721266 C142.12590308 -0.36087182 147.63282684 -0.37295316 153.13997841 -0.4053154 C158.32008314 -0.43531923 163.49968043 -0.4417353 168.67985344 -0.42993164 C170.58220432 -0.42971027 172.48457822 -0.43806772 174.38684845 -0.45558548 C176.98239121 -0.47818851 179.57608005 -0.47002438 182.17163086 -0.45410156 C182.92611018 -0.46798365 183.68058949 -0.48186574 184.45793182 -0.49616849 C188.4777894 -0.43532139 190.09696092 0.00311035 193.22033215 2.62940025 C194.23803173 3.8790277 194.23803173 3.8790277 195.27629089 5.15390015 C195.60629089 5.48390015 195.93629089 5.81390015 196.27629089 6.15390015 C196.38089647 8.16266619 196.41484911 10.17513833 196.42155457 12.18661499 C196.42793442 13.47820526 196.43431427 14.76979553 196.44088745 16.1005249 C196.44241617 17.52196211 196.44353011 18.94339981 196.44425964 20.36483765 C196.44747083 21.81353794 196.4508348 23.2622379 196.4543457 24.7109375 C196.46034399 27.75247957 196.46218494 30.7939932 196.46159363 33.83554077 C196.46149207 37.73526081 196.47513443 41.6347985 196.49236584 45.53447533 C196.50347964 48.52845092 196.50551301 51.52238238 196.5049839 54.5163765 C196.50616534 55.95410413 196.51059625 57.39183286 196.51831627 58.82954025 C196.52810129 60.84046846 196.52397772 62.85144987 196.51921082 64.86239624 C196.52063583 66.00743622 196.52206085 67.1524762 196.52352905 68.33221436 C196.27629089 71.15390015 196.27629089 71.15390015 194.27629089 74.15390015 C193.61629089 74.15390015 192.95629089 74.15390015 192.27629089 74.15390015 C192.27629089 74.81390015 192.27629089 75.47390015 192.27629089 76.15390015 C190.27629089 77.15390015 190.27629089 77.15390015 179.27629089 77.15390015 C179.27629089 202.55390015 179.27629089 327.95390015 179.27629089 457.15390015 C121.19629089 457.15390015 63.11629089 457.15390015 3.27629089 457.15390015 C3.27629089 332.08390015 3.27629089 207.01390015 3.27629089 78.15390015 C-0.02370911 77.82390015 -3.32370911 77.49390015 -6.72370911 77.15390015 C-10.37455658 75.48059506 -11.47909207 74.52082571 -13.72370911 71.15390015 C-13.99113464 68.35913086 -13.99113464 68.35913086 -14.01423645 64.9258728 C-14.02699615 63.64088898 -14.03975586 62.35590515 -14.05290222 61.03198242 C-14.05595985 59.62731069 -14.05818762 58.22263695 -14.05964661 56.81796265 C-14.06607414 55.37691108 -14.07280247 53.93586083 -14.07981873 52.49481201 C-14.09179472 49.47359187 -14.09549927 46.4524861 -14.09431458 43.4312439 C-14.09411146 39.5651804 -14.12140372 35.69985261 -14.15585899 31.83396339 C-14.17812937 28.85704195 -14.18215208 25.88029745 -14.18109512 22.90330124 C-14.18345127 21.4783716 -14.19227569 20.05343709 -14.20775986 18.62858963 C-14.22741695 16.63272865 -14.21906 14.63665167 -14.20954895 12.64071655 C-14.21239899 11.50615021 -14.21524902 10.37158386 -14.21818542 9.20263672 C-13.6151991 5.4848723 -12.32163305 3.8292656 -9.72370911 1.15390015 C-6.63793494 -0.38898694 -3.38700856 0.00221489 0 0 Z " fill="#A45DAC" transform="translate(158.7237091064453,42.846099853515625)"/>
<path d="M0 0 C0.78927775 -0.00467997 1.5785555 -0.00935994 2.39175075 -0.01418173 C5.04510415 -0.02617898 7.69794557 -0.01665625 10.3513031 -0.00723267 C12.2499573 -0.01129624 14.14860914 -0.01663691 16.04725647 -0.02316284 C21.21033031 -0.03686682 26.37322478 -0.03152533 31.53630185 -0.02202559 C36.93125989 -0.01444604 42.32620227 -0.02146974 47.72116089 -0.02618408 C56.78100857 -0.03164615 65.84078295 -0.0244377 74.90061951 -0.01016235 C85.38723736 0.00616992 95.8736803 0.00087324 106.36029392 -0.01564157 C115.35225856 -0.02923773 124.34417042 -0.03118542 133.336142 -0.02332556 C138.71182082 -0.01863937 144.08741731 -0.01805018 149.4630909 -0.02793503 C154.51509578 -0.03657543 159.56687421 -0.03063658 164.61885452 -0.01325226 C166.47729172 -0.00927192 168.33574786 -0.01044772 170.19417763 -0.01704025 C172.72248601 -0.02518494 175.25005933 -0.01502085 177.77832031 0 C178.52140129 -0.00669217 179.26448227 -0.01338433 180.03008085 -0.02027929 C182.07380009 0.00342751 182.07380009 0.00342751 185.32566833 0.38095093 C187.62680616 3.83265766 187.57831397 5.13129141 187.5844574 9.19760132 C187.59076172 10.39216446 187.59706604 11.5867276 187.6035614 12.81748962 C187.59748871 14.75349281 187.59748871 14.75349281 187.59129333 16.72860718 C187.59264056 18.06474376 187.59458157 19.40087987 187.59709167 20.73701477 C187.60003924 23.53544793 187.59575652 26.33375333 187.58641052 29.13217163 C187.57500502 32.72256393 187.58158449 36.31265759 187.59355545 39.90303898 C187.60077462 42.66107951 187.59848608 45.41904895 187.59329987 48.1770916 C187.59131377 50.14584929 187.59739566 52.11460973 187.6035614 54.08335876 C187.59410492 55.87047523 187.59410492 55.87047523 187.5844574 57.69369507 C187.58286621 58.74609879 187.58127502 59.7985025 187.57963562 60.88279724 C187.32566833 63.38095093 187.32566833 63.38095093 185.32566833 65.38095093 C182.75943822 65.57844926 180.30103751 65.65023861 177.73362732 65.63491821 C176.94112044 65.63803819 176.14861357 65.64115818 175.33209133 65.6443727 C172.66190715 65.65238508 169.99194818 65.64601653 167.32176208 65.63973999 C165.41340501 65.64244842 163.50504898 65.64600851 161.59669495 65.65036011 C156.40260395 65.65950404 151.2085921 65.65593162 146.01449966 65.64960194 C140.58884207 65.64455229 135.16319142 65.6492305 129.73753357 65.65237427 C120.62464679 65.65601694 111.51179239 65.65120692 102.39891052 65.64169312 C91.8504308 65.630808 81.30202838 65.63433336 70.75355053 65.64534593 C61.71065959 65.65441023 52.66779197 65.65570828 43.62489796 65.65046859 C38.21792139 65.64734416 32.81098121 65.64695246 27.40400696 65.65354156 C22.32169333 65.65930197 17.23947975 65.65534217 12.15717697 65.64375305 C10.28745058 65.64109945 8.41771582 65.64188341 6.54799271 65.64627838 C4.00444969 65.6517078 1.46123143 65.64493168 -1.08229065 65.63491821 C-2.20377172 65.64161038 -2.20377172 65.64161038 -3.34790897 65.64843774 C-8.44603152 65.60925107 -8.44603152 65.60925107 -10.67433167 63.38095093 C-10.93502808 60.88279724 -10.93502808 60.88279724 -10.94898987 57.69369507 C-10.95852188 56.50228409 -10.96805389 55.31087311 -10.97787476 54.08335876 C-10.97696335 52.79066574 -10.97605194 51.49797272 -10.97511292 50.16610718 C-10.97899878 48.83093634 -10.98333322 47.49576674 -10.98809814 46.16059875 C-10.9955654 43.36039221 -10.99526562 40.56031172 -10.99000549 37.76010132 C-10.98421188 34.1708025 -11.00113606 30.58201989 -11.02435017 26.99280643 C-11.03907971 24.23471558 -11.03996028 21.47674924 -11.03684044 18.71862602 C-11.03760401 16.75155747 -11.0514853 14.78450825 -11.06552124 12.81748962 C-11.05929245 11.62292648 -11.05306366 10.42836334 -11.04664612 9.19760132 C-11.04727554 8.14440201 -11.04790497 7.0912027 -11.04855347 6.00608826 C-10.67433167 3.38095093 -10.67433167 3.38095093 -9.63058853 1.74068928 C-6.6253996 -0.34813183 -3.53065473 -0.03189271 0 0 Z " fill="#A45DAD" transform="translate(161.67433166503906,48.619049072265625)"/>
<path d="M0 0 C1.21008658 -0.00657338 1.21008658 -0.00657338 2.44461936 -0.01327956 C5.16300761 -0.02669405 7.88136343 -0.03285233 10.59977722 -0.03897095 C12.54267525 -0.04686976 14.4855718 -0.05513857 16.4284668 -0.06375122 C22.82173761 -0.08999453 29.21501506 -0.10528008 35.60832214 -0.11953735 C37.80667818 -0.12489588 40.00503418 -0.13027338 42.20339012 -0.13566971 C51.34541283 -0.15730085 60.48743376 -0.17603901 69.62947559 -0.1872921 C82.74486128 -0.20354062 95.85995113 -0.23673778 108.97522527 -0.29369295 C118.18970494 -0.33234854 127.40410533 -0.35191954 136.61866397 -0.35721266 C142.12590308 -0.36087182 147.63282684 -0.37295316 153.13997841 -0.4053154 C158.32008314 -0.43531923 163.49968043 -0.4417353 168.67985344 -0.42993164 C170.58220432 -0.42971027 172.48457822 -0.43806772 174.38684845 -0.45558548 C176.98239121 -0.47818851 179.57608005 -0.47002438 182.17163086 -0.45410156 C182.92611018 -0.46798365 183.68058949 -0.48186574 184.45793182 -0.49616849 C188.4777894 -0.43532139 190.09696092 0.00311035 193.22033215 2.62940025 C194.23803173 3.8790277 194.23803173 3.8790277 195.27629089 5.15390015 C195.60629089 5.48390015 195.93629089 5.81390015 196.27629089 6.15390015 C196.38089647 8.16266619 196.41484911 10.17513833 196.42155457 12.18661499 C196.42793442 13.47820526 196.43431427 14.76979553 196.44088745 16.1005249 C196.44241617 17.52196211 196.44353011 18.94339981 196.44425964 20.36483765 C196.44747083 21.81353794 196.4508348 23.2622379 196.4543457 24.7109375 C196.46034399 27.75247957 196.46218494 30.7939932 196.46159363 33.83554077 C196.46149207 37.73526081 196.47513443 41.6347985 196.49236584 45.53447533 C196.50347964 48.52845092 196.50551301 51.52238238 196.5049839 54.5163765 C196.50616534 55.95410413 196.51059625 57.39183286 196.51831627 58.82954025 C196.52810129 60.84046846 196.52397772 62.85144987 196.51921082 64.86239624 C196.52063583 66.00743622 196.52206085 67.1524762 196.52352905 68.33221436 C196.27629089 71.15390015 196.27629089 71.15390015 194.27629089 74.15390015 C193.61629089 74.15390015 192.95629089 74.15390015 192.27629089 74.15390015 C192.27629089 74.81390015 192.27629089 75.47390015 192.27629089 76.15390015 C190.27629089 77.15390015 190.27629089 77.15390015 179.27629089 77.15390015 C179.27629089 202.55390015 179.27629089 327.95390015 179.27629089 457.15390015 C176.63629089 457.15390015 173.99629089 457.15390015 171.27629089 457.15390015 C171.27629089 331.42390015 171.27629089 205.69390015 171.27629089 76.15390015 C118.47629089 76.15390015 65.67629089 76.15390015 11.27629089 76.15390015 C11.27629089 201.88390015 11.27629089 327.61390015 11.27629089 457.15390015 C8.63629089 457.15390015 5.99629089 457.15390015 3.27629089 457.15390015 C3.27629089 332.08390015 3.27629089 207.01390015 3.27629089 78.15390015 C-0.02370911 77.82390015 -3.32370911 77.49390015 -6.72370911 77.15390015 C-10.37455658 75.48059506 -11.47909207 74.52082571 -13.72370911 71.15390015 C-13.99113464 68.35913086 -13.99113464 68.35913086 -14.01423645 64.9258728 C-14.02699615 63.64088898 -14.03975586 62.35590515 -14.05290222 61.03198242 C-14.05595985 59.62731069 -14.05818762 58.22263695 -14.05964661 56.81796265 C-14.06607414 55.37691108 -14.07280247 53.93586083 -14.07981873 52.49481201 C-14.09179472 49.47359187 -14.09549927 46.4524861 -14.09431458 43.4312439 C-14.09411146 39.5651804 -14.12140372 35.69985261 -14.15585899 31.83396339 C-14.17812937 28.85704195 -14.18215208 25.88029745 -14.18109512 22.90330124 C-14.18345127 21.4783716 -14.19227569 20.05343709 -14.20775986 18.62858963 C-14.22741695 16.63272865 -14.21906 14.63665167 -14.20954895 12.64071655 C-14.21239899 11.50615021 -14.21524902 10.37158386 -14.21818542 9.20263672 C-13.6151991 5.4848723 -12.32163305 3.8292656 -9.72370911 1.15390015 C-6.63793494 -0.38898694 -3.38700856 0.00221489 0 0 Z M-6.67996597 7.5136385 C-8.25956083 9.99600104 -8.09776945 12.04920278 -8.09602356 14.97055054 C-8.10225235 16.16511368 -8.10848114 17.35967682 -8.11489868 18.59043884 C-8.10568893 19.88110764 -8.09647919 21.17177643 -8.08699036 22.5015564 C-8.0864717 23.83769225 -8.08698961 25.17382888 -8.08850098 26.50996399 C-8.0884113 29.30846567 -8.07799035 32.10667899 -8.05989075 34.90512085 C-8.03718145 38.49553277 -8.03666379 42.08552419 -8.04340839 45.6759882 C-8.04674635 48.43404389 -8.040122 51.19200336 -8.03027916 53.95004082 C-8.02454934 55.91878846 -8.02586413 57.88755249 -8.0272522 59.85630798 C-8.01772018 61.04771896 -8.00818817 62.23912994 -7.99836731 63.46664429 C-7.99375992 64.519048 -7.98915253 65.57145172 -7.98440552 66.65574646 C-7.97079006 69.32674965 -7.97079006 69.32674965 -5.72370911 71.15390015 C-3.15747899 71.35139848 -0.69907828 71.42318783 1.86833191 71.40786743 C3.05709222 71.4125474 3.05709222 71.4125474 4.2698679 71.41732192 C6.94005208 71.4253343 9.61001105 71.41896575 12.28019714 71.41268921 C14.18855422 71.41539764 16.09691025 71.41895773 18.00526428 71.42330933 C23.19935528 71.43245325 28.39336712 71.42888084 33.58745956 71.42255116 C39.01311716 71.4175015 44.43876781 71.42217971 49.86442566 71.42532349 C58.97731244 71.42896616 68.09016684 71.42415614 77.20304871 71.41464233 C87.75152843 71.40375721 98.29993085 71.40728258 108.8484087 71.41829515 C117.89129964 71.42735945 126.93416726 71.4286575 135.97706127 71.42341781 C141.38403783 71.42029338 146.79097802 71.41990167 152.19795227 71.42649078 C157.2802659 71.43225119 162.36247948 71.42829139 167.44478226 71.41670227 C169.31450865 71.41404867 171.18424341 71.41483263 173.05396652 71.4192276 C175.59750954 71.42465701 178.1407278 71.4178809 180.68424988 71.40786743 C181.80573095 71.4145596 181.80573095 71.4145596 182.9498682 71.42138696 C187.06629519 71.51765361 187.06629519 71.51765361 190.27629089 69.15390015 C190.58338348 66.54545888 190.58338348 66.54545888 190.53507996 63.46664429 C190.54453644 61.67952782 190.54453644 61.67952782 190.55418396 59.85630798 C190.5501355 58.56361496 190.54608704 57.27092194 190.54191589 55.9390564 C190.54326282 54.6038862 190.54520359 53.26871649 190.54771423 51.93354797 C190.55066523 49.13333473 190.54636943 46.33324898 190.53703308 43.53305054 C190.52564944 39.94384874 190.53219104 36.35494641 190.54417801 32.76575565 C190.55140675 30.00767259 190.54910385 27.24966045 190.54392242 24.49157524 C190.54193906 22.5245278 190.54801392 20.55747761 190.55418396 18.59043884 C190.54787964 17.3958757 190.54157532 16.20131256 190.53507996 14.97055054 C190.53348877 13.91735123 190.53189758 12.86415192 190.53025818 11.77903748 C190.46225205 8.92150822 190.46225205 8.92150822 188.27629089 6.15390015 C185.68251845 5.85277791 183.32581693 5.74956185 180.72894287 5.77294922 C179.94122511 5.76826925 179.15350736 5.76358927 178.34191936 5.75876749 C175.68779464 5.74674864 173.03417972 5.75630138 170.38005066 5.76571655 C168.48316647 5.76165387 166.58628465 5.75631371 164.68940735 5.74978638 C159.52620723 5.73606993 154.36318627 5.74142948 149.19998288 5.75092363 C143.80548687 5.75849898 138.41100659 5.75148045 133.01651001 5.74676514 C123.95488216 5.7413009 114.89332756 5.74851621 105.83171082 5.76278687 C95.34570172 5.77910972 84.85986764 5.77383018 74.3738628 5.75730765 C65.38275195 5.74370592 56.39169387 5.74176684 47.40057606 5.74962366 C42.0254094 5.75430804 36.65032506 5.75490416 31.27516365 5.74501419 C26.22152746 5.73636607 21.16811745 5.74232694 16.11450577 5.75969696 C14.25648945 5.76367356 12.39845419 5.76250781 10.54044533 5.75590897 C8.01024491 5.74774942 5.48077596 5.75794684 2.95062256 5.77294922 C1.83934717 5.76291097 1.83934717 5.76291097 0.70562178 5.75266993 C-2.22483342 5.78653178 -4.23221383 5.8122758 -6.67996597 7.5136385 Z " fill="#474D5D" transform="translate(158.7237091064453,42.846099853515625)"/>
<path d="M0 0 C52.8 0 105.6 0 160 0 C160 125.73 160 251.46 160 381 C156.7 381 153.4 381 150 381 C150 258.57 150 136.14 150 10 C148.02 9.505 148.02 9.505 146 9 C146.7425 8.3503125 146.7425 8.3503125 147.5 7.6875 C149.33218192 6.00259517 149.33218192 6.00259517 149 3 C146.08327116 2.97299325 143.16679323 2.95315763 140.25 2.9375 C139.425 2.92912109 138.6 2.92074219 137.75 2.91210938 C136.95078125 2.90888672 136.1515625 2.90566406 135.328125 2.90234375 C134.5949707 2.89710693 133.86181641 2.89187012 133.10644531 2.88647461 C130.97425251 2.91757649 130.97425251 2.91757649 128.91699219 3.63110352 C127 4 127 4 124 2 C122.0908882 1.70382397 122.0908882 1.70382397 119.99038696 1.75276184 C119.17731583 1.74856735 118.36424469 1.74437286 117.52653503 1.74005127 C116.63815445 1.74567078 115.74977386 1.75129028 114.83447266 1.75708008 C113.8959697 1.75518173 112.95746674 1.75328339 111.99052429 1.75132751 C108.88161927 1.74761664 105.77294685 1.75833018 102.6640625 1.76953125 C100.50556465 1.77072321 98.34706628 1.77117618 96.18856812 1.7709198 C91.66083537 1.77248532 87.13318162 1.78077895 82.60546875 1.79418945 C76.80259378 1.811159 70.99980583 1.81500437 65.19690895 1.81424427 C60.73767262 1.81451631 56.27845531 1.82000339 51.81922531 1.82724571 C49.67980468 1.83042761 47.54038189 1.83239867 45.40095901 1.83313942 C42.40870758 1.83530918 39.41654807 1.84406789 36.42431641 1.85473633 C35.53998428 1.85428314 34.65565216 1.85382996 33.74452209 1.85336304 C29.67569523 1.87455914 25.98257195 2.08369958 22 3 C19.21924515 3.068089 16.46635261 3.09478336 13.6875 3.0625 C12.94693359 3.05798828 12.20636719 3.05347656 11.44335938 3.04882812 C9.62887101 3.03712175 7.81442466 3.01918898 6 3 C4.768606 5.46278801 4.92840804 7.2795055 5 10 C6.32 10 7.64 10 9 10 C9.81909683 46.46820371 10.1526352 82.91828679 10.1343255 119.39515543 C10.13278218 123.46271673 10.13289978 127.53027424 10.13381577 131.59783554 C10.133969 132.28646355 10.13412223 132.97509156 10.13428011 133.68458708 C10.13460004 135.08630936 10.13492426 136.48803164 10.1352527 137.88975392 C10.1380633 150.84947316 10.13489218 163.80918519 10.12945233 176.76890324 C10.12499453 187.72517087 10.12576058 198.68142787 10.13037109 209.63769531 C10.13580758 222.56160494 10.13778283 235.48550833 10.13475883 248.40941894 C10.1344405 249.80603592 10.13412613 251.20265289 10.13381577 252.59926987 C10.13366149 253.28527414 10.13350721 253.97127842 10.13334826 254.6780707 C10.13250933 259.35583819 10.1339402 264.03360137 10.13629532 268.71136856 C10.15265048 306.15224146 9.74090751 343.56753169 9 381 C6.03 381 3.06 381 0 381 C0 255.27 0 129.54 0 0 Z " fill="#9A49A2" transform="translate(170,119)"/>
<path d="M0 0 C0.03425331 1.13632622 0.03425331 1.13632622 0.06919861 2.29560852 C0.28512309 9.43215169 0.5053725 16.568542 0.73049068 23.70480061 C0.8460753 27.37368852 0.95998236 31.04261258 1.07006836 34.71166992 C1.17635361 38.25199979 1.28702875 41.79216759 1.40075874 45.33226585 C1.46415064 47.341315 1.52298648 49.35050622 1.58177185 51.35969543 C1.62173782 52.58073471 1.6617038 53.80177399 1.70288086 55.05981445 C1.73619003 56.13681107 1.76949921 57.21380768 1.80381775 58.32344055 C1.89708176 61.10129973 1.89708176 61.10129973 3 64 C55.8 64 108.6 64 163 64 C163 64.33 163 64.66 163 65 C168.61 65.66 174.22 66.32 180 67 C180 67.33 180 67.66 180 68 C127.2 68 74.4 68 20 68 C20 193.73 20 319.46 20 449 C17.36 449 14.72 449 12 449 C12 323.93 12 198.86 12 70 C8.7 69.67 5.4 69.34 2 69 C0 65 0 65 0 62 C-1.32 62 -2.64 62 -4 62 C-4.02316465 54.48955919 -4.04093616 46.97912207 -4.05181217 39.46865368 C-4.05703196 35.98128689 -4.06411324 32.49394453 -4.07543945 29.0065918 C-4.08837754 24.99788172 -4.09323569 20.98919733 -4.09765625 16.98046875 C-4.10281754 15.72727341 -4.10797882 14.47407806 -4.11329651 13.1829071 C-4.11337204 12.02193008 -4.11344757 10.86095306 -4.11352539 9.66479492 C-4.115746 8.64109299 -4.11796661 7.61739105 -4.12025452 6.56266785 C-4 4 -4 4 -3 1 C-1 0 -1 0 0 0 Z " fill="#131319" transform="translate(150,51)"/>
<path d="M0 0 C1.32 0 2.64 0 4 0 C4.81909683 36.46820371 5.1526352 72.91828679 5.1343255 109.39515543 C5.13278218 113.46271673 5.13289978 117.53027424 5.13381577 121.59783554 C5.133969 122.28646355 5.13412223 122.97509156 5.13428011 123.68458708 C5.13460004 125.08630936 5.13492426 126.48803164 5.1352527 127.88975392 C5.1380633 140.84947316 5.13489218 153.80918519 5.12945233 166.76890324 C5.12499453 177.72517087 5.12576058 188.68142787 5.13037109 199.63769531 C5.13580758 212.56160494 5.13778283 225.48550833 5.13475883 238.40941894 C5.1344405 239.80603592 5.13412613 241.20265289 5.13381577 242.59926987 C5.13366149 243.28527414 5.13350721 243.97127842 5.13334826 244.6780707 C5.13250933 249.35583819 5.1339402 254.03360137 5.13629532 258.71136856 C5.15265048 296.15224146 4.74090751 333.56753169 4 371 C2.68 371 1.36 371 0 371 C-0.01030746 369.88931152 -0.02061493 368.77862305 -0.03123474 367.63427734 C-0.15267164 354.58275969 -0.27742179 341.53127513 -0.40385818 328.47980499 C-0.43754301 324.99555126 -0.47095959 321.51129501 -0.50436401 318.02703857 C-0.74472901 293.06255725 -1.01680429 268.10152396 -1.4961853 243.14044189 C-2.68150819 180.3046917 -2.41497131 117.40148745 -1.5625 54.5625 C-1.5526432 53.81430244 -1.54278641 53.06610489 -1.53263092 52.29523468 C-1.30217434 34.84913919 -0.88420304 17.42693678 0 0 Z " fill="#C98CCE" transform="translate(175,129)"/>
<path d="M0 0 C0.99 0.33 1.98 0.66 3 1 C3.1288299 39.24957353 3.25633782 77.49915127 3.38218227 115.74873474 C3.39719442 120.31124962 3.41221702 124.87376447 3.42724609 129.4362793 C3.43023671 130.34422121 3.43322732 131.25216313 3.43630856 132.18761844 C3.4841377 146.70092203 3.53280411 161.21422269 3.58180541 175.72752237 C3.63243462 190.72878656 3.68210525 205.73005373 3.73096704 220.73132378 C3.75828717 229.11120801 3.78599021 237.49109053 3.81480408 245.87096977 C3.97284172 291.91413643 4.02989573 337.95656463 4 384 C2.02 384 0.04 384 -2 384 C-2.04575625 335.94716966 -2.08100843 287.89434163 -2.10213066 239.84149381 C-2.10463214 234.17118464 -2.10722078 228.50087551 -2.10986328 222.83056641 C-2.1103879 221.70168789 -2.11091252 220.57280936 -2.11145304 219.4097224 C-2.12016075 201.11996579 -2.13593275 182.83022172 -2.15430559 164.54047255 C-2.17299445 145.77997849 -2.18411458 127.01949101 -2.18817699 108.25898802 C-2.19092415 96.67845061 -2.19960759 85.09794866 -2.21583293 73.51742215 C-2.22638729 65.58121987 -2.22960414 57.64503598 -2.22700275 49.70882718 C-2.22571905 45.12690664 -2.22771666 40.54504815 -2.23841095 35.96313858 C-2.24812718 31.76973325 -2.24864549 27.57643185 -2.24179779 23.38302179 C-2.24095117 21.86475341 -2.24350201 20.34647861 -2.24976636 18.82822292 C-2.25778181 16.76590564 -2.25347275 14.70396448 -2.24609566 12.64165306 C-2.2468551 11.4956571 -2.24761454 10.34966115 -2.24839699 9.16893804 C-1.98671947 5.83057288 -1.18823746 3.11945129 0 0 Z " fill="#020104" transform="translate(333,116)"/>
<path d="M0 0 C1.65 0 3.3 0 5 0 C5.05614124 12.52495367 4.9949804 25.04302485 4.78125 37.56640625 C4.1342478 75.91950913 3.875 114.26629526 3.875 152.625 C3.875 153.82229107 3.875 155.01958214 3.875 156.25315475 C3.87889567 185.22125314 3.98462195 214.17773935 4.57119751 243.14044189 C5.42494163 285.75093993 5.08520412 328.38325518 5 371 C3.35 371 1.7 371 0 371 C0 248.57 0 126.14 0 0 Z " fill="#AE6AB4" transform="translate(170,129)"/>
<path d="M0 0 C1.18603332 -0.00384491 1.18603332 -0.00384491 2.39602691 -0.0077675 C5.05408431 -0.01272169 7.71157777 0.00381423 10.36958313 0.02018738 C12.27147915 0.0210333 14.17337616 0.0205592 16.07527161 0.01885986 C21.24650198 0.01799712 26.41752472 0.0356681 31.58870673 0.05658174 C36.9899235 0.07530199 42.39114472 0.0770953 47.79238892 0.08065796 C58.024008 0.08999212 68.25553123 0.11462444 78.48710805 0.14470643 C90.13385911 0.17820781 101.78061468 0.19472572 113.4274019 0.20979273 C137.38905783 0.2411728 161.35062859 0.29395992 185.31221008 0.36076355 C185.64221008 1.68076355 185.97221008 3.00076355 186.31221008 4.36076355 C165.2522028 5.04508726 144.19323863 5.48077308 123.12471008 5.79826355 C95.74669552 6.21155546 68.37365809 6.79875518 40.99971008 7.42326355 C39.47806433 7.45795305 39.47806433 7.45795305 37.92567825 7.49334335 C25.38778314 7.7793712 12.84996082 8.06847749 0.31221008 8.36076355 C0.31221008 9.35076355 0.31221008 10.34076355 0.31221008 11.36076355 C-0.67778992 11.85576355 -0.67778992 11.85576355 -1.68778992 12.36076355 C-4.77158612 21.68487157 -4.12899313 32.33670925 -4.31278992 42.04826355 C-4.35105757 43.73252659 -4.39011408 45.4167719 -4.42997742 47.10099792 C-4.52500437 51.18743907 -4.60937553 55.27397126 -4.68778992 59.36076355 C-7.16278992 59.85576355 -7.16278992 59.85576355 -9.68778992 60.36076355 C-10.56748287 48.83576302 -10.90317769 37.35821439 -10.92802429 25.80143738 C-10.93793813 23.00647921 -10.96918536 20.2121974 -11.00028992 17.41740417 C-11.00680354 15.63160117 -11.0120604 13.84579303 -11.01591492 12.0599823 C-11.02826172 11.22883408 -11.04060852 10.39768585 -11.05332947 9.54135132 C-11.03142021 3.92747103 -11.03142021 3.92747103 -9.64599895 1.64266491 C-6.61436017 -0.34193521 -3.50419489 -0.04125693 0 0 Z " fill="#B681B8" transform="translate(161.6877899169922,48.63923645019531)"/>
<path d="M0 0 C0.33 0 0.66 0 1 0 C1.0505939 6.51445205 1.08568856 13.02885368 1.10986328 19.54345703 C1.11993825 21.76092421 1.13359859 23.97837805 1.15087891 26.19580078 C1.17506163 29.37796312 1.18646797 32.55995024 1.1953125 35.7421875 C1.20563507 36.73805878 1.21595764 37.73393005 1.22659302 38.75997925 C1.22674408 39.68078278 1.22689514 40.6015863 1.22705078 41.55029297 C1.231492 42.3630368 1.23593323 43.17578064 1.24050903 44.01315308 C1 46 1 46 -1 48 C-3.56623011 48.19749834 -6.02463083 48.26928768 -8.59204102 48.25396729 C-9.78080133 48.25864726 -9.78080133 48.25864726 -10.993577 48.26342177 C-13.66376119 48.27143415 -16.33372015 48.26506561 -19.00390625 48.25878906 C-20.91226332 48.26149749 -22.82061935 48.26505758 -24.72897339 48.26940918 C-29.92306438 48.27855311 -35.11707623 48.27498069 -40.31116867 48.26865101 C-45.73682627 48.26360136 -51.16247691 48.26827957 -56.58813477 48.27142334 C-65.70102154 48.27506601 -74.81387595 48.270256 -83.92675781 48.26074219 C-94.47523754 48.24985707 -105.02363996 48.25338243 -115.57211781 48.264395 C-124.61500875 48.2734593 -133.65787636 48.27475736 -142.70077038 48.26951766 C-148.10774694 48.26639324 -153.51468712 48.26600153 -158.92166138 48.27259064 C-164.00397501 48.27835104 -169.08618859 48.27439124 -174.16849136 48.26280212 C-176.03821776 48.26014852 -177.90795252 48.26093248 -179.77767563 48.26532745 C-182.32121865 48.27075687 -184.8644369 48.26398075 -187.40795898 48.25396729 C-188.52944005 48.26065945 -188.52944005 48.26065945 -189.67357731 48.26748681 C-194.77169986 48.22830014 -194.77169986 48.22830014 -197 46 C-197.22705078 44.02880859 -197.22705078 44.02880859 -197.1953125 41.6484375 C-197.18564453 40.37226562 -197.18564453 40.37226562 -197.17578125 39.0703125 C-197.15902344 38.18085937 -197.14226562 37.29140625 -197.125 36.375 C-197.11597656 35.4778125 -197.10695312 34.580625 -197.09765625 33.65625 C-197.0740497 31.43723414 -197.0411231 29.21874923 -197 27 C-196.67 27 -196.34 27 -196 27 C-196 32.28 -196 37.56 -196 43 C-192.78540039 42.75443359 -192.78540039 42.75443359 -189.50585938 42.50390625 C-178.31440221 41.75487896 -167.1165984 41.89463334 -155.90625 41.9375 C-153.56781626 41.94243542 -151.22938125 41.94679663 -148.89094543 41.95062256 C-143.96436808 41.9591501 -139.03780487 41.97008031 -134.11123657 41.98278809 C-121.43225011 42.01372665 -108.7532373 42.01518712 -96.07421875 42.015625 C-94.83663504 42.01568794 -93.59905132 42.01575089 -92.32396507 42.01581573 C-64.54220847 42.02520403 -64.54220847 42.02520403 -36.76171875 41.79248047 C-34.47972992 41.76437557 -32.19764564 41.74310928 -29.91552734 41.72900391 C-26.87662975 41.70844303 -23.83924209 41.66331558 -20.80078125 41.609375 C-19.95731644 41.60814636 -19.11385162 41.60691772 -18.24482727 41.60565186 C-14.51013112 41.50920904 -12.21582543 41.13235441 -9.00341797 39.16235352 C-6.29904262 36.24343413 -6.17411171 34.11417777 -5.8125 30.1875 C-5.31895124 25.21404713 -4.40746043 20.79269053 -3 16 C-2.39436208 13.19871606 -1.88083613 10.38331069 -1.375 7.5625 C-1.2409375 6.83095703 -1.106875 6.09941406 -0.96875 5.34570312 C-0.64275312 3.56436303 -0.320935 1.78225902 0 0 Z " fill="#934499" transform="translate(348,66)"/>
<path d="M0 0 C4.88564791 3.03636961 8.8687689 6.2586986 10.55078125 11.90625 C11.60560734 18.6904473 10.55210828 24.2939991 6.55078125 29.90625 C2.20951206 34.1362046 -1.87358519 35.97908248 -7.88671875 36.28125 C-13.14145515 36.14182084 -16.16925342 34.21788151 -19.85546875 30.48046875 C-24.22353124 25.56639845 -25.92305541 21.50315938 -25.6875 14.8828125 C-24.92935297 8.59392076 -20.93624113 5.22750216 -16.38671875 1.32421875 C-11.60916979 -2.17225357 -5.31237363 -2.37235186 0 0 Z " fill="#4A1348" transform="translate(257.44921875,411.09375)"/>
<path d="M0 0 C4.95960255 2.72970373 7.74627945 6.06625342 10.25 11.1875 C11.35499412 16.82297002 10.8263213 22.04235052 8.1875 27.1875 C5.07345928 31.4798264 1.88288575 33.70570475 -3.125 35.375 C-9.05247862 36.19338955 -13.4281607 35.48493694 -18.328125 31.9765625 C-23.14060105 27.68718167 -25.40508111 23.41093349 -25.8125 16.9375 C-25.50116781 10.8791439 -23.34128732 6.68975687 -19.125 2.375 C-13.11364909 -2.11833301 -6.94861624 -3.09694881 0 0 Z " fill="#4A1348" transform="translate(212.125,449.625)"/>
<path d="M0 0 C4.66970577 2.66085121 8.70020937 6.06325908 10.7578125 11.1171875 C11.82130782 17.41345627 11.17370685 22.91477103 7.96875 28.4609375 C5.4355564 31.92569261 2.7856814 33.77456453 -1.2421875 35.1171875 C-6.83346777 35.60934926 -11.65694162 35.90981044 -16.7421875 33.3671875 C-17.5671875 32.6246875 -18.3921875 31.8821875 -19.2421875 31.1171875 C-19.9846875 30.4984375 -20.7271875 29.8796875 -21.4921875 29.2421875 C-25.03554043 24.93954465 -25.82167227 19.94168631 -25.68359375 14.4921875 C-24.7113244 9.26086214 -21.52021153 5.17904867 -17.63671875 1.6640625 C-12.36809218 -1.89007039 -5.87565105 -2.31340965 0 0 Z " fill="#4A1249" transform="translate(257.2421875,333.8828125)"/>
<path d="M0 0 C4.90713015 2.31973425 7.8111048 5.71776931 11 10 C12.78978122 15.36934366 12.72387545 20.90880426 10.875 26.25 C7.94442492 30.54817678 5.02239556 34.32586815 0 36 C-5.56545491 36.48988853 -10.40680952 36.76814541 -15.5 34.3125 C-20.76394167 29.44335395 -23.66588826 25.3968027 -24.375 18.1875 C-24.21285218 12.81635352 -22.21302845 8.28077422 -18.46875 4.421875 C-12.54800202 -0.62817475 -7.59040287 -0.70631534 0 0 Z " fill="#4A1247" transform="translate(256,178)"/>
<path d="M0 0 C4.57354208 3.33821422 7.02443031 7.7550887 8.625 13.125 C9.17208055 19.13311673 7.39190378 24.45403931 3.625 29.125 C0.6284104 32.51655556 -2.00145772 33.92975833 -6.5078125 34.5703125 C-11.53738692 34.74216584 -15.32628199 34.6033626 -19.9375 32.5 C-24.95422121 27.61191267 -27.48453528 22.976704 -27.8125 16 C-27.75375644 9.67247953 -25.64356459 5.70902433 -21.375 1.125 C-15.40909504 -3.4534852 -6.57284054 -3.51049438 0 0 Z " fill="#4B134A" transform="translate(305.375,141.875)"/>
<path d="M0 0 C5.15881032 2.34491378 8.19416045 6.1820046 11 11 C12.90209505 16.70628515 12.22523428 21.68645808 9.984375 27.140625 C7.73600367 31.38754862 4.40120446 34.22393873 0 36 C-5.56525645 36.66659061 -10.44173472 36.77913264 -15.5 34.25 C-16.325 33.5075 -17.15 32.765 -18 32 C-19.11375 31.01 -19.11375 31.01 -20.25 30 C-24.01528891 25.69681268 -24.38952768 22.10171397 -24.2421875 16.52734375 C-23.69956226 10.86478678 -21.62218236 7.30403325 -17.4375 3.625 C-11.95143558 -0.78744751 -6.91594428 -0.6344903 0 0 Z " fill="#4A1249" transform="translate(211,140)"/>
<path d="M0 0 C5.42159884 3.17361883 8.69726353 7.06444685 10.70703125 13.09375 C11.26202334 20.16989912 9.83341285 25.51970912 5.33203125 30.96875 C0.05694129 35.23906092 -4.8084477 35.53593078 -11.4140625 35.40625 C-15.36474027 34.97741117 -17.42245616 33.82073696 -20.29296875 31.09375 C-24.46890238 25.67632259 -25.71827178 21.20574091 -25.640625 14.47265625 C-24.85220369 9.07772843 -21.55560873 5.26620141 -17.66796875 1.65625 C-12.4719986 -1.76215141 -5.79567312 -2.29062379 0 0 Z " fill="#4C134A" transform="translate(212.29296875,371.90625)"/>
<path d="M0 0 C4.86227623 2.43650487 7.9029815 6.41898885 9.83203125 11.38671875 C10.91733121 17.38442906 10.05626345 22.42291885 7.03515625 27.69921875 C4.19028839 31.68942302 0.51583303 34.10931826 -4.16796875 35.38671875 C-10.22646073 36.25886251 -14.41802806 35.415188 -19.44140625 31.8828125 C-24.54169125 27.46333478 -25.94593633 23.0511078 -26.48046875 16.63671875 C-26.40970523 11.89556293 -24.83478348 8.26650405 -22.16796875 4.38671875 C-16.09184278 -1.39301083 -8.01820091 -2.26821179 0 0 Z " fill="#4C1349" transform="translate(258.16796875,256.61328125)"/>
<path d="M0 0 C3.71351979 2.76133523 5.9706485 5.4119455 7.4375 9.8125 C8.10435127 17.19159198 8.10257895 23.76247573 3.4375 29.8125 C-0.69386851 33.64877076 -4.62226647 34.57284223 -10.1015625 34.91015625 C-15.21333649 34.70730808 -18.52354204 32.70978187 -22.3125 29.4375 C-26.87987182 24.10889954 -28.18560501 20.65199613 -27.9765625 13.6015625 C-27.12074906 7.83693238 -24.07803322 4.32803322 -20.0625 0.3125 C-13.64928543 -2.43602053 -6.57571433 -2.19190478 0 0 Z " fill="#4A1248" transform="translate(214.5625,218.1875)"/>
<path d="M0 0 C4.45556328 2.30664117 7.96396194 5.70358261 9.828125 10.3515625 C10.72999285 16.75052961 10.78013958 22.99722017 6.828125 28.3515625 C2.46724943 32.71243807 -1.00676205 35.45043481 -7.359375 35.6640625 C-12.37983247 35.56610235 -16.22618791 34.53384492 -20.171875 31.3515625 C-24.36361195 26.35607016 -25.95657534 21.25780752 -25.59375 14.77734375 C-24.65805628 9.39710483 -22.52841353 5.61120542 -18.546875 1.9140625 C-13.08050095 -1.68223622 -6.27771538 -1.87428193 0 0 Z " fill="#4B144A" transform="translate(303.171875,449.6484375)"/>
<path d="M0 0 C4.47413236 2.46605721 7.51255818 5.77511637 9.8125 10.375 C10.50161981 17.81975339 10.44646217 23.3633734 5.8125 29.375 C0.38098798 34.28922516 -3.02050426 34.66716861 -10.203125 34.58984375 C-15.2639942 34.22551416 -18.00045533 32.62799159 -21.4375 29 C-25.27833709 23.23874436 -25.9903751 18.21507876 -25.1875 11.375 C-23.84326714 6.17850248 -21.49749251 3.1866016 -16.9375 0.375 C-10.97100624 -2.50571303 -6.15878431 -2.73339304 0 0 Z " fill="#4A1348" transform="translate(303.1875,372.625)"/>
<path d="M0 0 C4.92265695 2.2855193 7.81049249 5.71694706 11 10 C12.73973368 15.21920105 12.46891181 19.54390543 10.8125 24.6875 C8.19767308 29.46632162 5.10372688 32.96564733 0 35 C-5.75780529 35.71502157 -12.01281169 36.26034223 -17.0625 33 C-21.22789586 29.30087979 -23.54301832 25.00571455 -24.37890625 19.5078125 C-24.70023831 12.6872804 -23.10465208 8.4949512 -18.6328125 3.4609375 C-13.30007031 -1.28812147 -6.76275327 -0.93369626 0 0 Z " fill="#4A1349" transform="translate(211,295)"/>
<path d="M0 0 C3.66864538 2.68437467 6.50666083 5.76332166 8.5625 9.875 C9.06428565 16.32101568 9.52479274 22.45986659 5.5625 27.875 C0.80367297 32.42692151 -2.74036909 34.56549317 -9.25 35.3125 C-14.21039061 35.18122312 -17.66396629 32.9457026 -21.4375 29.875 C-26.04705203 24.91086705 -26.74409655 21.01318284 -26.6484375 14.44140625 C-26.21246222 9.13704032 -24.36329205 5.42271518 -20.375 2 C-14.3050062 -2.39105935 -7.06485007 -2.31213275 0 0 Z " fill="#4A134A" transform="translate(304.4375,218.125)"/>
<path d="M0 0 C4.45556328 2.30664117 7.96396194 5.70358261 9.828125 10.3515625 C10.73106403 16.75812992 10.76405686 22.97245562 6.828125 28.3515625 C1.21481019 33.83015776 -2.5014337 34.65437542 -10.19140625 34.5625 C-15.51638764 34.18563369 -18.55012036 32.25147878 -21.984375 28.3515625 C-25.87419696 23.01694953 -25.81656696 17.75371182 -25.171875 11.3515625 C-21.4068438 0.15877954 -10.67629443 -3.18752675 0 0 Z " fill="#4B1349" transform="translate(303.171875,295.6484375)"/>
<path d="M0 0 C-1.02789307 1.9695158 -1.02789307 1.9695158 -3 4 C-5.65472916 4.3948392 -7.89783117 4.52773784 -10.55371094 4.48774719 C-11.33003246 4.49187046 -12.10635399 4.49599372 -12.90620041 4.50024194 C-15.51594736 4.50919513 -18.12469696 4.48948651 -20.734375 4.4699707 C-22.60184857 4.4704793 -24.46932237 4.47273373 -26.33679199 4.47660828 C-31.41530907 4.48203919 -36.49346294 4.46258494 -41.57191467 4.43850732 C-46.87963755 4.4172535 -52.18735851 4.4178078 -57.49511719 4.41581726 C-66.40956903 4.40936422 -75.32388392 4.38809663 -84.23828125 4.35668945 C-95.68895351 4.31640023 -107.13953646 4.29900317 -118.590271 4.28938007 C-128.42303126 4.28108359 -138.25577251 4.26384352 -148.08851624 4.24434257 C-151.25477013 4.2382721 -154.42102475 4.23313167 -157.58728027 4.2279911 C-162.55797175 4.2192175 -167.52861887 4.20491802 -172.49928284 4.1862812 C-174.32666029 4.18015156 -176.15404426 4.17570539 -177.98143005 4.17303848 C-180.46975882 4.16906556 -182.95798681 4.15895571 -185.44628906 4.14717102 C-186.17478436 4.14735538 -186.90327965 4.14753975 -187.65385056 4.14772969 C-190.71319724 4.1272511 -193.07304355 3.97565215 -196 3 C-196 2.34 -196 1.68 -196 1 C-193.11684805 0.03894935 -191.26039457 -0.13754116 -188.26194763 -0.16494751 C-187.28473283 -0.17618432 -186.30751802 -0.18742113 -185.30069065 -0.19899845 C-184.22749545 -0.20632213 -183.15430025 -0.2136458 -182.04858398 -0.22119141 C-180.91432197 -0.2326718 -179.78005995 -0.2441522 -178.61142635 -0.25598049 C-174.82301013 -0.29283874 -171.03457654 -0.32240481 -167.24609375 -0.3515625 C-165.25573385 -0.36914315 -163.26537395 -0.3867273 -161.2750175 -0.40469462 C-153.46664965 -0.47498847 -145.65822384 -0.53513447 -137.84975052 -0.59233475 C-134.18650793 -0.61922466 -130.5232798 -0.64770258 -126.8600536 -0.67673129 C-84.56385374 -1.01151834 -42.28683045 -1.14470408 0 0 Z " fill="#040004" transform="translate(349,45)"/>
<path d="M0 0 C47.19 0 94.38 0 143 0 C143 0.33 143 0.66 143 1 C148.61 1.66 154.22 2.32 160 3 C160 3.33 160 3.66 160 4 C107.2 4 54.4 4 0 4 C0 2.68 0 1.36 0 0 Z " fill="#070008" transform="translate(170,115)"/>
<path d="M0 0 C0.81025222 -0.00085442 1.62050443 -0.00170885 2.45530975 -0.00258917 C5.1853877 -0.00424356 7.91540495 0.00127675 10.64547729 0.00672913 C12.59648639 0.00701103 14.5474956 0.0068532 16.49850464 0.00628662 C21.80814345 0.00599878 27.11775985 0.01189334 32.42739344 0.01886058 C37.97143091 0.02509635 43.51546884 0.02569809 49.05950928 0.02688599 C59.56382355 0.02999864 70.06812746 0.03821114 80.57243717 0.04823548 C92.52872384 0.05939865 104.485011 0.06490758 116.44130158 0.06993091 C141.04175523 0.08039381 165.64219967 0.09799198 190.24264526 0.12025452 C190.24264526 0.45025452 190.24264526 0.78025452 190.24264526 1.12025452 C181.95117157 1.27781582 173.6595036 1.42196755 165.36764526 1.55775452 C164.69502907 1.56877575 164.02241287 1.57979698 163.32941437 1.59115219 C127.26125896 2.17645628 91.18923396 2.41563802 55.11764526 2.68275452 C53.9947697 2.69107874 53.9947697 2.69107874 52.84920979 2.69957113 C33.31371997 2.84430305 13.77819987 2.98453473 -5.75735474 3.12025452 C-5.75735474 3.78025452 -5.75735474 4.44025452 -5.75735474 5.12025452 C-4.76735474 5.45025452 -3.77735474 5.78025452 -2.75735474 6.12025452 C-4.07735474 6.45025452 -5.39735474 6.78025452 -6.75735474 7.12025452 C-7.08735474 19.66025452 -7.41735474 32.20025452 -7.75735474 45.12025452 C-8.08735474 45.12025452 -8.41735474 45.12025452 -8.75735474 45.12025452 C-9.08735474 33.24025452 -9.41735474 21.36025452 -9.75735474 9.12025452 C-10.41735474 9.12025452 -11.07735474 9.12025452 -11.75735474 9.12025452 C-12.08735474 29.25025452 -12.41735474 49.38025452 -12.75735474 70.12025452 C-11.43735474 70.12025452 -10.11735474 70.12025452 -8.75735474 70.12025452 C-8.09735474 72.10025452 -7.43735474 74.08025452 -6.75735474 76.12025452 C-10.41052145 74.87048696 -11.53801309 74.44926698 -13.75735474 71.12025452 C-14.02478027 68.32548523 -14.02478027 68.32548523 -14.04788208 64.89222717 C-14.06064178 63.60724335 -14.07340149 62.32225952 -14.08654785 60.99833679 C-14.08960548 59.59366506 -14.09183325 58.18899132 -14.09329224 56.78431702 C-14.09971977 55.34326545 -14.1064481 53.9022152 -14.11346436 52.46116638 C-14.12544035 49.43994624 -14.1291449 46.41884047 -14.12796021 43.39759827 C-14.12775709 39.53153477 -14.15504935 35.66620698 -14.18950462 31.80031776 C-14.211775 28.82339632 -14.21579771 25.84665182 -14.21474075 22.86965561 C-14.2170969 21.44472597 -14.22592132 20.01979146 -14.24140549 18.594944 C-14.26106258 16.59908302 -14.25270563 14.60300604 -14.24319458 12.60707092 C-14.24604462 11.47250458 -14.24889465 10.33793823 -14.25183105 9.16899109 C-13.64884473 5.45122667 -12.35527868 3.79561997 -9.75735474 1.12025452 C-6.66170554 -0.42757008 -3.39687803 -0.01294114 0 0 Z " fill="#45616B" transform="translate(158.75735473632813,42.87974548339844)"/>
<path d="M0 0 C4.88564791 3.03636961 8.8687689 6.2586986 10.55078125 11.90625 C11.60560734 18.6904473 10.55210828 24.2939991 6.55078125 29.90625 C2.20951206 34.1362046 -1.87358519 35.97908248 -7.88671875 36.28125 C-13.14145515 36.14182084 -16.16925342 34.21788151 -19.85546875 30.48046875 C-24.22353124 25.56639845 -25.92305541 21.50315938 -25.6875 14.8828125 C-24.92935297 8.59392076 -20.93624113 5.22750216 -16.38671875 1.32421875 C-11.60916979 -2.17225357 -5.31237363 -2.37235186 0 0 Z M-17.44921875 6.90625 C-20.4049877 11.35371543 -21.95950009 15.30933261 -21.01171875 20.65625 C-19.80346206 24.79471005 -17.8412347 27.19263724 -14.44921875 29.90625 C-10.50178414 31.8799673 -5.75247035 31.34217997 -1.44921875 30.90625 C3.36274053 28.40002121 4.91606756 24.98246619 6.55078125 19.90625 C7.07982144 15.59835127 6.87107766 13.52311716 4.86328125 9.65625 C1.88466663 6.11411369 -0.1071935 4.18451043 -4.81640625 3.625 C-9.71604808 3.45053204 -13.77416413 3.33928522 -17.44921875 6.90625 Z " fill="#140515" transform="translate(257.44921875,411.09375)"/>
<path d="M0 0 C4.66970577 2.66085121 8.70020937 6.06325908 10.7578125 11.1171875 C11.82130782 17.41345627 11.17370685 22.91477103 7.96875 28.4609375 C5.4355564 31.92569261 2.7856814 33.77456453 -1.2421875 35.1171875 C-6.83346777 35.60934926 -11.65694162 35.90981044 -16.7421875 33.3671875 C-17.5671875 32.6246875 -18.3921875 31.8821875 -19.2421875 31.1171875 C-19.9846875 30.4984375 -20.7271875 29.8796875 -21.4921875 29.2421875 C-25.03554043 24.93954465 -25.82167227 19.94168631 -25.68359375 14.4921875 C-24.7113244 9.26086214 -21.52021153 5.17904867 -17.63671875 1.6640625 C-12.36809218 -1.89007039 -5.87565105 -2.31340965 0 0 Z M-9.484375 4.3671875 C-13.63111574 5.01978932 -15.74285873 5.63003748 -18.8046875 8.6171875 C-20.9435643 13.82488753 -21.45766834 18.88578721 -19.44140625 24.24609375 C-17.73928727 27.39402807 -16.23487368 29.12206338 -13.2421875 31.1171875 C-7.94382946 31.7662741 -2.95112731 32.02397189 1.8203125 29.4921875 C6.25454493 24.05667678 7.41117693 19.97751405 6.7578125 13.1171875 C4.98451686 9.01060812 2.54018547 6.49216588 -1.2421875 4.1171875 C-4.1279687 3.72367188 -6.6077178 4.04644523 -9.484375 4.3671875 Z " fill="#0D030E" transform="translate(257.2421875,333.8828125)"/>
<path d="M0 0 C4.95960255 2.72970373 7.74627945 6.06625342 10.25 11.1875 C11.35499412 16.82297002 10.8263213 22.04235052 8.1875 27.1875 C5.07345928 31.4798264 1.88288575 33.70570475 -3.125 35.375 C-9.05247862 36.19338955 -13.4281607 35.48493694 -18.328125 31.9765625 C-23.14060105 27.68718167 -25.40508111 23.41093349 -25.8125 16.9375 C-25.50116781 10.8791439 -23.34128732 6.68975687 -19.125 2.375 C-13.11364909 -2.11833301 -6.94861624 -3.09694881 0 0 Z M-18.125 7.375 C-18.125 8.365 -18.125 9.355 -18.125 10.375 C-18.785 10.375 -19.445 10.375 -20.125 10.375 C-21.54298392 14.62895176 -22.04930874 18.28475825 -20.18359375 22.50390625 C-17.80661808 26.54998083 -15.64278803 29.65393789 -11.125 31.375 C-5.51009032 32.22253354 -2.38683547 30.74669197 2.17578125 27.76171875 C4.86012402 25.57104821 5.81713723 23.83668396 6.24609375 20.4140625 C6.55414293 13.3447998 6.55414293 13.3447998 3.5625 7.1875 C-3.78002551 2.23556419 -11.161527 0.96127487 -18.125 7.375 Z " fill="#140514" transform="translate(212.125,449.625)"/>
<path d="M0 0 C4.57354208 3.33821422 7.02443031 7.7550887 8.625 13.125 C9.17208055 19.13311673 7.39190378 24.45403931 3.625 29.125 C0.6284104 32.51655556 -2.00145772 33.92975833 -6.5078125 34.5703125 C-11.53738692 34.74216584 -15.32628199 34.6033626 -19.9375 32.5 C-24.95422121 27.61191267 -27.48453528 22.976704 -27.8125 16 C-27.75375644 9.67247953 -25.64356459 5.70902433 -21.375 1.125 C-15.40909504 -3.4534852 -6.57284054 -3.51049438 0 0 Z M-23.375 10.125 C-24.08022927 15.34861682 -23.97957319 19.82284237 -21.75 24.625 C-18.04755382 28.52231176 -14.66619448 30.25802511 -9.3125 30.5 C-4.34494432 30.02689946 -1.88858631 28.85481292 1.375 25.125 C4.11897281 20.73464351 4.55214092 16.13962306 3.625 11.125 C1.93770541 7.51192396 0.02772675 5.22196494 -3.375 3.125 C-12.12954776 1.37409045 -18.27088847 2.4688327 -23.375 10.125 Z " fill="#110410" transform="translate(305.375,141.875)"/>
<path d="M0 0 C5.42159884 3.17361883 8.69726353 7.06444685 10.70703125 13.09375 C11.26202334 20.16989912 9.83341285 25.51970912 5.33203125 30.96875 C0.05694129 35.23906092 -4.8084477 35.53593078 -11.4140625 35.40625 C-15.36474027 34.97741117 -17.42245616 33.82073696 -20.29296875 31.09375 C-24.46890238 25.67632259 -25.71827178 21.20574091 -25.640625 14.47265625 C-24.85220369 9.07772843 -21.55560873 5.26620141 -17.66796875 1.65625 C-12.4719986 -1.76215141 -5.79567312 -2.29062379 0 0 Z M-19.29296875 9.09375 C-21.68363128 13.0638033 -21.51601463 16.04478066 -20.9765625 20.546875 C-19.8751605 24.65038417 -17.46005214 27.34670419 -14.29296875 30.09375 C-10.81218542 31.83414167 -7.0986151 31.54769148 -3.29296875 31.09375 C0.03659727 29.88584353 2.87442719 28.35941993 4.87109375 25.32421875 C6.58443971 20.75262742 6.34921884 15.87739228 5.70703125 11.09375 C3.7052313 7.92390739 3.7052313 7.92390739 0.70703125 6.09375 C-0.07671875 5.495625 -0.86046875 4.8975 -1.66796875 4.28125 C-8.61517064 1.13846819 -14.58734029 3.49181135 -19.29296875 9.09375 Z " fill="#1A081A" transform="translate(212.29296875,371.90625)"/>
<path d="M0 0 C4.90713015 2.31973425 7.8111048 5.71776931 11 10 C12.78978122 15.36934366 12.72387545 20.90880426 10.875 26.25 C7.94442492 30.54817678 5.02239556 34.32586815 0 36 C-5.56545491 36.48988853 -10.40680952 36.76814541 -15.5 34.3125 C-20.76394167 29.44335395 -23.66588826 25.3968027 -24.375 18.1875 C-24.21285218 12.81635352 -22.21302845 8.28077422 -18.46875 4.421875 C-12.54800202 -0.62817475 -7.59040287 -0.70631534 0 0 Z M-16 7 C-19.93466155 12.37737079 -19.79240801 17.56495033 -19 24 C-17.79672236 27.22725235 -16.1282176 29.31408155 -13.13671875 31.1328125 C-8.70804955 32.9301883 -3.86800016 32.33963639 0.75 31.5 C4.84322106 28.77118596 7.41141495 24.71966883 8.453125 19.90625 C8.72416952 14.87256603 7.20323982 11.76851744 4 8 C3.34 8 2.68 8 2 8 C1.67 7.01 1.34 6.02 1 5 C-5.20342688 2.93219104 -10.57073405 3.33840203 -16 7 Z " fill="#100510" transform="translate(256,178)"/>
<path d="M0 0 C5.15881032 2.34491378 8.19416045 6.1820046 11 11 C12.90209505 16.70628515 12.22523428 21.68645808 9.984375 27.140625 C7.73600367 31.38754862 4.40120446 34.22393873 0 36 C-5.56525645 36.66659061 -10.44173472 36.77913264 -15.5 34.25 C-16.325 33.5075 -17.15 32.765 -18 32 C-19.11375 31.01 -19.11375 31.01 -20.25 30 C-24.01528891 25.69681268 -24.38952768 22.10171397 -24.2421875 16.52734375 C-23.69956226 10.86478678 -21.62218236 7.30403325 -17.4375 3.625 C-11.95143558 -0.78744751 -6.91594428 -0.6344903 0 0 Z M-16.75 9 C-20.05451143 13.40601524 -20.54800334 16.56055946 -20 22 C-18.69352364 25.77426504 -17.36459778 27.66208011 -14.4375 30.375 C-9.76429079 32.58415345 -6.06955063 33.10410459 -1 32 C2.65155509 30.31557297 4.91419385 28.45198106 7 25 C8.08944709 19.86494531 8.2670126 14.74859991 6.03125 9.8984375 C3.60220703 6.73756748 0.82878595 4.93385023 -3 4 C-8.93730087 3.50522493 -12.85641038 4.42586892 -16.75 9 Z " fill="#100411" transform="translate(211,140)"/>
<path d="M0 0 C4.86227623 2.43650487 7.9029815 6.41898885 9.83203125 11.38671875 C10.91733121 17.38442906 10.05626345 22.42291885 7.03515625 27.69921875 C4.19028839 31.68942302 0.51583303 34.10931826 -4.16796875 35.38671875 C-10.22646073 36.25886251 -14.41802806 35.415188 -19.44140625 31.8828125 C-24.54169125 27.46333478 -25.94593633 23.0511078 -26.48046875 16.63671875 C-26.40970523 11.89556293 -24.83478348 8.26650405 -22.16796875 4.38671875 C-16.09184278 -1.39301083 -8.01820091 -2.26821179 0 0 Z M-19.48046875 7.76171875 C-21.90975576 12.98018715 -22.08960908 17.72521387 -21.16796875 23.38671875 C-19.52289304 26.61009587 -17.4503556 28.74552532 -14.16796875 30.38671875 C-8.84449432 30.86638188 -3.89921483 31.30533912 0.89453125 28.76171875 C4.62297794 24.19136474 6.42413717 20.23714242 6.1875 14.34375 C5.44238164 10.24150495 3.02046537 7.45605606 0 4.73828125 C-6.06839747 0.95510013 -14.73856178 2.89165213 -19.48046875 7.76171875 Z " fill="#110410" transform="translate(258.16796875,256.61328125)"/>
<path d="M0 0 C3.66864538 2.68437467 6.50666083 5.76332166 8.5625 9.875 C9.06428565 16.32101568 9.52479274 22.45986659 5.5625 27.875 C0.80367297 32.42692151 -2.74036909 34.56549317 -9.25 35.3125 C-14.21039061 35.18122312 -17.66396629 32.9457026 -21.4375 29.875 C-26.04705203 24.91086705 -26.74409655 21.01318284 -26.6484375 14.44140625 C-26.21246222 9.13704032 -24.36329205 5.42271518 -20.375 2 C-14.3050062 -2.39105935 -7.06485007 -2.31213275 0 0 Z M-21.4375 8.875 C-23.43515403 12.87030807 -23.08693255 17.54346361 -22.4375 21.875 C-20.46472292 25.36529792 -18.04060735 28.07344633 -14.4375 29.875 C-9.93898004 30.28902308 -5.79809321 30.40740604 -1.5625 28.75 C1.74366113 25.83279901 4.15681365 23.16159581 4.94921875 18.6953125 C5.21346054 13.2829116 4.17211016 10.08621186 0.5625 5.875 C-3.36855479 2.33450357 -6.52782185 2.26192834 -11.66796875 2.37890625 C-16.05146052 3.16410153 -18.65721696 5.50019102 -21.4375 8.875 Z " fill="#10030F" transform="translate(304.4375,218.125)"/>
<path d="M0 0 C4.92265695 2.2855193 7.81049249 5.71694706 11 10 C12.73973368 15.21920105 12.46891181 19.54390543 10.8125 24.6875 C8.19767308 29.46632162 5.10372688 32.96564733 0 35 C-5.75780529 35.71502157 -12.01281169 36.26034223 -17.0625 33 C-21.22789586 29.30087979 -23.54301832 25.00571455 -24.37890625 19.5078125 C-24.70023831 12.6872804 -23.10465208 8.4949512 -18.6328125 3.4609375 C-13.30007031 -1.28812147 -6.76275327 -0.93369626 0 0 Z M-18 9 C-20.35904217 12.89754794 -20.39383683 16.51026018 -20 21 C-18.68233095 24.73339564 -17.34187159 26.68314341 -14.4375 29.375 C-9.82573752 31.5551059 -6.01536861 31.94137045 -1 31 C2.36660352 29.35315965 5.27998143 27.44003715 7 24 C7.91572308 15.43707294 7.91572308 15.43707294 4.75 7.8125 C-3.19004016 2.57929171 -10.97040577 1.75073095 -18 9 Z " fill="#0F040E" transform="translate(211,295)"/>
<path d="M0 0 C3.71351979 2.76133523 5.9706485 5.4119455 7.4375 9.8125 C8.10435127 17.19159198 8.10257895 23.76247573 3.4375 29.8125 C-0.69386851 33.64877076 -4.62226647 34.57284223 -10.1015625 34.91015625 C-15.21333649 34.70730808 -18.52354204 32.70978187 -22.3125 29.4375 C-26.87987182 24.10889954 -28.18560501 20.65199613 -27.9765625 13.6015625 C-27.12074906 7.83693238 -24.07803322 4.32803322 -20.0625 0.3125 C-13.64928543 -2.43602053 -6.57571433 -2.19190478 0 0 Z M-21.5625 7.8125 C-23.92452807 11.71498116 -24.09543745 15.32059864 -23.5625 19.8125 C-21.89821951 23.47259096 -20.12592717 26.80183265 -16.6953125 29.01953125 C-12.71304058 30.50011953 -8.7367773 30.34005479 -4.5625 29.8125 C-0.76396328 28.0168281 0.95761124 26.51633685 3.3125 23.0625 C4.65256145 19.19121137 5.28049626 15.82639963 4.4375 11.8125 C2.4094609 7.84189471 0.14518104 5.28428736 -3.5625 2.8125 C-10.72402906 1.72914767 -16.52202175 2.33437544 -21.5625 7.8125 Z " fill="#140515" transform="translate(214.5625,218.1875)"/>
<path d="M0 0 C4.47413236 2.46605721 7.51255818 5.77511637 9.8125 10.375 C10.50161981 17.81975339 10.44646217 23.3633734 5.8125 29.375 C0.38098798 34.28922516 -3.02050426 34.66716861 -10.203125 34.58984375 C-15.2639942 34.22551416 -18.00045533 32.62799159 -21.4375 29 C-25.27833709 23.23874436 -25.9903751 18.21507876 -25.1875 11.375 C-23.84326714 6.17850248 -21.49749251 3.1866016 -16.9375 0.375 C-10.97100624 -2.50571303 -6.15878431 -2.73339304 0 0 Z M-19.625 7.875 C-21.81961173 12.79093027 -22.22934381 17.08151418 -21.1875 22.375 C-19.1869947 25.85758697 -16.79935319 28.5690734 -13.1875 30.375 C-8.15502656 30.86933314 -3.69857539 31.19349917 0.8125 28.75 C4.85164299 23.9535177 6.45084067 19.78806458 6.23046875 13.5546875 C5.32216376 8.81791942 2.0977677 6.36366746 -1.625 3.5 C-8.29591703 0.57130472 -14.67413379 2.7971885 -19.625 7.875 Z " fill="#150514" transform="translate(303.1875,372.625)"/>
<path d="M0 0 C4.45556328 2.30664117 7.96396194 5.70358261 9.828125 10.3515625 C10.72999285 16.75052961 10.78013958 22.99722017 6.828125 28.3515625 C2.46724943 32.71243807 -1.00676205 35.45043481 -7.359375 35.6640625 C-12.37983247 35.56610235 -16.22618791 34.53384492 -20.171875 31.3515625 C-24.36361195 26.35607016 -25.95657534 21.25780752 -25.59375 14.77734375 C-24.65805628 9.39710483 -22.52841353 5.61120542 -18.546875 1.9140625 C-13.08050095 -1.68223622 -6.27771538 -1.87428193 0 0 Z M-19.8046875 9.15625 C-22.33349316 13.21678937 -21.76665101 17.74037773 -21.171875 22.3515625 C-19.3661557 26.24080408 -17.90439953 27.86321281 -14.359375 30.2265625 C-10.51465507 31.58352248 -8.22480943 31.98046612 -4.171875 31.3515625 C-0.00208802 28.94504297 3.15382425 26.36301362 5.828125 22.3515625 C6.63954405 17.9589767 6.67573484 13.94798103 4.5546875 9.953125 C1.7140479 6.05696798 1.7140479 6.05696798 -2.171875 3.3515625 C-9.65446889 2.53063044 -14.55603349 3.35510609 -19.8046875 9.15625 Z " fill="#110311" transform="translate(303.171875,449.6484375)"/>
<path d="M0 0 C4.45556328 2.30664117 7.96396194 5.70358261 9.828125 10.3515625 C10.73106403 16.75812992 10.76405686 22.97245562 6.828125 28.3515625 C1.21481019 33.83015776 -2.5014337 34.65437542 -10.19140625 34.5625 C-15.51638764 34.18563369 -18.55012036 32.25147878 -21.984375 28.3515625 C-25.87419696 23.01694953 -25.81656696 17.75371182 -25.171875 11.3515625 C-21.4068438 0.15877954 -10.67629443 -3.18752675 0 0 Z M-18.984375 7.2265625 C-22.27949356 11.93387472 -22.06282849 16.76825396 -21.171875 22.3515625 C-19.09042244 26.43930406 -17.50100289 28.63794938 -13.171875 30.3515625 C-8.52381917 31.07107579 -4.17245495 31.43229537 0.0625 29.14453125 C3.3137458 26.4911385 5.14341932 24.57257163 5.828125 20.3515625 C6.37856018 13.96371669 6.37856018 13.96371669 3.828125 8.3515625 C0.45901309 5.13177411 -2.53855435 3.03121812 -7.296875 2.9140625 C-12.23790859 3.47192113 -14.87971997 4.49012581 -18.984375 7.2265625 Z " fill="#110410" transform="translate(303.171875,295.6484375)"/>
<path d="M0 0 C37.29 0 74.58 0 113 0 C113.495 1.485 113.495 1.485 114 3 C83.33586357 4.16508845 52.68230108 4.1096045 22 4 C22 3.34 22 2.68 22 2 C14.74 1.67 7.48 1.34 0 1 C0 0.67 0 0.34 0 0 Z " fill="#CC92CB" transform="translate(234,50)"/>
<path d="M0 0 C2 0.66666667 4 1.33333333 6 2 C5.625 4.4375 5.625 4.4375 5 7 C4.01 7.495 4.01 7.495 3 8 C-0.0837962 17.32410802 0.55879679 27.9759457 0.375 37.6875 C0.33673235 39.37176304 0.29767584 41.05600835 0.2578125 42.74023438 C0.16278555 46.82667552 0.07841439 50.91320771 0 55 C-2.475 55.495 -2.475 55.495 -5 56 C-5.04982621 51.18027209 -5.08591929 46.3606976 -5.10986328 41.54077148 C-5.11985617 39.90467717 -5.13345507 38.26860041 -5.15087891 36.63256836 C-5.25179073 26.9064491 -5.11219616 18.33658848 -2 9 C-1.34 9 -0.68 9 0 9 C-0.185625 7.88625 -0.37125 6.7725 -0.5625 5.625 C-1 2 -1 2 0 0 Z " fill="#C98FCC" transform="translate(157,53)"/>
<path d="M0 0 C52.8 0 105.6 0 160 0 C160 0.33 160 0.66 160 1 C146.05501975 1.13169776 132.11002806 1.26212249 118.16502285 1.39115143 C111.68740238 1.4511226 105.20978598 1.51147631 98.73217773 1.57275391 C92.46219279 1.6320525 86.19219869 1.69028144 79.92219734 1.74781799 C77.54924234 1.76977188 75.17629066 1.79208899 72.80334282 1.81480408 C69.43848369 1.84694742 66.07361624 1.8778813 62.70874023 1.90820312 C61.64488318 1.91812035 60.58102613 1.92803757 59.48493099 1.93825531 C54.13128085 1.98344937 48.77913808 2.00229978 43.42532349 1.97827148 C42.37225289 1.97420036 41.3191823 1.97012924 40.23420048 1.96593475 C38.24860933 1.95637404 36.26303243 1.94243996 34.27751064 1.92328644 C30.02252514 1.90226875 26.16066115 2.00980548 22 3 C19.21924515 3.068089 16.46635261 3.09478336 13.6875 3.0625 C12.94693359 3.05798828 12.20636719 3.05347656 11.44335938 3.04882812 C9.62887101 3.03712175 7.81442466 3.01918898 6 3 C4.768606 5.46278801 4.92840804 7.2795055 5 10 C3.35 10 1.7 10 0 10 C0 6.7 0 3.4 0 0 Z " fill="#7D4E80" transform="translate(170,119)"/>
<path d="M0 0 C0 0.33 0 0.66 0 1 C-2.64 1.33 -5.28 1.66 -8 2 C-5.69 2.66 -3.38 3.32 -1 4 C-3.87429306 5.5910096 -6.32752388 6.31439031 -9.5625 6.8125 C-12.63436977 7.48447151 -13.75763643 7.76498078 -16.0625 10 C-17.60082549 14.92264156 -18.28834285 20.26809227 -16.02734375 25.0625 C-15.64707031 25.660625 -15.26679688 26.25875 -14.875 26.875 C-14.25625 27.90625 -13.6375 28.9375 -13 30 C-13.75 32.4375 -13.75 32.4375 -15 34 C-20.50192183 28.97650615 -22.89591508 25.25169372 -23.5 17.6875 C-23.3560931 12.00797433 -20.72703811 8.1319713 -17 4 C-11.92306322 -0.59518365 -6.57392504 -0.47617968 0 0 Z " fill="#190919" transform="translate(255,333)"/>
<path d="M0 0 C0.66 0.33 1.32 0.66 2 1 C2.04631753 9.4231212 2.08186618 17.84618929 2.10362434 26.26940632 C2.11406657 30.18054512 2.12823372 34.09159686 2.15087891 38.00268555 C2.17259173 41.77631169 2.18456532 45.54985404 2.18975449 49.32353783 C2.19345306 50.76406359 2.20067536 52.20458471 2.21146011 53.64507484 C2.22595347 55.66088014 2.22681674 57.67676956 2.22705078 59.69262695 C2.231492 60.84068314 2.23593323 61.98873932 2.24050903 63.17158508 C2 66 2 66 0 69 C-3.68354192 70.92129475 -6.69543144 71.22420647 -10.8125 71.125 C-11.78832031 71.10695313 -12.76414062 71.08890625 -13.76953125 71.0703125 C-14.50558594 71.04710938 -15.24164063 71.02390625 -16 71 C-16 70.67 -16 70.34 -16 70 C-12.7 70 -9.4 70 -6 70 C-5.67 69.01 -5.34 68.02 -5 67 C-4.33063416 66.57132126 -3.66126831 66.14264252 -2.97161865 65.70097351 C-0.7211793 64.11766706 -0.7211793 64.11766706 -0.48101807 61.20954895 C-0.47213562 60.07925766 -0.46325317 58.94896637 -0.45410156 57.78442383 C-0.42452362 55.86277153 -0.42452362 55.86277153 -0.39434814 53.90229797 C-0.39268498 52.50387617 -0.39145411 51.1054538 -0.390625 49.70703125 C-0.37564556 48.27640405 -0.3589189 46.84579416 -0.34051514 45.41520691 C-0.2968018 41.65214247 -0.27683408 37.88931128 -0.26177979 34.1260376 C-0.24222275 30.28505639 -0.20025131 26.44432764 -0.16015625 22.60351562 C-0.08481126 15.06907822 -0.0345462 7.53474662 0 0 Z " fill="#375660" transform="translate(353,48)"/>
<path d="M0 0 C0.33 0 0.66 0 1 0 C1 21.78 1 43.56 1 66 C0.67 66 0.34 66 0 66 C-0.33 53.13 -0.66 40.26 -1 27 C-1.99 27.33 -2.98 27.66 -4 28 C-5.65497356 24.69005287 -5.10084335 21.00877 -5.0625 17.375 C-5.05798828 16.57320313 -5.05347656 15.77140625 -5.04882812 14.9453125 C-5.03703168 12.96350994 -5.01909605 10.98174567 -5 9 C-3.68 9.33 -2.36 9.66 -1 10 C-0.67 6.7 -0.34 3.4 0 0 Z " fill="#BF81C4" transform="translate(179,374)"/>
<path d="M0 0 C0.185625 0.9590625 0.185625 0.9590625 0.375 1.9375 C0.684375 2.9584375 0.684375 2.9584375 1 4 C1.66 4.33 2.32 4.66 3 5 C2.95359375 5.80824219 2.9071875 6.61648438 2.859375 7.44921875 C2.51296476 14.11917214 2.51296476 14.11917214 4.875 20.1875 C7.85745822 22.73136142 9.79441303 23.1794413 13.625 23.5625 C14.44226563 23.64628906 15.25953125 23.73007812 16.1015625 23.81640625 C17.04128906 23.90728516 17.04128906 23.90728516 18 24 C18 24.33 18 24.66 18 25 C15.69 25.33 13.38 25.66 11 26 C12.96822886 27.96822886 16.34808709 27.66248381 19 28 C19 28.33 19 28.66 19 29 C12.90049882 29.63536471 8.79415821 29.05956245 3.7265625 25.49609375 C0.19183151 22.43319337 -2.44793468 18.69255521 -3 14 C-3.36887441 8.28244663 -3.02463542 5.04105903 0 0 Z " fill="#170817" transform="translate(235,263)"/>
<path d="M0 0 C5.93387927 1.27154556 8.6421223 4.21346005 12 9 C14.50629357 13.5568974 14.78439931 18.08267928 13.4296875 23.12109375 C12.13194767 26.843558 10.95737399 29.31599671 8 32 C8.50603992 29.83125748 8.99983813 28.00032373 10 26 C9.34 25.67 8.68 25.34 8 25 C8.04640625 24.11957031 8.0928125 23.23914063 8.140625 22.33203125 C8.17671875 21.17058594 8.2128125 20.00914062 8.25 18.8125 C8.29640625 17.66394531 8.3428125 16.51539063 8.390625 15.33203125 C7.92316567 11.34460314 6.80821488 9.80821488 4 7 C1.38181544 5.66701026 1.38181544 5.66701026 -1 5 C-0.01 4.67 0.98 4.34 2 4 C2 3.34 2 2.68 2 2 C1.34 2 0.68 2 0 2 C0 1.34 0 0.68 0 0 Z " fill="#150714" transform="translate(209,140)"/>
<path d="M0 0 C1.65 0 3.3 0 5 0 C5 3.96 5 7.92 5 12 C4.34 12 3.68 12 3 12 C0.88564001 22.28441121 0.41573652 32.54094451 0 43 C-0.33 43 -0.66 43 -1 43 C-1.02467332 37.19759432 -1.04284724 31.39521902 -1.05493164 25.59277344 C-1.0599681 23.61783313 -1.06679751 21.64289657 -1.07543945 19.66796875 C-1.08753508 16.83332395 -1.0932351 13.99872834 -1.09765625 11.1640625 C-1.10281754 10.27756012 -1.10797882 9.39105774 -1.11329651 8.47769165 C-1.11387171 2.22774341 -1.11387171 2.22774341 0 0 Z " fill="#BE8FBE" transform="translate(152,50)"/>
<path d="M0 0 C1.9375 0.3125 1.9375 0.3125 4 1 C5.76345838 6.29037513 5.49660256 10.58113555 3.6875 15.75 C2.28970007 18.44205912 1.04982539 20.77192892 -1 23 C-1.66 23 -2.32 23 -3 23 C-3.33 22.34 -3.66 21.68 -4 21 C-4.66 20.67 -5.32 20.34 -6 20 C-4.78763672 19.00419922 -4.78763672 19.00419922 -3.55078125 17.98828125 C-0.48092638 14.3918969 -0.22652043 11.71820585 -0.1875 7.1875 C-0.16236328 6.49462891 -0.13722656 5.80175781 -0.11132812 5.08789062 C-0.05286737 3.39252878 -0.02346953 1.69620713 0 0 Z " fill="#190919" transform="translate(218,304)"/>
<path d="M0 0 C9.6760591 -0.86051909 9.6760591 -0.86051909 13.5 2.25 C18.1170699 7.32877689 18.22384995 10.2845015 18 17 C17.67 17 17.34 17 17 17 C16.67 15.35 16.34 13.7 16 12 C15.525625 12.825 15.05125 13.65 14.5625 14.5 C13.7890625 15.7375 13.7890625 15.7375 13 17 C12.67 17 12.34 17 12 17 C11.67 13.7 11.34 10.4 11 7 C11.66 7 12.32 7 13 7 C12.67 6.01 12.34 5.02 12 4 C11.34 3.67 10.68 3.34 10 3 C10 3.99 10 4.98 10 6 C8.35 6 6.7 6 5 6 C5.33 4.68 5.66 3.36 6 2 C3.03 1.505 3.03 1.505 0 1 C0 0.67 0 0.34 0 0 Z " fill="#441643" transform="translate(246,260)"/>
<path d="M0 0 C20.79 0 41.58 0 63 0 C63.99 1.98 63.99 1.98 65 4 C64.01 4.66 63.02 5.32 62 6 C61.34 6.66 60.68 7.32 60 8 C59.34 6.35 58.68 4.7 58 3 C58.33 2.67 58.66 2.34 59 2 C29.795 1.505 29.795 1.505 0 1 C0 0.67 0 0.34 0 0 Z " fill="#010A0E" transform="translate(288,44)"/>
<path d="M0 0 C0.33 0 0.66 0 1 0 C1 21.12 1 42.24 1 64 C2.32 64 3.64 64 5 64 C5.66 65.98 6.32 67.96 7 70 C3.34683329 68.75023244 2.21934164 68.32901247 0 65 C-0.24050903 62.17158508 -0.24050903 62.17158508 -0.22705078 58.69262695 C-0.22689972 57.39150467 -0.22674866 56.09038239 -0.22659302 54.74983215 C-0.21637969 53.32931363 -0.2059477 51.90879667 -0.1953125 50.48828125 C-0.19158183 49.03525487 -0.18873511 47.58222597 -0.18673706 46.12919617 C-0.17910481 42.30688518 -0.15945992 38.48472646 -0.1373291 34.66247559 C-0.11686183 30.7613328 -0.10773346 26.86016539 -0.09765625 22.95898438 C-0.07621357 15.30592021 -0.04208264 7.65298145 0 0 Z " fill="#5C8289" transform="translate(145,49)"/>
<path d="M0 0 C6.83009966 -0.65048568 10.55520584 0.19164302 16.11328125 4.265625 C18.58285263 6.53579 19.87731069 8.85646994 21 12 C19.35 12.33 17.7 12.66 16 13 C15.690625 12.2575 15.38125 11.515 15.0625 10.75 C12.13428559 6.84571411 8.48007912 5.6812037 4 4 C4.33 3.34 4.66 2.68 5 2 C3.35 1.67 1.7 1.34 0 1 C0 0.67 0 0.34 0 0 Z " fill="#19091C" transform="translate(246,410)"/>
<path d="M0 0 C0.99 0.99 1.98 1.98 3 3 C2.505 3.598125 2.01 4.19625 1.5 4.8125 C-1.1426523 10.42813614 -0.72608788 17.08397298 1 23 C0.34 23 -0.32 23 -1 23 C-2.4606285 20.35261084 -3 19.10551666 -3 16 C-3.66 16 -4.32 16 -5 16 C-5.33 17.32 -5.66 18.64 -6 20 C-7.13314263 15.89517207 -6.78328091 13.24049263 -5.5625 9.1875 C-5.27503906 8.21167969 -4.98757813 7.23585937 -4.69140625 6.23046875 C-4.46324219 5.49441406 -4.23507812 4.75835937 -4 4 C-3.67 4.99 -3.34 5.98 -3 7 C-2.34 7 -1.68 7 -1 7 C-1.020625 6.030625 -1.04125 5.06125 -1.0625 4.0625 C-1 1 -1 1 0 0 Z " fill="#995AA1" transform="translate(279,144)"/>
<path d="M0 0 C0.9075 0.804375 1.815 1.60875 2.75 2.4375 C7.67490903 6.03217587 13.08863394 5.89322656 19 6 C17 9 17 9 14.828125 9.6171875 C9.31997263 10.16800274 5.77631152 10.22401028 1 7 C0.34 6.34 -0.32 5.68 -1 5 C-0.625 2.375 -0.625 2.375 0 0 Z " fill="#0D020C" transform="translate(283,242)"/>
<path d="M0 0 C0 0.66 0 1.32 0 2 C-1.47714466 3.22024994 -2.95851761 4.43753734 -4.4921875 5.5859375 C-7.90604708 8.78753638 -8.30178122 12.22493711 -8.625 16.75 C-8.69976562 17.73484375 -8.77453125 18.7196875 -8.8515625 19.734375 C-8.90054688 20.48203125 -8.94953125 21.2296875 -9 22 C-9.66 21.67 -10.32 21.34 -11 21 C-12.16974658 16.5484644 -11.89323835 13.23414244 -10.75 8.8125 C-10.49734375 7.78769531 -10.2446875 6.76289063 -9.984375 5.70703125 C-7.96967423 0.16660415 -5.7078737 -0.38052491 0 0 Z " fill="#110511" transform="translate(200,374)"/>
<path d="M0 0 C8.91 0 17.82 0 27 0 C25 2 25 2 23.02880859 2.22705078 C22.24328613 2.21657715 21.45776367 2.20610352 20.6484375 2.1953125 C19.79765625 2.18886719 18.946875 2.18242188 18.0703125 2.17578125 C16.73613281 2.15064453 16.73613281 2.15064453 15.375 2.125 C14.02921875 2.11146484 14.02921875 2.11146484 12.65625 2.09765625 C10.43723414 2.0740497 8.21874923 2.0411231 6 2 C4.768606 4.46278801 4.92840804 6.2795055 5 9 C3.35 9 1.7 9 0 9 C0 6.03 0 3.06 0 0 Z " fill="#944C9C" transform="translate(170,120)"/>
<path d="M0 0 C3.23830467 3.23830467 4.02396986 4.60786439 5 9 C4.9359621 13.68277171 4.62842911 17.05735634 2 21 C2 19.35 2 17.7 2 16 C1.34 16 0.68 16 0 16 C0 10.72 0 5.44 0 0 Z " fill="#1C0A1F" transform="translate(218,455)"/>
<path d="M0 0 C3.34586856 0.27882238 4.73053263 0.73443796 7.15625 3.125 C9.41646466 6.64940253 9.41743878 8.66839029 9.25 12.8125 C9.21390625 13.97394531 9.1778125 15.13539063 9.140625 16.33203125 C9.07101562 17.65267578 9.07101562 17.65267578 9 19 C8.34 19.33 7.68 19.66 7 20 C6.99742187 19.3709375 6.99484375 18.741875 6.9921875 18.09375 C6.70867359 11.81864212 5.40817046 8.33691103 1.27734375 3.59375 C0 2 0 2 0 0 Z " fill="#120312" transform="translate(303,375)"/>
<path d="M0 0 C0.33 0.66 0.66 1.32 1 2 C2.65 1.34 4.3 0.68 6 0 C3.44593079 4.83928903 0.4937579 7.65202275 -4.3125 10.25 C-7.97832787 11.27302173 -11.19879378 11.12885445 -15 11 C-15 10.67 -15 10.34 -15 10 C-12.03 9.34 -9.06 8.68 -6 8 C-6 7.01 -6 6.02 -6 5 C-5.38125 4.731875 -4.7625 4.46375 -4.125 4.1875 C-1.7004767 3.04443152 -1.7004767 3.04443152 0 0 Z " fill="#1C0A1D" transform="translate(306,242)"/>
<path d="M0 0 C0.33 0 0.66 0 1 0 C1.33 1.65 1.66 3.3 2 5 C2.66 5 3.32 5 4 5 C4 3.35 4 1.7 4 0 C4.33 0 4.66 0 5 0 C4.71080122 6.37683303 3.74240394 10.76063448 0 16 C-2.25 17.4375 -2.25 17.4375 -4 18 C-3.649375 17.38125 -3.29875 16.7625 -2.9375 16.125 C-2.628125 15.42375 -2.31875 14.7225 -2 14 C-2.33 13.34 -2.66 12.68 -3 12 C-2.33333333 10.33333333 -1.66666667 8.66666667 -1 7 C-0.6186926 4.67402489 -0.27539746 2.34087842 0 0 Z " fill="#160714" transform="translate(309,155)"/>
<path d="M0 0 C6.95171674 6.76877682 6.95171674 6.76877682 7.125 11.1875 C7.08375 12.115625 7.0425 13.04375 7 14 C6.34 13.01 5.68 12.02 5 11 C5.061875 12.11375 5.12375 13.2275 5.1875 14.375 C5.125625 15.57125 5.06375 16.7675 5 18 C4.01 18.66 3.02 19.32 2 20 C2.01160156 19.31292969 2.02320313 18.62585938 2.03515625 17.91796875 C2.04417969 17.01691406 2.05320312 16.11585938 2.0625 15.1875 C2.07410156 14.29417969 2.08570313 13.40085937 2.09765625 12.48046875 C1.97740109 9.42598759 1.53617476 7.57906874 -0.5625 5.3125 C-1.036875 4.879375 -1.51125 4.44625 -2 4 C-1.01 4 -0.02 4 1 4 C0.67 2.68 0.34 1.36 0 0 Z " fill="#130512" transform="translate(306,298)"/>
<path d="M0 0 C0.99 0.33 1.98 0.66 3 1 C3 2.32 3 3.64 3 5 C3.66 5 4.32 5 5 5 C5 8.3 5 11.6 5 15 C4.01 15.33 3.02 15.66 2 16 C2 16.66 2 17.32 2 18 C1.01 18.33 0.02 18.66 -1 19 C-0.67 18.175 -0.34 17.35 0 16.5 C1.59520563 10.91678029 1.4153791 5.66151641 0 0 Z " fill="#0A020C" transform="translate(217,225)"/>
<path d="M0 0 C0 0.66 0 1.32 0 2 C-0.804375 2.474375 -1.60875 2.94875 -2.4375 3.4375 C-5.2918076 4.79983672 -5.2918076 4.79983672 -6 8 C-6.66 8 -7.32 8 -8 8 C-8.33 9.32 -8.66 10.64 -9 12 C-9.33 12 -9.66 12 -10 12 C-9.88541307 10.56163249 -9.75790884 9.12429034 -9.625 7.6875 C-9.55539063 6.88699219 -9.48578125 6.08648437 -9.4140625 5.26171875 C-9 3 -9 3 -7 0 C-4.02096037 -1.15317663 -3.13440869 -1.0448029 0 0 Z " fill="#0C040D" transform="translate(200,452)"/>
<path d="M0 0 C1.58294782 -0.05437607 3.16644256 -0.09296271 4.75 -0.125 C5.63171875 -0.14820313 6.5134375 -0.17140625 7.421875 -0.1953125 C10.1581108 0.01197809 11.73078643 0.47343814 14 2 C14.75 4.625 14.75 4.625 15 7 C12 7 12 7 9.25 5.0625 C5.6919074 2.8044797 3.15663055 2.33253044 -1 2 C-0.67 1.34 -0.34 0.68 0 0 Z " fill="#0E040D" transform="translate(247,334)"/>
<path d="M0 0 C2.4375 1.5 2.4375 1.5 4 3 C3.34 3 2.68 3 2 3 C1.67 3.99 1.34 4.98 1 6 C0.67 4.68 0.34 3.36 0 2 C-5.7097955 2.41778991 -8.60957142 4.57546571 -13 8 C-13.66 7.34 -14.32 6.68 -15 6 C-10.0685285 0.80196248 -7.22558245 -0.50705842 0 0 Z " fill="#41153E" transform="translate(208,375)"/>
<path d="M0 0 C0.66 0.33 1.32 0.66 2 1 C1.67 1.66 1.34 2.32 1 3 C4.63 3 8.26 3 12 3 C12 3.33 12 3.66 12 4 C11.26394531 4.03738281 10.52789062 4.07476562 9.76953125 4.11328125 C4.28290137 4.4829221 0.6503023 4.89979847 -4 8 C-6.3125 7.6875 -6.3125 7.6875 -8 7 C-3.76744186 1.25581395 -3.76744186 1.25581395 0 0 Z " fill="#1B091C" transform="translate(288,141)"/>
<path d="M0 0 C0.33 0 0.66 0 1 0 C1 4.62 1 9.24 1 14 C-0.32 14.33 -1.64 14.66 -3 15 C-3.08142927 13.2507786 -3.13938541 11.50045458 -3.1875 9.75 C-3.22230469 8.77546875 -3.25710937 7.8009375 -3.29296875 6.796875 C-2.95979506 3.61617683 -2.17311382 2.2990121 0 0 Z " fill="#D4A1D5" transform="translate(155,94)"/>
<path d="M0 0 C0.33 0 0.66 0 1 0 C1 5.28 1 10.56 1 16 C2.65 16 4.3 16 6 16 C6.33 16.99 6.66 17.98 7 19 C7.99 19.66 8.98 20.32 10 21 C3.9453125 21.1953125 3.9453125 21.1953125 2 21 C0 19 0 19 -0.22705078 17.02880859 C-0.21657715 16.24328613 -0.20610352 15.45776367 -0.1953125 14.6484375 C-0.18886719 13.79765625 -0.18242187 12.946875 -0.17578125 12.0703125 C-0.15902344 11.18085937 -0.14226562 10.29140625 -0.125 9.375 C-0.11597656 8.4778125 -0.10695312 7.580625 -0.09765625 6.65625 C-0.0740497 4.43723414 -0.0411231 2.21874923 0 0 Z " fill="#834D86" transform="translate(151,93)"/>
<path d="M0 0 C0.66 0.33 1.32 0.66 2 1 C1.34 1.66 0.68 2.32 0 3 C0.66 3.66 1.32 4.32 2 5 C1.34 5 0.68 5 0 5 C-0.33 6.32 -0.66 7.64 -1 9 C-2.32 9.33 -3.64 9.66 -5 10 C-5.66 13.3 -6.32 16.6 -7 20 C-7.33 20 -7.66 20 -8 20 C-8.45825651 13.58440889 -7.54063163 9.40664019 -4 4 C-1.75 1.5 -1.75 1.5 0 0 Z M-2 4 C-1 6 -1 6 -1 6 Z " fill="#230F28" transform="translate(240,180)"/>
<path d="M0 0 C0.66 0.33 1.32 0.66 2 1 C2 1.66 2 2.32 2 3 C3.98 3.66 5.96 4.32 8 5 C7.67 5.66 7.34 6.32 7 7 C8.32 7.99 9.64 8.98 11 10 C5.59305933 9.56744475 2.24633878 8.41778487 -2 5 C-2 4.34 -2 3.68 -2 3 C-1.34 3 -0.68 3 0 3 C0 2.01 0 1.02 0 0 Z " fill="#150617" transform="translate(284,475)"/>
<path d="M0 0 C0.89203125 0.01804687 1.7840625 0.03609375 2.703125 0.0546875 C3.71632812 0.08949219 3.71632812 0.08949219 4.75 0.125 C4.75 0.455 4.75 0.785 4.75 1.125 C2.11 1.455 -0.53 1.785 -3.25 2.125 C-0.94 2.785 1.37 3.445 3.75 4.125 C-0.07517513 6.51573445 -3.84665524 6.68466552 -8.25 7.125 C-7.92 6.465 -7.59 5.805 -7.25 5.125 C-6.59 5.125 -5.93 5.125 -5.25 5.125 C-5.25 4.465 -5.25 3.805 -5.25 3.125 C-6.57 2.795 -7.89 2.465 -9.25 2.125 C-6.03817851 0.21891902 -3.71117397 -0.09766247 0 0 Z " fill="#270D25" transform="translate(250.25,332.875)"/>
<path d="M0 0 C0.33 0 0.66 0 1 0 C1.0825 1.0725 1.165 2.145 1.25 3.25 C2.07249872 7.36249361 2.94413508 8.3261182 6 11 C6.33 11.99 6.66 12.98 7 14 C6.34 14 5.68 14 5 14 C5.33 15.65 5.66 17.3 6 19 C2.40961482 15.64897383 0.15488968 13.21802021 -0.1953125 8.203125 C-0.17210937 7.22859375 -0.14890625 6.2540625 -0.125 5.25 C-0.09792969 3.77273437 -0.09792969 3.77273437 -0.0703125 2.265625 C-0.04710937 1.51796875 -0.02390625 0.7703125 0 0 Z " fill="#17061B" transform="translate(187,229)"/>
<path d="M0 0 C-3 2 -3 2 -5.625 3.4375 C-8.29046993 4.84017274 -8.29046993 4.84017274 -9 8 C-9.99 8.495 -9.99 8.495 -11 9 C-11.46751788 11.35599235 -11.46751788 11.35599235 -11.625 14.0625 C-11.69976562 14.98160156 -11.77453125 15.90070313 -11.8515625 16.84765625 C-11.90054688 17.55792969 -11.94953125 18.26820313 -12 19 C-14 17 -14 17 -14.3125 13.75 C-13.96898938 9.62787258 -13.28806655 7.43209982 -11 4 C-7.30636689 0.94873787 -4.83356443 -0.56865464 0 0 Z " fill="#3F163D" transform="translate(205,221)"/>
<path d="M0 0 C0 3.48810324 -0.0152674 5.92963847 -2.4375 8.5625 C-2.953125 9.036875 -3.46875 9.51125 -4 10 C-4.99 11.485 -4.99 11.485 -6 13 C-6 11.68 -6 10.36 -6 9 C-6.99 9.33 -7.98 9.66 -9 10 C-7.24277009 5.68679932 -4.1937832 2.0968916 0 0 Z " fill="#170519" transform="translate(197,296)"/>
<path d="M0 0 C6.14689273 0.36881356 8.69027374 1.90050429 13 6 C12.01 6.33 11.02 6.66 10 7 C9.34 6.34 8.68 5.68 8 5 C7.01 5.495 7.01 5.495 6 6 C3.6171875 5.66015625 3.6171875 5.66015625 0.875 5.0625 C-0.03507812 4.86785156 -0.94515625 4.67320312 -1.8828125 4.47265625 C-2.58148438 4.31667969 -3.28015625 4.16070312 -4 4 C-4 3.67 -4 3.34 -4 3 C-2.35 2.67 -0.7 2.34 1 2 C0.67 1.34 0.34 0.68 0 0 Z " fill="#130313" transform="translate(297,217)"/>
<path d="M0 0 C1.6274637 0.61855631 3.25190356 1.24507305 4.875 1.875 C5.77992188 2.22304688 6.68484375 2.57109375 7.6171875 2.9296875 C10 4 10 4 12 6 C11 7 11 7 7.6875 7.3125 C4 7 4 7 1.5625 5.1875 C0 3 0 3 0 0 Z " fill="#0F050C" transform="translate(193,399)"/>
<path d="M0 0 C3.37462715 0.54723683 5.08235 1.0549 8 3 C8.1875 5.625 8.1875 5.625 8 8 C4.54074837 6.7508258 1.85306797 5.32472205 -1 3 C-0.67 2.01 -0.34 1.02 0 0 Z " fill="#120410" transform="translate(209,372)"/>
<path d="M0 0 C2.375 2 2.375 2 4 4 C3.01 3.67 2.02 3.34 1 3 C-1.06145107 2.931009 -3.12501401 2.91532273 -5.1875 2.9375 C-6.27417969 2.94652344 -7.36085937 2.95554687 -8.48046875 2.96484375 C-9.31191406 2.97644531 -10.14335937 2.98804688 -11 3 C-11.33 3.66 -11.66 4.32 -12 5 C-13.97522846 6.04808041 -15.97481509 7.0520411 -18 8 C-16.54368932 3.38834951 -16.54368932 3.38834951 -14.25 1.75 C-9.6322814 0.21076047 -4.84598217 -0.52673719 0 0 Z " fill="#451642" transform="translate(256,338)"/>
<path d="M0 0 C0.33 0 0.66 0 1 0 C1.33 4.62 1.66 9.24 2 14 C1.01 14 0.02 14 -1 14 C-2.23887548 11.52224905 -2.16741669 9.76346293 -2.1875 7 C-2.20167969 6.113125 -2.21585938 5.22625 -2.23046875 4.3125 C-2 2 -2 2 0 0 Z " fill="#0A0009" transform="translate(190,153)"/>
<path d="M0 0 C2.475 0.495 2.475 0.495 5 1 C5.25 7.625 5.25 7.625 3 11 C2.34 11 1.68 11 1 11 C0.67 7.37 0.34 3.74 0 0 Z " fill="#0D060C" transform="translate(263,422)"/>
<path d="M0 0 C1.41623216 -0.05447047 2.83308191 -0.09300508 4.25 -0.125 C5.03890625 -0.14820313 5.8278125 -0.17140625 6.640625 -0.1953125 C9.20731941 0.0171622 10.7916067 0.71345895 13 2 C12.67 3.32 12.34 4.64 12 6 C6.25 5.25 6.25 5.25 4 3 C4.33 2.67 4.66 2.34 5 2 C3.35 1.67 1.7 1.34 0 1 C0 0.67 0 0.34 0 0 Z " fill="#1C0B1C" transform="translate(246,410)"/>
<path d="M0 0 C1.9078584 3.1749094 2.1609041 5.10585211 1.625 8.75 C1.51414062 9.54921875 1.40328125 10.3484375 1.2890625 11.171875 C1.19367188 11.77515625 1.09828125 12.3784375 1 13 C-0.32 13 -1.64 13 -3 13 C-3 13.99 -3 14.98 -3 16 C-3.66 15.67 -4.32 15.34 -5 15 C-4.2884375 13.6078125 -4.2884375 13.6078125 -3.5625 12.1875 C-2.02964713 9.06048015 -1 6.86348861 -1 3.375 C-1 1 -1 1 0 0 Z " fill="#090109" transform="translate(311,308)"/>
<path d="M0 0 C0.33 0.99 0.66 1.98 1 3 C1.66 3.33 2.32 3.66 3 4 C2.67 4.66 2.34 5.32 2 6 C1.77532169 7.53668865 1.59203195 9.07968054 1.4375 10.625 C1.35371094 11.44226563 1.26992188 12.25953125 1.18359375 13.1015625 C1.12300781 13.72804688 1.06242187 14.35453125 1 15 C0.67 15 0.34 15 0 15 C-0.33 12.69 -0.66 10.38 -1 8 C-1.33 10.64 -1.66 13.28 -2 16 C-2.33 16 -2.66 16 -3 16 C-3.32712342 9.86946489 -3.39366878 5.37330889 0 0 Z " fill="#190819" transform="translate(281,378)"/>
<path d="M0 0 C0.99 0.33 1.98 0.66 3 1 C3.64064115 3.39112541 4.2370895 5.78062727 4.8125 8.1875 C5.0899707 9.19780273 5.0899707 9.19780273 5.37304688 10.22851562 C5.83203125 12.23046875 5.83203125 12.23046875 6 16 C3.57421875 18.98828125 3.57421875 18.98828125 1 21 C1.165 20.38125 1.33 19.7625 1.5 19.125 C2.55960171 12.50248932 2.63708253 6.263071 0 0 Z " fill="#8F5B96" transform="translate(265,262)"/>
<path d="M0 0 C1.32 0.33 2.64 0.66 4 1 C4.08121924 2.60332791 4.13929134 4.20784026 4.1875 5.8125 C4.22230469 6.70582031 4.25710938 7.59914062 4.29296875 8.51953125 C4 11 4 11 1 14 C0.67 9.38 0.34 4.76 0 0 Z " fill="#050205" transform="translate(263,189)"/>
<path d="M0 0 C-0.33 4.62 -0.66 9.24 -1 14 C-1.99 13.34 -2.98 12.68 -4 12 C-4.3984375 9.6875 -4.3984375 9.6875 -4.375 7 C-4.38273438 6.113125 -4.39046875 5.22625 -4.3984375 4.3125 C-4.26695312 3.549375 -4.13546875 2.78625 -4 2 C-1 0 -1 0 0 0 Z " fill="#09010B" transform="translate(192,225)"/>
<path d="M0 0 C0 0.66 0 1.32 0 2 C0.66 2 1.32 2 2 2 C2 2.66 2 3.32 2 4 C-1.63 4 -5.26 4 -9 4 C-8.67 3.01 -8.34 2.02 -8 1 C-5.29120665 -0.35439668 -2.99066732 -0.06501451 0 0 Z " fill="#050205" transform="translate(209,140)"/>
<path d="M0 0 C0.66 0 1.32 0 2 0 C1.34 3.63 0.68 7.26 0 11 C-0.66 11 -1.32 11 -2 11 C-2.33 11.99 -2.66 12.98 -3 14 C-3.33 12.35 -3.66 10.7 -4 9 C-3.34 9 -2.68 9 -2 9 C-1.7834375 7.0509375 -1.7834375 7.0509375 -1.5625 5.0625 C-1.125 1.125 -1.125 1.125 0 0 Z " fill="#0A0308" transform="translate(237,416)"/>
<path d="M0 0 C2.64752004 2.57784846 4.94432065 4.91648098 7 8 C6.625 10.1875 6.625 10.1875 6 12 C5.67 11.01 5.34 10.02 5 9 C4.01 9.33 3.02 9.66 2 10 C0.68373308 6.38026598 0 3.90432869 0 0 Z " fill="#1D0B1D" transform="translate(261,337)"/>
<path d="M0 0 C1.125 3.75 1.125 3.75 0 6 C-3.70152058 7.88034616 -6.69484136 8.22422069 -10.8125 8.125 C-12.27623047 8.09792969 -12.27623047 8.09792969 -13.76953125 8.0703125 C-14.50558594 8.04710938 -15.24164063 8.02390625 -16 8 C-16 7.67 -16 7.34 -16 7 C-12.7 7 -9.4 7 -6 7 C-5.67 6.01 -5.34 5.02 -5 4 C-3.37667033 2.61423077 -1.71275535 1.27358732 0 0 Z " fill="#152427" transform="translate(353,111)"/>
<path d="M0 0 C0.66 0.28875 1.32 0.5775 2 0.875 C5.62499465 2.23437299 9.23346693 3.10624639 13 4 C13 4.66 13 5.32 13 6 C10.03 6 7.06 6 4 6 C3.67 5.01 3.34 4.02 3 3 C0.99983534 1.79117904 0.99983534 1.79117904 -1 1 C-0.67 0.67 -0.34 0.34 0 0 Z " fill="#080206" transform="translate(285,400)"/>
<path d="M0 0 C4.62 0.99 9.24 1.98 14 3 C13.67 3.66 13.34 4.32 13 5 C11.39815374 5.1352403 9.79303374 5.23210847 8.1875 5.3125 C6.84751953 5.39951172 6.84751953 5.39951172 5.48046875 5.48828125 C4.66191406 5.32714844 3.84335937 5.16601562 3 5 C2.01 3.35 1.02 1.7 0 0 Z " fill="#090106" transform="translate(284,324)"/>
<path d="M0 0 C0 0.99 0 1.98 0 3 C0.66 3.33 1.32 3.66 2 4 C-2.17737474 5.59138085 -5.53160785 6.21278058 -10 6 C-10 5.67 -10 5.34 -10 5 C-9.195625 4.87625 -8.39125 4.7525 -7.5625 4.625 C-6.716875 4.41875 -5.87125 4.2125 -5 4 C-4.67 3.34 -4.34 2.68 -4 2 C-6.31 2 -8.62 2 -11 2 C-11 1.67 -11 1.34 -11 1 C-9.54182203 0.83197949 -8.0834516 0.66562857 -6.625 0.5 C-5.81289062 0.4071875 -5.00078125 0.314375 -4.1640625 0.21875 C-2 0 -2 0 0 0 Z " fill="#1D081B" transform="translate(212,247)"/>
<path d="M0 0 C3.73884332 2.65654657 5.64978174 4.58110387 7 9 C4.75 9.25 4.75 9.25 2 9 C-0.3125 7 -0.3125 7 -2 5 C-1.67 4.34 -1.34 3.68 -1 3 C-0.34 3.33 0.32 3.66 1 4 C0.67 2.68 0.34 1.36 0 0 Z " fill="#1B091B" transform="translate(260,181)"/>
<path d="M0 0 C2.97 0 5.94 0 9 0 C8.67 1.65 8.34 3.3 8 5 C5.03 4.67 2.06 4.34 -1 4 C-0.34 3.67 0.32 3.34 1 3 C0.67 2.01 0.34 1.02 0 0 Z " fill="#8B3793" transform="translate(157,109)"/>
<path d="M0 0 C2.3125 -0.3125 2.3125 -0.3125 5 0 C6.875 2.3125 6.875 2.3125 8 5 C7.67 5.99 7.34 6.98 7 8 C5.8274869 7.04882866 4.66212985 6.08882991 3.5 5.125 C2.8503125 4.59132813 2.200625 4.05765625 1.53125 3.5078125 C1.0259375 3.01023437 0.520625 2.51265625 0 2 C0 1.34 0 0.68 0 0 Z " fill="#0C020A" transform="translate(211,452)"/>
<path d="M0 0 C3.3 0.33 6.6 0.66 10 1 C10 1.33 10 1.66 10 2 C7.69 2.33 5.38 2.66 3 3 C4.96822886 4.96822886 8.34808709 4.66248381 11 5 C11 5.33 11 5.66 11 6 C2.80743982 6.4726477 2.80743982 6.4726477 -0.5625 4.5 C-1.036875 4.005 -1.51125 3.51 -2 3 C-1.34 2.01 -0.68 1.02 0 0 Z " fill="#270C29" transform="translate(243,286)"/>
<path d="M0 0 C4.67692308 1.47692308 4.67692308 1.47692308 6.3125 4.125 C6.539375 4.74375 6.76625 5.3625 7 6 C5.02 6.99 5.02 6.99 3 8 C0.9375 6.25 0.9375 6.25 -1 4 C-0.75 1.75 -0.75 1.75 0 0 Z " fill="#1A0719" transform="translate(303,142)"/>
<path d="M0 0 C0.33 0 0.66 0 1 0 C1 2.97 1 5.94 1 9 C1.99 9.33 2.98 9.66 4 10 C4 11.65 4 13.3 4 15 C1.39524999 13.15146773 0.14706094 11.69030844 -0.5234375 8.54296875 C-0.79141107 6.01170489 -1.02318582 3.54580309 -1 1 C-0.67 0.67 -0.34 0.34 0 0 Z " fill="#40173E" transform="translate(192,384)"/>
<path d="M0 0 C0.4125 0.556875 0.825 1.11375 1.25 1.6875 C1.8275 2.450625 2.405 3.21375 3 4 C3.928125 5.299375 3.928125 5.299375 4.875 6.625 C7.14822617 9.16566454 8.77854111 10.01566534 12 11 C11.01 11.66 10.02 12.32 9 13 C2.25 9.375 2.25 9.375 0 6 C-0.125 2.8125 -0.125 2.8125 0 0 Z " fill="#8B5990" transform="translate(278,318)"/>
<path d="M0 0 C0.99 0 1.98 0 3 0 C3.17835515 4.54805635 2.99785435 7.8794254 1 12 C0.67 12 0.34 12 0 12 C0 8.04 0 4.08 0 0 Z " fill="#050109" transform="translate(219,384)"/>
<path d="M0 0 C1.15392455 2.3078491 1.53437166 4.47230331 2 7 C0.02 8.32 -1.96 9.64 -4 11 C-4 10.01 -4 9.02 -4 8 C-4.66 7.67 -5.32 7.34 -6 7 C-5.38125 6.5875 -4.7625 6.175 -4.125 5.75 C-1.93231719 3.94426121 -1.07211583 2.5909466 0 0 Z " fill="#1C081D" transform="translate(262,357)"/>
<path d="M0 0 C0.66 0.33 1.32 0.66 2 1 C2.96771055 4.25502641 3.35903905 6.82890887 2 10 C1.01 10.33 0.02 10.66 -1 11 C-1.0270043 9.54176788 -1.04639787 8.08339325 -1.0625 6.625 C-1.07410156 5.81289063 -1.08570313 5.00078125 -1.09765625 4.1640625 C-1 2 -1 2 0 0 Z " fill="#060206" transform="translate(265,345)"/>
<path d="M0 0 C0.66 0.66 1.32 1.32 2 2 C1.360625 2.969375 0.72125 3.93875 0.0625 4.9375 C-2.38351528 9.1553638 -2.78209489 13.19519242 -3 18 C-3.66 17.67 -4.32 17.34 -5 17 C-4.7438709 14.91480784 -4.46951265 12.8318495 -4.1875 10.75 C-4.03667969 9.58984375 -3.88585937 8.4296875 -3.73046875 7.234375 C-3.00362557 4.01605334 -2.18338975 2.41668345 0 0 Z " fill="#925E9A" transform="translate(190,298)"/>
<path d="M0 0 C3.3 0 6.6 0 10 0 C9.67 0.99 9.34 1.98 9 3 C6.03 3 3.06 3 0 3 C0 2.01 0 1.02 0 0 Z " fill="#050203" transform="translate(246,210)"/>
<path d="M0 0 C0.33 0 0.66 0 1 0 C1 2.97 1 5.94 1 9 C1.99 9 2.98 9 4 9 C2.90931332 12.77545388 2.0916909 15.47043472 -1 18 C-0.49396008 15.83125748 -0.00016187 14.00032373 1 12 C0.34 11.67 -0.32 11.34 -1 11 C-0.67 7.37 -0.34 3.74 0 0 Z " fill="#200B1F" transform="translate(218,154)"/>
<path d="M0 0 C1.10370043 3.3111013 0.92673641 5.24748949 0.5625 8.6875 C0.40974609 10.17830078 0.40974609 10.17830078 0.25390625 11.69921875 C0.12822266 12.83810547 0.12822266 12.83810547 0 14 C-0.66 13.67 -1.32 13.34 -2 13 C-3.65782473 7.64395089 -2.39433385 4.78866769 0 0 Z " fill="#070209" transform="translate(191,382)"/>
<path d="M0 0 C0.66 0.33 1.32 0.66 2 1 C2 4.96 2 8.92 2 13 C1.01 13.33 0.02 13.66 -1 14 C-0.67 9.38 -0.34 4.76 0 0 Z " fill="#8C5792" transform="translate(313,383)"/>
<path d="M0 0 C0.66 0.99 1.32 1.98 2 3 C2 2.01 2 1.02 2 0 C2.99 0 3.98 0 5 0 C3.60667426 3.36720387 2.0210714 4.9859524 -1 7 C-1 6.01 -1 5.02 -1 4 C-2.32 4.33 -3.64 4.66 -5 5 C-3.35 3.35 -1.7 1.7 0 0 Z " fill="#1D081D" transform="translate(306,321)"/>
<path d="M0 0 C4.875 4.75 4.875 4.75 6 7 C5.01 7 4.02 7 3 7 C3 7.99 3 8.98 3 10 C1.35 8.02 -0.3 6.04 -2 4 C-1.34 2.68 -0.68 1.36 0 0 Z " fill="#170415" transform="translate(282,318)"/>
<path d="M0 0 C3.29485231 3.29485231 3.71211884 4.48986176 4 9 C3.34 9.66 2.68 10.32 2 11 C2 10.34 2 9.68 2 9 C1.34 9 0.68 9 0 9 C0 6.03 0 3.06 0 0 Z " fill="#150614" transform="translate(218,455)"/>
<path d="M0 0 C2.97 0 5.94 0 9 0 C9 0.99 9 1.98 9 3 C6.03 3 3.06 3 0 3 C0 2.01 0 1.02 0 0 Z " fill="#080107" transform="translate(247,443)"/>
<path d="M0 0 C0.33 0 0.66 0 1 0 C1.33 2.64 1.66 5.28 2 8 C0.68 8.99 -0.64 9.98 -2 11 C-2.66 10.67 -3.32 10.34 -4 10 C-3.71125 9.46375 -3.4225 8.9275 -3.125 8.375 C-1.83288192 5.64719516 -0.91441408 2.87387282 0 0 Z " fill="#945D99" transform="translate(222,316)"/>
<path d="M0 0 C0.99 0 1.98 0 3 0 C3.125 6.625 3.125 6.625 2 10 C1.34 10 0.68 10 0 10 C0 6.7 0 3.4 0 0 Z " fill="#060207" transform="translate(264,270)"/>
<path d="M0 0 C1.2333212 2.46664241 1.00101632 3.94454486 0.875 6.6875 C0.80385984 11.58905728 1.74684486 14.68145265 4 19 C3.34 19 2.68 19 2 19 C2 18.34 2 17.68 2 17 C1.01 17 0.02 17 -1 17 C-1.02684679 14.35409986 -1.04676357 11.70846904 -1.0625 9.0625 C-1.07087891 8.30775391 -1.07925781 7.55300781 -1.08789062 6.77539062 C-1.09652441 4.85005687 -1.05224333 2.92464419 -1 1 C-0.67 0.67 -0.34 0.34 0 0 Z " fill="#88578E" transform="translate(278,228)"/>
<path d="M0 0 C-3.81346796 2.99629625 -7.23814289 4.97960205 -12 6 C-9.92191188 -0.23426437 -6.0915195 -0.35143382 0 0 Z " fill="#411640" transform="translate(296,145)"/>
<path d="M0 0 C1.32 0.66 2.64 1.32 4 2 C4 2.66 4 3.32 4 4 C3.01 4.66 2.02 5.32 1 6 C0.34 6.66 -0.32 7.32 -1 8 C-1.66 6.35 -2.32 4.7 -3 3 C-2.01 2.67 -1.02 2.34 0 2 C0 1.34 0 0.68 0 0 Z " fill="#343E44" transform="translate(349,44)"/>
<path d="M0 0 C0.66 0.33 1.32 0.66 2 1 C0.52307692 6.66153846 0.52307692 6.66153846 -2.125 8.375 C-2.74375 8.58125 -3.3625 8.7875 -4 9 C-4.66 8.01 -5.32 7.02 -6 6 C-4 4 -2 2 0 0 Z " fill="#965D9D" transform="translate(220,476)"/>
<path d="M0 0 C0.66 0.33 1.32 0.66 2 1 C2 4.63 2 8.26 2 12 C1.01 12.495 1.01 12.495 0 13 C-0.19397476 11.02145742 -0.38001321 9.0421352 -0.5625 7.0625 C-0.66691406 5.96035156 -0.77132813 4.85820312 -0.87890625 3.72265625 C-0.91886719 2.82417969 -0.95882813 1.92570312 -1 1 C-0.67 0.67 -0.34 0.34 0 0 Z " fill="#060104" transform="translate(310,382)"/>
<path d="M0 0 C0.99 0 1.98 0 3 0 C2.67 2.64 2.34 5.28 2 8 C1.01 8 0.02 8 -1 8 C-1.04241723 5.66705225 -1.04092937 3.33297433 -1 1 C-0.67 0.67 -0.34 0.34 0 0 Z " fill="#080107" transform="translate(234,345)"/>
<path d="M0 0 C0.33 0 0.66 0 1 0 C1.33 1.65 1.66 3.3 2 5 C2.66 5 3.32 5 4 5 C4 3.35 4 1.7 4 0 C4.33 0 4.66 0 5 0 C4.88541307 1.43836751 4.75790884 2.87570966 4.625 4.3125 C4.55539062 5.11300781 4.48578125 5.91351563 4.4140625 6.73828125 C4 9 4 9 2 12 C-0.60018816 8.09971775 -0.15085514 4.52565431 0 0 Z " fill="#271027" transform="translate(309,155)"/>
<path d="M0 0 C-4.625 4 -4.625 4 -8 4 C-8.33 4.99 -8.66 5.98 -9 7 C-9.66 6.67 -10.32 6.34 -11 6 C-5.28169014 -1.76056338 -5.28169014 -1.76056338 0 0 Z " fill="#401540" transform="translate(294,454)"/>
<path d="M0 0 C0.66 0 1.32 0 2 0 C2.27429625 5.39449293 2.36055646 8.51925805 -1 13 C-1.66 12.67 -2.32 12.34 -3 12 C-2.690625 11.319375 -2.38125 10.63875 -2.0625 9.9375 C-0.86629351 6.63034088 -0.40994603 3.48454122 0 0 Z " fill="#935B96" transform="translate(268,349)"/>
<path d="M0 0 C3.63 0 7.26 0 11 0 C11.33 0.99 11.66 1.98 12 3 C8.04 2.67 4.08 2.34 0 2 C0 1.34 0 0.68 0 0 Z " fill="#060205" transform="translate(289,296)"/>
<path d="M0 0 C0 2.97 0 5.94 0 9 C-0.99 9 -1.98 9 -3 9 C-3 6.36 -3 3.72 -3 1 C-1 0 -1 0 0 0 Z " fill="#040205" transform="translate(281,229)"/>
<path d="M0 0 C0.556875 0.226875 1.11375 0.45375 1.6875 0.6875 C0.2025 2.1725 0.2025 2.1725 -1.3125 3.6875 C-0.6525 4.0175 0.0075 4.3475 0.6875 4.6875 C-0.9625 5.0175 -2.6125 5.3475 -4.3125 5.6875 C-4.3125 5.0275 -4.3125 4.3675 -4.3125 3.6875 C-5.3025 3.3575 -6.2925 3.0275 -7.3125 2.6875 C-2.88173077 -0.38942308 -2.88173077 -0.38942308 0 0 Z " fill="#1C081D" transform="translate(201.3125,140.3125)"/>
<path d="M0 0 C1.2065625 0.0309375 1.2065625 0.0309375 2.4375 0.0625 C2.1075 1.3825 1.7775 2.7025 1.4375 4.0625 C0.7775 4.0625 0.1175 4.0625 -0.5625 4.0625 C-0.5625 4.7225 -0.5625 5.3825 -0.5625 6.0625 C-1.2225 6.0625 -1.8825 6.0625 -2.5625 6.0625 C-2.94468767 4.40635343 -3.27645102 2.73792976 -3.5625 1.0625 C-2.5625 0.0625 -2.5625 0.0625 0 0 Z " fill="#AD61B7" transform="translate(284.5625,135.9375)"/>
<path d="M0 0 C2.97 0 5.94 0 9 0 C9 0.99 9 1.98 9 3 C7.3125 3.6875 7.3125 3.6875 5 4 C2.25 2.625 2.25 2.625 0 1 C0 0.67 0 0.34 0 0 Z " fill="#080108" transform="translate(290,481)"/>
<path d="M0 0 C0.33 0 0.66 0 1 0 C1.36263859 5.8022175 0.25684543 9.63999211 -2 15 C-2.99 15 -3.98 15 -5 15 C-4.54625 14.38125 -4.0925 13.7625 -3.625 13.125 C-1.43160948 8.9069413 -0.76916651 4.66024414 0 0 Z " fill="#260E26" transform="translate(222,385)"/>
<path d="M0 0 C1.65 0 3.3 0 5 0 C5 1.32 5 2.64 5 4 C2.03 4 -0.94 4 -4 4 C-4.33 3.34 -4.66 2.68 -5 2 C-3.35 2 -1.7 2 0 2 C0 1.34 0 0.68 0 0 Z " fill="#94459C" transform="translate(307,126)"/>
<path d="M0 0 C1 2 1 2 0.3125 4.5625 C-1 7 -1 7 -3 7.9375 C-3.99 7.9684375 -3.99 7.9684375 -5 8 C-5.66 7.34 -6.32 6.68 -7 6 C-4.69 4.02 -2.38 2.04 0 0 Z " fill="#905E96" transform="translate(310,477)"/>
<path d="M0 0 C0.33 0 0.66 0 1 0 C1.33 3.3 1.66 6.6 2 10 C1.01 10.33 0.02 10.66 -1 11 C-1.02688151 9.35425434 -1.04634123 7.70838587 -1.0625 6.0625 C-1.07410156 5.14597656 -1.08570313 4.22945313 -1.09765625 3.28515625 C-1 1 -1 1 0 0 Z " fill="#040203" transform="translate(280,385)"/>
<path d="M0 0 C2.5 2.3125 2.5 2.3125 5 5 C5 5.99 5 6.98 5 8 C2.69 7.01 0.38 6.02 -2 5 C-1.01 4.67 -0.02 4.34 1 4 C0.67 2.68 0.34 1.36 0 0 Z " fill="#200A22" transform="translate(306,298)"/>
<path d="M0 0 C2.475 0.99 2.475 0.99 5 2 C4.01 2.33 3.02 2.66 2 3 C2 3.66 2 4.32 2 5 C-1.3 4.67 -4.6 4.34 -8 4 C-8 3.67 -8 3.34 -8 3 C-6.865625 2.87625 -5.73125 2.7525 -4.5625 2.625 C-3.386875 2.41875 -2.21125 2.2125 -1 2 C-0.67 1.34 -0.34 0.68 0 0 Z " fill="#1A0519" transform="translate(210,295)"/>
<path d="M0 0 C0 0.99 0 1.98 0 3 C-0.99 3.33 -1.98 3.66 -3 4 C-3 4.66 -3 5.32 -3 6 C-3.66 6.66 -4.32 7.32 -5 8 C-5.33 8.66 -5.66 9.32 -6 10 C-6.66 10 -7.32 10 -8 10 C-6.5682479 4.98886765 -4.01554307 3.05530451 0 0 Z " fill="#1E0920" transform="translate(287,218)"/>
<path d="M0 0 C-1.485 2.475 -1.485 2.475 -3 5 C-4.65 4.67 -6.3 4.34 -8 4 C-8 3.34 -8 2.68 -8 2 C-3.61016949 -1.20338983 -3.61016949 -1.20338983 0 0 Z " fill="#080208" transform="translate(308,169)"/>
<path d="M0 0 C0.33 1.32 0.66 2.64 1 4 C1.66 4 2.32 4 3 4 C3 5.65 3 7.3 3 9 C1.02 9.99 1.02 9.99 -1 11 C-0.67 7.37 -0.34 3.74 0 0 Z " fill="#825488" transform="translate(313,463)"/>
<path d="M0 0 C0.66 0 1.32 0 2 0 C2.125 3.375 2.125 3.375 2 7 C1.34 7.66 0.68 8.32 0 9 C-1.36623674 6.26752652 -1.128426 4.01801098 -1 1 C-0.67 0.67 -0.34 0.34 0 0 Z " fill="#070008" transform="translate(234,271)"/>
<path d="M0 0 C2.64 0.33 5.28 0.66 8 1 C7.67 1.99 7.34 2.98 7 4 C4.69 3.67 2.38 3.34 0 3 C0 2.01 0 1.02 0 0 Z " fill="#050104" transform="translate(200,248)"/>
<path d="M0 0 C2.38672669 2.96283313 4.7353371 5.94270509 7 9 C4 9 4 9 1.8125 7.875 C0 6 0 6 -0.25 2.8125 C-0.1675 1.884375 -0.085 0.95625 0 0 Z " fill="#935E98" transform="translate(233,203)"/>
<path d="M0 0 C1.60407328 -0.02708567 3.2082785 -0.04643483 4.8125 -0.0625 C5.70582031 -0.07410156 6.59914062 -0.08570313 7.51953125 -0.09765625 C10 0 10 0 13 1 C13.6875 3.0625 13.6875 3.0625 14 5 C13.175 4.525625 12.35 4.05125 11.5 3.5625 C7.47204099 1.76430401 4.36826421 1.3765745 0 1 C0 0.67 0 0.34 0 0 Z " fill="#925C98" transform="translate(248,177)"/>
<path d="M0 0 C0.99 0 1.98 0 3 0 C2.67 1.65 2.34 3.3 2 5 C1.01 4.67 0.02 4.34 -1 4 C-1.33 4.99 -1.66 5.98 -2 7 C-2.33 6.34 -2.66 5.68 -3 5 C-1.75 2.375 -1.75 2.375 0 0 Z " fill="#44143F" transform="translate(198,145)"/>
<path d="M0 0 C2.64 0 5.28 0 8 0 C6.875 1.5 6.875 1.5 5 3 C1.8125 3.1875 1.8125 3.1875 -1 3 C-0.67 2.01 -0.34 1.02 0 0 Z " fill="#040104" transform="translate(290,141)"/>
<path d="M0 0 C0.66 0 1.32 0 2 0 C2.36923077 5.53846154 2.36923077 5.53846154 0.5 7.875 C-0.2425 8.431875 -0.2425 8.431875 -1 9 C-1.09765625 2.84765625 -1.09765625 2.84765625 -1 1 C-0.67 0.67 -0.34 0.34 0 0 Z " fill="#D094D2" transform="translate(154,88)"/>
<path d="M0 0 C1.32 0 2.64 0 4 0 C4 0.99 4 1.98 4 3 C4.99 3.33 5.98 3.66 7 4 C3.04 4 -0.92 4 -5 4 C-5 3.67 -5 3.34 -5 3 C-3.02 2.67 -1.04 2.34 1 2 C0.67 1.34 0.34 0.68 0 0 Z " fill="#220921" transform="translate(203,403)"/>
<path d="M0 0 C2.31 0 4.62 0 7 0 C7 0.99 7 1.98 7 3 C4.69 3 2.38 3 0 3 C0 2.01 0 1.02 0 0 Z " fill="#0F040C" transform="translate(207,403)"/>
<path d="M0 0 C0.33 0 0.66 0 1 0 C1 4.62 1 9.24 1 14 C0.01 14.33 -0.98 14.66 -2 15 C-1.34 10.05 -0.68 5.1 0 0 Z " fill="#724477" transform="translate(222,230)"/>
<path d="M0 0 C2.21436106 2.21436106 2.74398588 2.92783056 3 6 C1.5625 9.25 1.5625 9.25 0 12 C-0.66 11.67 -1.32 11.34 -2 11 C-1.34 7.37 -0.68 3.74 0 0 Z " fill="#84548B" transform="translate(313,232)"/>
<path d="M0 0 C0.99 0.33 1.98 0.66 3 1 C1.35 3.64 -0.3 6.28 -2 9 C-3 5 -3 5 -3 3 C-2.34 3 -1.68 3 -1 3 C-0.67 2.01 -0.34 1.02 0 0 Z " fill="#94609C" transform="translate(191,218)"/>
<path d="M0 0 C1.67542976 0.28604898 3.34385343 0.61781233 5 1 C5.33 1.99 5.66 2.98 6 4 C2 4 2 4 0.25 2.5 C-0.1625 2.005 -0.575 1.51 -1 1 C-0.67 0.67 -0.34 0.34 0 0 Z " fill="#0B040C" transform="translate(209,218)"/>
<path d="M0 0 C2.97 0.495 2.97 0.495 6 1 C4.35 2.65 2.7 4.3 1 6 C0.34 5.34 -0.32 4.68 -1 4 C-0.625 1.875 -0.625 1.875 0 0 Z " fill="#915A97" transform="translate(281,217)"/>
<path d="M0 0 C0.66 0.33 1.32 0.66 2 1 C1.34 1.66 0.68 2.32 0 3 C0.66 3.66 1.32 4.32 2 5 C1.34 5 0.68 5 0 5 C-0.33 6.32 -0.66 7.64 -1 9 C-1.66 8.67 -2.32 8.34 -3 8 C-3.36923077 3.44615385 -3.36923077 3.44615385 -1.5 1.1875 C-1.005 0.795625 -0.51 0.40375 0 0 Z M-2 4 C-1 6 -1 6 -1 6 Z " fill="#1E0C1C" transform="translate(240,180)"/>
<path d="M0 0 C-1.625 5.75 -1.625 5.75 -5 8 C-4.67 6.68 -4.34 5.36 -4 4 C-4.66 3.67 -5.32 3.34 -6 3 C-3.375 0 -3.375 0 0 0 Z " fill="#130611" transform="translate(219,166)"/>
<path d="M0 0 C2.02045442 0.60183749 4.02111039 1.27306096 6 2 C6.33 2.66 6.66 3.32 7 4 C4.6875 5.125 4.6875 5.125 2 6 C1.01 5.34 0.02 4.68 -1 4 C-0.01 4 0.98 4 2 4 C2 3.34 2 2.68 2 2 C1.34 2 0.68 2 0 2 C0 1.34 0 0.68 0 0 Z " fill="#1F0A1F" transform="translate(209,140)"/>
<path d="M0 0 C1.98 0 3.96 0 6 0 C4.6875 2.5 4.6875 2.5 3 5 C2.01 5 1.02 5 0 5 C0 3.35 0 1.7 0 0 Z " fill="#AD64B4" transform="translate(179,129)"/>
<path d="M0 0 C0.33 0.66 0.66 1.32 1 2 C1.66 2 2.32 2 3 2 C3.66 3.65 4.32 5.3 5 7 C3.35 7 1.7 7 0 7 C0 4.69 0 2.38 0 0 Z " fill="#883E8F" transform="translate(170,122)"/>
<path d="M0 0 C0.33 0 0.66 0 1 0 C1 2.31 1 4.62 1 7 C-0.32 7.33 -1.64 7.66 -3 8 C-2.45276317 4.62537285 -1.9451 2.91765 0 0 Z " fill="#DAA7DD" transform="translate(155,101)"/>
<path d="M0 0 C1.32 0.99 2.64 1.98 4 3 C3.34 4.65 2.68 6.3 2 8 C1.34 8 0.68 8 0 8 C0 5.36 0 2.72 0 0 Z " fill="#070105" transform="translate(264,425)"/>
<path d="M0 0 C2.375 0.3125 2.375 0.3125 5 1 C5.66 1.99 6.32 2.98 7 4 C5.68 4.33 4.36 4.66 3 5 C3 4.34 3 3.68 3 3 C2.34 3 1.68 3 1 3 C0.67 2.01 0.34 1.02 0 0 Z " fill="#431642" transform="translate(298,145)"/>
<path d="M0 0 C1.94268841 2.91403262 3.46395304 5.85808576 5 9 C1.125 8.125 1.125 8.125 0 7 C-0.04092937 4.66702567 -0.04241723 2.33294775 0 0 Z " fill="#8A5891" transform="translate(232,432)"/>
<path d="M0 0 C1.32 0.66 2.64 1.32 4 2 C3.01 2.33 2.02 2.66 1 3 C0.67 3.99 0.34 4.98 0 6 C-0.99 5.01 -1.98 4.02 -3 3 C-2.01 2.67 -1.02 2.34 0 2 C0 1.34 0 0.68 0 0 Z " fill="#9B5EA3" transform="translate(218,370)"/>
<path d="M0 0 C0.33 1.32 0.66 2.64 1 4 C-3.455 4.495 -3.455 4.495 -8 5 C-6.37633534 1.75267068 -3.24612161 1.29844864 0 0 Z " fill="#8E5D93" transform="translate(261,288)"/>
<path d="M0 0 C0.99 0.99 1.98 1.98 3 3 C2.01 4.32 1.02 5.64 0 7 C-0.33 6.34 -0.66 5.68 -1 5 C-1.99 5.495 -1.99 5.495 -3 6 C-1.125 1.125 -1.125 1.125 0 0 Z " fill="#170518" transform="translate(192,221)"/>
<path d="M0 0 C2.31 0.33 4.62 0.66 7 1 C4.28817788 3.60334924 3.10866187 3.99456691 -0.75 4.1875 C-1.8225 4.125625 -2.895 4.06375 -4 4 C-4 3.67 -4 3.34 -4 3 C-2.35 2.67 -0.7 2.34 1 2 C0.67 1.34 0.34 0.68 0 0 Z " fill="#1D051E" transform="translate(297,217)"/>
<path d="M0 0 C3.875 0.875 3.875 0.875 5 2 C6.51469448 2.23192865 8.03754562 2.41215238 9.5625 2.5625 C10.38878906 2.64628906 11.21507812 2.73007813 12.06640625 2.81640625 C12.70449219 2.87699219 13.34257812 2.93757812 14 3 C14 3.33 14 3.66 14 4 C4.82713348 4.63019694 4.82713348 4.63019694 1.375 2 C0.92125 1.34 0.4675 0.68 0 0 Z " fill="#3B1639" transform="translate(196,168)"/>
<path d="M0 0 C0.66 0.33 1.32 0.66 2 1 C1.34 3.31 0.68 5.62 0 8 C-0.66 7.34 -1.32 6.68 -2 6 C-1.44444444 1.44444444 -1.44444444 1.44444444 0 0 Z " fill="#080109" transform="translate(280,154)"/>
<path d="M0 0 C0.9075 0.226875 1.815 0.45375 2.75 0.6875 C2.75 1.3475 2.75 2.0075 2.75 2.6875 C-0.55 2.6875 -3.85 2.6875 -7.25 2.6875 C-3.25 -0.3125 -3.25 -0.3125 0 0 Z " fill="#9D52A3" transform="translate(182.25,126.3125)"/>
<path d="M0 0 C0.66 0.33 1.32 0.66 2 1 C1.67 1.66 1.34 2.32 1 3 C1.99 3.33 2.98 3.66 4 4 C2.02 4.99 2.02 4.99 0 6 C-0.33 5.01 -0.66 4.02 -1 3 C-1.66 2.67 -2.32 2.34 -3 2 C-2.01 1.34 -1.02 0.68 0 0 Z " fill="#1D041D" transform="translate(213,477)"/>
<path d="M0 0 C0.99 0.66 1.98 1.32 3 2 C3.1875 4.625 3.1875 4.625 3 7 C1.35 5.68 -0.3 4.36 -2 3 C-1.34 2.01 -0.68 1.02 0 0 Z " fill="#12010E" transform="translate(259,413)"/>
<path d="M0 0 C0.99 0.33 1.98 0.66 3 1 C3.33 2.65 3.66 4.3 4 6 C2.68 5.34 1.36 4.68 0 4 C0 2.68 0 1.36 0 0 Z " fill="#0B010A" transform="translate(259,259)"/>
<path d="M0 0 C2.64 0 5.28 0 8 0 C5.23776722 2.76223278 2.79293383 2.57856291 -1 3 C-0.67 2.01 -0.34 1.02 0 0 Z " fill="#060104" transform="translate(198,218)"/>
<path d="M0 0 C0.33 0.66 0.66 1.32 1 2 C1.66 2.33 2.32 2.66 3 3 C0.525 4.485 0.525 4.485 -2 6 C-2.33 5.34 -2.66 4.68 -3 4 C-2.67 3.34 -2.34 2.68 -2 2 C-2.66 1.67 -3.32 1.34 -4 1 C-2 0 -2 0 0 0 Z " fill="#1B071B" transform="translate(258,208)"/>
<path d="M0 0 C2.375 -0.1875 2.375 -0.1875 5 0 C5.66 0.99 6.32 1.98 7 3 C4.03 3 1.06 3 -2 3 C-1.34 2.67 -0.68 2.34 0 2 C0 1.34 0 0.68 0 0 Z " fill="#070008" transform="translate(293,449)"/>
<path d="M0 0 C0.66 0 1.32 0 2 0 C3.7143618 1.95927063 5.38405168 3.95880212 7 6 C4 6 4 6 1.8125 4.125 C0 2 0 2 0 0 Z " fill="#3F173B" transform="translate(283,318)"/>
<path d="M0 0 C0.99 1.32 1.98 2.64 3 4 C1.02 4.99 1.02 4.99 -1 6 C-1 5.34 -1 4.68 -1 4 C-1.66 3.67 -2.32 3.34 -3 3 C-2.34 3 -1.68 3 -1 3 C-0.67 2.01 -0.34 1.02 0 0 Z " fill="#9D58A2" transform="translate(219,169)"/>
<path d="M0 0 C2.6875 0.3125 2.6875 0.3125 5 1 C3.68 1.33 2.36 1.66 1 2 C1.33 2.99 1.66 3.98 2 5 C-0.475 4.01 -0.475 4.01 -3 3 C-1.8125 1.4375 -1.8125 1.4375 0 0 Z " fill="#170618" transform="translate(287,170)"/>
<path d="M0 0 C0.99 0.99 1.98 1.98 3 3 C1.68 4.65 0.36 6.3 -1 8 C-1.04241723 5.66705225 -1.04092937 3.33297433 -1 1 C-0.67 0.67 -0.34 0.34 0 0 Z " fill="#9A5DA1" transform="translate(279,144)"/>
</svg>
