<?xml version="1.0" encoding="UTF-8"?>
<svg version="1.1" xmlns="http://www.w3.org/2000/svg" width="500" height="500">
<path d="M0 0 C1.03166526 -0.0025775 1.03166526 -0.0025775 2.08417225 -0.00520706 C4.39264544 -0.00955605 6.70104718 -0.00656569 9.00952148 -0.00341797 C10.68087795 -0.0046077 12.3522342 -0.00613278 14.02359009 -0.00796509 C19.55928073 -0.0117796 25.09493191 -0.00402647 30.63061523 0.00439453 C32.54847204 0.00666972 34.4663289 0.00890746 36.38418579 0.0111084 C48.96764853 0.02716712 61.55100388 0.06330527 74.13439941 0.10656738 C78.8610395 0.12263575 83.58767876 0.13637201 88.31433105 0.14831543 C101.97854275 0.18319577 115.64249802 0.2326796 129.30650616 0.31651115 C135.38681263 0.35372237 141.46698876 0.38467313 147.5473938 0.39984131 C153.30596494 0.41475226 159.06410953 0.44884306 164.82249069 0.49757767 C166.95420072 0.51240661 169.08597004 0.52044284 171.21773148 0.52131271 C174.1399318 0.52365808 177.06091859 0.55048217 179.98291016 0.58349609 C180.83675073 0.5784651 181.6905913 0.5734341 182.57030582 0.56825066 C187.68885968 0.6585998 190.32444704 1.32438659 194.06811523 5.12939453 C195.05811523 6.11939453 195.05811523 6.11939453 196.06811523 7.12939453 C196.30862427 9.7616272 196.30862427 9.7616272 196.29516602 13.13964844 C196.29493942 15.0313829 196.29493942 15.0313829 196.29470825 16.96133423 C196.28449421 18.34287675 196.27406221 19.72441768 196.26342773 21.10595703 C196.25969811 22.5155721 196.2568509 23.92518976 196.25485229 25.33480835 C196.24721178 29.04698835 196.22755985 32.75901214 196.20544434 36.47113037 C196.18499482 40.25823859 196.1758525 44.04537203 196.16577148 47.83251953 C196.14431423 55.26488246 196.1101734 62.69711662 196.06811523 70.12939453 C195.40811523 70.12939453 194.74811523 70.12939453 194.06811523 70.12939453 C193.84124023 70.72751953 193.61436523 71.32564453 193.38061523 71.94189453 C191.58785282 74.92983188 190.30817587 75.77936927 187.06811523 77.12939453 C183.76811523 77.12939453 180.46811523 77.12939453 177.06811523 77.12939453 C177.06811523 202.52939453 177.06811523 327.92939453 177.06811523 457.12939453 C119.64811523 457.12939453 62.22811523 457.12939453 3.06811523 457.12939453 C2.73811523 331.72939453 2.40811523 206.32939453 2.06811523 77.12939453 C-1.56188477 76.79939453 -5.19188477 76.46939453 -8.93188477 76.12939453 C-11.77590587 73.91105807 -13.33764614 72.31787179 -14.93188477 69.12939453 C-15.03839548 67.22642393 -15.08071864 65.31972769 -15.09301758 63.41381836 C-15.10262512 62.21529739 -15.11223267 61.01677643 -15.12213135 59.78193665 C-15.12638123 58.47991806 -15.1306311 57.17789948 -15.13500977 55.83642578 C-15.14076345 54.48841856 -15.14652115 53.14041136 -15.15228271 51.79240417 C-15.16279567 48.9619407 -15.16863554 46.13150564 -15.17211914 43.30102539 C-15.17758683 39.687493 -15.20157597 36.07434066 -15.23009109 32.46092701 C-15.24879317 29.6735274 -15.2539272 26.88621764 -15.25545502 24.0987606 C-15.259927 22.12299096 -15.27854249 20.14726956 -15.29742432 18.17158508 C-15.26768127 6.1371795 -15.26768127 6.1371795 -11.93188477 1.12939453 C-7.99388478 -0.06361369 -4.09030382 0.00265335 0 0 Z " fill="#76BB69" transform="translate(159.931884765625,42.87060546875)"/>
<path d="M0 0 C1.03166526 -0.0025775 1.03166526 -0.0025775 2.08417225 -0.00520706 C4.39264544 -0.00955605 6.70104718 -0.00656569 9.00952148 -0.00341797 C10.68087795 -0.0046077 12.3522342 -0.00613278 14.02359009 -0.00796509 C19.55928073 -0.0117796 25.09493191 -0.00402647 30.63061523 0.00439453 C32.54847204 0.00666972 34.4663289 0.00890746 36.38418579 0.0111084 C48.96764853 0.02716712 61.55100388 0.06330527 74.13439941 0.10656738 C78.8610395 0.12263575 83.58767876 0.13637201 88.31433105 0.14831543 C101.97854275 0.18319577 115.64249802 0.2326796 129.30650616 0.31651115 C135.38681263 0.35372237 141.46698876 0.38467313 147.5473938 0.39984131 C153.30596494 0.41475226 159.06410953 0.44884306 164.82249069 0.49757767 C166.95420072 0.51240661 169.08597004 0.52044284 171.21773148 0.52131271 C174.1399318 0.52365808 177.06091859 0.55048217 179.98291016 0.58349609 C180.83675073 0.5784651 181.6905913 0.5734341 182.57030582 0.56825066 C187.68885968 0.6585998 190.32444704 1.32438659 194.06811523 5.12939453 C195.05811523 6.11939453 195.05811523 6.11939453 196.06811523 7.12939453 C196.30862427 9.7616272 196.30862427 9.7616272 196.29516602 13.13964844 C196.29493942 15.0313829 196.29493942 15.0313829 196.29470825 16.96133423 C196.28449421 18.34287675 196.27406221 19.72441768 196.26342773 21.10595703 C196.25969811 22.5155721 196.2568509 23.92518976 196.25485229 25.33480835 C196.24721178 29.04698835 196.22755985 32.75901214 196.20544434 36.47113037 C196.18499482 40.25823859 196.1758525 44.04537203 196.16577148 47.83251953 C196.14431423 55.26488246 196.1101734 62.69711662 196.06811523 70.12939453 C195.40811523 70.12939453 194.74811523 70.12939453 194.06811523 70.12939453 C193.84124023 70.72751953 193.61436523 71.32564453 193.38061523 71.94189453 C191.58785282 74.92983188 190.30817587 75.77936927 187.06811523 77.12939453 C183.76811523 77.12939453 180.46811523 77.12939453 177.06811523 77.12939453 C177.06811523 202.52939453 177.06811523 327.92939453 177.06811523 457.12939453 C171.45811523 457.12939453 165.84811523 457.12939453 160.06811523 457.12939453 C160.06811523 334.69939453 160.06811523 212.26939453 160.06811523 86.12939453 C157.42811523 86.45939453 154.78811523 86.78939453 152.06811523 87.12939453 C150.21383314 87.21045851 148.35745683 87.25558933 146.50140381 87.25637817 C144.9537886 87.26060791 144.9537886 87.26060791 143.37490845 87.2649231 C141.71629288 87.26188675 141.71629288 87.26188675 140.02416992 87.25878906 C138.83949127 87.26054138 137.65481262 87.2622937 136.43423462 87.26409912 C133.20725594 87.26772937 129.98031873 87.26690262 126.75334072 87.26372004 C123.36796931 87.26117598 119.98260053 87.26353944 116.597229 87.2651062 C110.91824857 87.26692094 105.23928118 87.26453881 99.56030273 87.25976562 C92.9982387 87.25431385 86.4362057 87.25609509 79.87414241 87.26159203 C74.22980126 87.26613048 68.58546945 87.26677043 62.94112706 87.26415336 C59.57421818 87.26259597 56.20732389 87.26238231 52.84041595 87.26568985 C49.09174991 87.26822293 45.34314397 87.2643669 41.59448242 87.25878906 C39.92372147 87.26182541 39.92372147 87.26182541 38.21920776 87.2649231 C37.19874359 87.26210327 36.17827942 87.25928345 35.12689209 87.25637817 C34.24129986 87.25600115 33.35570763 87.25562412 32.44327927 87.25523567 C30.18298014 87.13548031 28.23512154 86.76265739 26.06811523 86.12939453 C26.06811523 85.46939453 26.06811523 84.80939453 26.06811523 84.12939453 C23.42811523 84.12939453 20.78811523 84.12939453 18.06811523 84.12939453 C18.06811523 84.78939453 18.06811523 85.44939453 18.06811523 86.12939453 C15.42811523 86.12939453 12.78811523 86.12939453 10.06811523 86.12939453 C10.06811523 208.55939453 10.06811523 330.98939453 10.06811523 457.12939453 C7.75811523 457.12939453 5.44811523 457.12939453 3.06811523 457.12939453 C2.73811523 331.72939453 2.40811523 206.32939453 2.06811523 77.12939453 C-1.56188477 76.79939453 -5.19188477 76.46939453 -8.93188477 76.12939453 C-11.77590587 73.91105807 -13.33764614 72.31787179 -14.93188477 69.12939453 C-15.03839548 67.22642393 -15.08071864 65.31972769 -15.09301758 63.41381836 C-15.10262512 62.21529739 -15.11223267 61.01677643 -15.12213135 59.78193665 C-15.12638123 58.47991806 -15.1306311 57.17789948 -15.13500977 55.83642578 C-15.14076345 54.48841856 -15.14652115 53.14041136 -15.15228271 51.79240417 C-15.16279567 48.9619407 -15.16863554 46.13150564 -15.17211914 43.30102539 C-15.17758683 39.687493 -15.20157597 36.07434066 -15.23009109 32.46092701 C-15.24879317 29.6735274 -15.2539272 26.88621764 -15.25545502 24.0987606 C-15.259927 22.12299096 -15.27854249 20.14726956 -15.29742432 18.17158508 C-15.26768127 6.1371795 -15.26768127 6.1371795 -11.93188477 1.12939453 C-7.99388478 -0.06361369 -4.09030382 0.00265335 0 0 Z " fill="#64A959" transform="translate(159.931884765625,42.87060546875)"/>
<path d="M0 0 C0.78448863 -0.00467997 1.56897726 -0.00935994 2.37723827 -0.01418173 C5.01443921 -0.02617872 7.65112499 -0.01665632 10.28833008 -0.00723267 C12.17550969 -0.01129628 14.06268692 -0.01663698 15.94985962 -0.02316284 C21.0820102 -0.03686721 26.21398035 -0.03152492 31.34613419 -0.02202559 C36.70992784 -0.01444514 42.07370576 -0.02147009 47.4375 -0.02618408 C56.44607322 -0.03164635 65.45457273 -0.02443766 74.46313477 -0.01016235 C84.887249 0.00616504 95.31118723 0.00087687 105.7352972 -0.01564157 C114.67547331 -0.02924301 123.61559635 -0.03118267 132.55577946 -0.02332556 C137.89963225 -0.01864166 143.24340224 -0.01804386 148.58724976 -0.02793503 C153.610531 -0.03658291 158.63358469 -0.03062273 163.65684128 -0.01325226 C165.50357052 -0.00927574 167.35031882 -0.01044127 169.19704056 -0.01704025 C171.71186232 -0.0252 174.22594819 -0.01500222 176.74072266 0 C177.47699985 -0.00669217 178.21327703 -0.01338433 178.97186565 -0.02027929 C181.89310455 0.01368173 183.88229959 0.03870792 186.3157196 1.74509239 C191.93106792 10.45507917 185.64822045 28.0299214 183.76904297 37.03671265 C179.89378065 54.86363496 179.89378065 54.86363496 176.77858353 57.96635151 C173.51740323 59.88198195 170.58002819 59.80498048 166.9039917 59.77967834 C166.14920037 59.78632517 165.39440903 59.792972 164.61674523 59.79982024 C162.08623822 59.81848066 159.55620277 59.81584296 157.02563477 59.81332397 C155.21225312 59.82233929 153.39887758 59.83266594 151.58551025 59.84420776 C146.66026836 59.87183098 141.73514191 59.88106951 136.80983257 59.88706183 C131.66347854 59.89643165 126.51721123 59.9226339 121.37091064 59.94706726 C111.62458681 59.99077429 101.87827976 60.01929544 92.13188767 60.04239064 C81.03643023 60.06941979 69.94105985 60.1133327 58.8456645 60.15867937 C36.02061061 60.25158585 13.19552941 60.3232391 -9.62963867 60.38095093 C-10.63743469 57.35756287 -10.76788387 55.29389827 -10.79077148 52.13095093 C-10.80037903 51.05973999 -10.80998657 49.98852905 -10.81988525 48.88485718 C-10.82413513 47.72856812 -10.82838501 46.57227905 -10.83276367 45.38095093 C-10.83846375 44.19372437 -10.84416382 43.0064978 -10.85003662 41.78329468 C-10.8594869 39.271585 -10.86602071 36.75986293 -10.86987305 34.24813843 C-10.87959976 30.39635808 -10.91063229 26.54510648 -10.94213867 22.69345093 C-10.94866654 20.2559541 -10.95391786 17.81845346 -10.95776367 15.38095093 C-10.97011047 14.22466187 -10.98245728 13.0683728 -10.99517822 11.87704468 C-10.99067657 10.27022827 -10.99067657 10.27022827 -10.98608398 8.63095093 C-10.98972961 7.68735718 -10.99337524 6.74376343 -10.99713135 5.77157593 C-10.62963867 3.38095093 -10.62963867 3.38095093 -9.5835228 1.7553463 C-6.59393826 -0.34757838 -3.52404742 -0.03203075 0 0 Z " fill="#75BB69" transform="translate(161.629638671875,48.619049072265625)"/>
<path d="M0 0 C1.03166526 -0.0025775 1.03166526 -0.0025775 2.08417225 -0.00520706 C4.39264544 -0.00955605 6.70104718 -0.00656569 9.00952148 -0.00341797 C10.68087795 -0.0046077 12.3522342 -0.00613278 14.02359009 -0.00796509 C19.55928073 -0.0117796 25.09493191 -0.00402647 30.63061523 0.00439453 C32.54847204 0.00666972 34.4663289 0.00890746 36.38418579 0.0111084 C48.96764853 0.02716712 61.55100388 0.06330527 74.13439941 0.10656738 C78.8610395 0.12263575 83.58767876 0.13637201 88.31433105 0.14831543 C101.97854275 0.18319577 115.64249802 0.2326796 129.30650616 0.31651115 C135.38681263 0.35372237 141.46698876 0.38467313 147.5473938 0.39984131 C153.30596494 0.41475226 159.06410953 0.44884306 164.82249069 0.49757767 C166.95420072 0.51240661 169.08597004 0.52044284 171.21773148 0.52131271 C174.1399318 0.52365808 177.06091859 0.55048217 179.98291016 0.58349609 C180.83675073 0.5784651 181.6905913 0.5734341 182.57030582 0.56825066 C186.42087244 0.63621817 188.65732375 0.90742061 192.10046387 2.76794434 C194.6577628 5.83705209 194.67479998 7.49022401 194.63574219 11.45849609 C194.63536453 12.73952209 194.63498688 14.0205481 194.63459778 15.34039307 C194.60906636 16.73361181 194.58298641 18.12682059 194.55639648 19.52001953 C194.5470669 20.94918582 194.53995147 22.37836814 194.53495789 23.80755615 C194.51589879 27.56282981 194.46680955 31.31713111 194.41143799 35.07202148 C194.36022071 38.90611619 194.33743869 42.74036858 194.31225586 46.57470703 C194.25868788 54.09337872 194.17339064 61.6112502 194.06811523 69.12939453 C192.13061523 69.69189453 192.13061523 69.69189453 190.06811523 70.12939453 C188.31644225 68.37772155 188.91593815 65.92006348 188.89453125 63.53979492 C188.88104141 62.34508072 188.86755157 61.15036652 188.85365295 59.91944885 C188.83799538 57.96796181 188.83799538 57.96796181 188.82202148 55.97705078 C188.80652947 54.63804806 188.79032067 53.29905346 188.77342224 51.96006775 C188.70252495 46.26017717 188.64247965 40.56020852 188.59130859 34.86010742 C188.55955735 31.37698363 188.51829156 27.89407824 188.4711132 24.41113091 C188.44725123 22.43359106 188.43433437 20.45592905 188.42152405 18.47828674 C188.40488205 17.28042038 188.38824005 16.08255402 188.37109375 14.84838867 C188.35563255 13.26073448 188.35563255 13.26073448 188.33985901 11.64100647 C188.31513132 8.95844894 188.31513132 8.95844894 186.06811523 7.12939453 C183.52683804 6.93193059 181.09445211 6.86009622 178.55200195 6.87542725 C177.3754923 6.87074727 177.3754923 6.87074727 176.17521477 6.86597276 C173.53266887 6.85796067 170.89035057 6.86432881 168.24780273 6.87060547 C166.35914983 6.86789703 164.47049798 6.86433693 162.58184814 6.85998535 C157.44147417 6.85084158 152.30118018 6.85441377 147.16080475 6.86074352 C141.79120156 6.86579325 136.4216054 6.86111494 131.05200195 6.85797119 C122.03327195 6.85432854 113.01457465 6.85913847 103.99584961 6.86865234 C93.55643276 6.87953746 83.11709402 6.87601209 72.67767906 6.86499953 C63.72820554 6.85593516 54.77875558 6.85463721 45.82927895 6.85987687 C40.4781936 6.86300126 35.12714502 6.8633931 29.77606201 6.85680389 C24.74627765 6.85104339 19.71659438 6.85500347 14.68682098 6.86659241 C12.83644529 6.86924596 10.98606115 6.86846214 9.13568878 6.86406708 C6.61841893 6.85863746 4.10147721 6.86541402 1.58422852 6.87542725 C0.84435637 6.8709658 0.10448421 6.86650436 -0.6578083 6.86190772 C-4.74636519 6.77059835 -4.74636519 6.77059835 -7.93188477 9.12939453 C-8.23184139 11.65673764 -8.23184139 11.65673764 -8.17480469 14.63305664 C-8.17788132 15.78442612 -8.18095795 16.93579559 -8.18412781 18.12205505 C-8.17334953 19.99547325 -8.17334953 19.99547325 -8.16235352 21.90673828 C-8.16189529 23.18416397 -8.16143707 24.46158966 -8.16096497 25.77772522 C-8.1579389 28.48386828 -8.15110895 31.18967302 -8.13769531 33.89575195 C-8.12072239 37.36381824 -8.1168805 40.83173892 -8.1176405 44.29984188 C-8.11730303 47.60632174 -8.10846224 50.9127711 -8.09985352 54.21923828 C-8.09874069 55.46615952 -8.09762787 56.71308075 -8.09648132 57.99778748 C-8.08691154 59.72956993 -8.08691154 59.72956993 -8.07714844 61.49633789 C-8.07333664 62.51400742 -8.06952484 63.53167694 -8.06559753 64.58018494 C-8.03881759 67.25209776 -8.03881759 67.25209776 -6.93188477 70.12939453 C81.67311523 70.62439453 81.67311523 70.62439453 172.06811523 71.12939453 C170.74811523 71.45939453 169.42811523 71.78939453 168.06811523 72.12939453 C167.07811523 74.10939453 167.07811523 74.10939453 166.06811523 76.12939453 C114.58811523 76.12939453 63.10811523 76.12939453 10.06811523 76.12939453 C10.06811523 201.85939453 10.06811523 327.58939453 10.06811523 457.12939453 C7.75811523 457.12939453 5.44811523 457.12939453 3.06811523 457.12939453 C2.73811523 331.72939453 2.40811523 206.32939453 2.06811523 77.12939453 C-1.56188477 76.79939453 -5.19188477 76.46939453 -8.93188477 76.12939453 C-11.77590587 73.91105807 -13.33764614 72.31787179 -14.93188477 69.12939453 C-15.03839548 67.22642393 -15.08071864 65.31972769 -15.09301758 63.41381836 C-15.10262512 62.21529739 -15.11223267 61.01677643 -15.12213135 59.78193665 C-15.12638123 58.47991806 -15.1306311 57.17789948 -15.13500977 55.83642578 C-15.14076345 54.48841856 -15.14652115 53.14041136 -15.15228271 51.79240417 C-15.16279567 48.9619407 -15.16863554 46.13150564 -15.17211914 43.30102539 C-15.17758683 39.687493 -15.20157597 36.07434066 -15.23009109 32.46092701 C-15.24879317 29.6735274 -15.2539272 26.88621764 -15.25545502 24.0987606 C-15.259927 22.12299096 -15.27854249 20.14726956 -15.29742432 18.17158508 C-15.26768127 6.1371795 -15.26768127 6.1371795 -11.93188477 1.12939453 C-7.99388478 -0.06361369 -4.09030382 0.00265335 0 0 Z " fill="#0A130C" transform="translate(159.931884765625,42.87060546875)"/>
<path d="M0 0 C2.97 0 5.94 0 9 0 C10.26060545 48.43779013 10.15879284 96.87963092 10.13057256 145.33008969 C10.12585074 153.44247217 10.12350905 161.55485261 10.12231445 169.66723633 C10.11050532 236.78240594 9.94345263 303.89048496 9 371 C6.03 371 3.06 371 0 371 C0 248.57 0 126.14 0 0 Z " fill="#AAE2AA" transform="translate(170,129)"/>
<path d="M0 0 C1.32 0 2.64 0 4 0 C4 0.66 4 1.32 4 2 C4.66 2 5.32 2 6 2 C6 1.34 6 0.68 6 0 C9.63 0 13.26 0 17 0 C17 0.33 17 0.66 17 1 C13.7 1 10.4 1 7 1 C7 126.4 7 251.8 7 381 C4.69 381 2.38 381 0 381 C0 255.27 0 129.54 0 0 Z " fill="#08120E" transform="translate(330,119)"/>
<path d="M0 0 C0.33 0 0.66 0 1 0 C1 20.79 1 41.58 1 63 C0.34 63 -0.32 63 -1 63 C-1.268125 63.61875 -1.53625 64.2375 -1.8125 64.875 C-3 67 -3 67 -6 69 C-9.13671875 69.1953125 -9.13671875 69.1953125 -12.6875 69.125 C-13.86699219 69.10695313 -15.04648437 69.08890625 -16.26171875 69.0703125 C-17.16535156 69.04710938 -18.06898438 69.02390625 -19 69 C-19 69.66 -19 70.32 -19 71 C-19.66 71 -20.32 71 -21 71 C-21 70.34 -21 69.68 -21 69 C-21.7734375 69.2165625 -21.7734375 69.2165625 -22.5625 69.4375 C-29.3131178 70.99533488 -35.87898506 71.16534814 -42.7800293 71.20532227 C-43.84488556 71.21522186 -44.90974182 71.22512146 -46.00686646 71.23532104 C-49.52929486 71.26689211 -53.05173583 71.29172777 -56.57421875 71.31640625 C-59.05630292 71.33703026 -61.53838401 71.35802792 -64.02046204 71.37937927 C-69.90949253 71.42896179 -75.79854464 71.47415141 -81.68762475 71.51740164 C-87.60080563 71.5611395 -93.5139316 71.61054466 -99.42706108 71.66068459 C-105.80943146 71.71454697 -112.19182311 71.76563954 -118.57421875 71.81640625 C-120.43950037 71.83152189 -120.43950037 71.83152189 -122.34246445 71.8469429 C-134.45096423 71.94322925 -146.5576763 72.02454061 -158.66650391 71.95654297 C-159.53531724 71.95247279 -160.40413057 71.94840261 -161.29927158 71.9442091 C-165.21451897 71.9250913 -169.12913322 71.89626691 -173.04411316 71.84657288 C-174.35447037 71.83782639 -175.66482758 71.8290799 -177.01489258 71.82006836 C-178.13511307 71.80681015 -179.25533356 71.79355194 -180.40950012 71.77989197 C-183.16331865 71.73351683 -183.16331865 71.73351683 -185 74 C-185 72.35 -185 70.7 -185 69 C-184.19786135 68.99761165 -183.39572269 68.99522329 -182.56927681 68.99276257 C-163.0740973 68.93369125 -143.57904525 68.85819202 -124.08400154 68.76428509 C-114.65643555 68.71927127 -105.22890781 68.67986963 -95.80126953 68.65356445 C-87.58654703 68.63062947 -79.37194502 68.59728224 -71.157318 68.55129844 C-66.805535 68.52730522 -62.45387177 68.50861656 -58.10202408 68.50238609 C-54.00948958 68.49636263 -49.91726178 68.47646314 -45.82484055 68.44572449 C-44.31957372 68.43690004 -42.81426688 68.43323073 -41.30897522 68.43499184 C-39.26023925 68.43663256 -37.21151588 68.41825534 -35.16287231 68.39872742 C-34.01431826 68.39411845 -32.8657642 68.38950949 -31.68240547 68.38476086 C-30.79721167 68.25778977 -29.91201786 68.13081869 -29 68 C-28.01 66.515 -28.01 66.515 -27 65 C-84.75 64.67 -142.5 64.34 -202 64 C-204 60 -204 60 -203.625 57.75 C-203.41875 57.1725 -203.2125 56.595 -203 56 C-203 56.99 -203 57.98 -203 59 C-201.99050592 58.75677033 -201.99050592 58.75677033 -200.96061802 58.50862694 C-197.47067548 57.90906334 -194.17266374 57.86888021 -190.63011169 57.86196899 C-189.89770596 57.85914771 -189.16530023 57.85632643 -188.41070038 57.85341966 C-185.96185911 57.84510097 -183.51306321 57.84373779 -181.06420898 57.84228516 C-179.30643589 57.83761511 -177.54866399 57.83247123 -175.79089355 57.82688904 C-172.00844372 57.81562241 -168.2260017 57.80718149 -164.44354057 57.80076981 C-158.46453293 57.79008268 -152.48558171 57.76983769 -146.50660706 57.74765015 C-129.50581434 57.68574406 -112.50502558 57.63166261 -95.50415039 57.59863281 C-86.11267902 57.58030681 -76.72130276 57.55140082 -67.32990128 57.5106281 C-62.35996462 57.48953277 -57.39014791 57.47409717 -52.42016411 57.47182083 C-47.74894136 57.46967862 -43.07796881 57.45385322 -38.4068222 57.42743111 C-36.69113862 57.42022166 -34.97542477 57.41814508 -33.25972939 57.42153358 C-30.92048967 57.42541626 -28.58205387 57.41101393 -26.24290466 57.39199829 C-24.27816523 57.38703307 -24.27816523 57.38703307 -22.27373409 57.38196754 C-18.8182338 56.97879217 -17.42702525 56.43720771 -15 54 C-14.05475174 51.86458628 -14.05475174 51.86458628 -13.62109375 49.421875 C-13.32464966 48.0608667 -13.32464966 48.0608667 -13.0222168 46.67236328 C-12.82926025 45.7079834 -12.63630371 44.74360352 -12.4375 43.75 C-12.12389526 42.27829346 -12.12389526 42.27829346 -11.80395508 40.77685547 C-11.18570545 37.85443795 -10.58990797 34.92825453 -10 32 C-9.67211697 30.40359612 -9.34401446 28.80723729 -9.015625 27.2109375 C-8.3225959 23.8112905 -7.65286161 20.40761914 -7 17 C-6.67 17 -6.34 17 -6 17 C-5.67 31.85 -5.34 46.7 -5 62 C-3.68 62 -2.36 62 -1 62 C-1.00222061 61.23800797 -1.00444122 60.47601593 -1.00672913 59.69093323 C-1.02673157 52.52448288 -1.04197388 45.35804599 -1.05181217 38.19157505 C-1.05704008 34.50685502 -1.06413605 30.82215797 -1.07543945 27.13745117 C-1.08627162 23.58429169 -1.09227753 20.03115437 -1.09487724 16.47797966 C-1.0967309 15.11954334 -1.10035038 13.76110829 -1.10573006 12.40268135 C-1.11294475 10.50617777 -1.11340809 8.60965207 -1.11352539 6.71313477 C-1.115746 5.63169693 -1.11796661 4.55025909 -1.12025452 3.43605042 C-1 1 -1 1 0 0 Z " fill="#63A653" transform="translate(355,50)"/>
<path d="M0 0 C3 0 3 0 4.66442853 1.10503989 C6.60675773 3.86089118 6.37244746 5.96583265 6.36914349 9.31936169 C6.37260502 9.96609359 6.37606655 10.6128255 6.37963298 11.27915534 C6.38761763 13.46133196 6.3740795 15.64285373 6.36076355 17.82499695 C6.36207095 19.39913664 6.36469617 20.9732757 6.36853105 22.54741126 C6.3752608 26.88471585 6.36320929 31.22179953 6.34819686 35.55907595 C6.33527651 40.23186859 6.33962312 44.90464814 6.34190369 49.57745361 C6.34347896 57.67727818 6.33404325 65.77703041 6.31719017 73.87683678 C6.2928391 85.58787619 6.28499889 97.29888052 6.2812262 109.00994251 C6.27465559 128.00900821 6.25467792 147.00803533 6.22631836 166.00708008 C6.19879354 184.46606249 6.17755224 202.92503443 6.16479492 221.3840332 C6.16400675 222.52129035 6.16321858 223.65854749 6.16240653 224.83026697 C6.1584915 230.53538615 6.15470035 236.24050541 6.15097082 241.94562471 C6.11985595 289.29710981 6.06700359 336.64855302 6 384 C4.02 384 2.04 384 0 384 C0 257.28 0 130.56 0 0 Z " fill="#000201" transform="translate(163,116)"/>
<path d="M0 0 C1.65 0 3.3 0 5 0 C4.9922694 0.92063374 4.9922694 0.92063374 4.98438263 1.85986614 C4.85628536 17.13626884 4.73112885 32.41269296 4.60884857 47.68914318 C4.54963944 55.07817409 4.48958659 62.46719597 4.42724609 69.85620117 C3.97262573 123.85540541 3.73376081 177.84613241 4.42752075 231.8449707 C4.86745241 266.23048466 5.09434117 300.61167567 5.0625 335 C5.06164398 335.92634876 5.06078796 336.85269753 5.05990601 337.80711746 C5.04886225 348.87143366 5.02927797 359.93571704 5 371 C3.35 371 1.7 371 0 371 C0 248.57 0 126.14 0 0 Z " fill="#8FC687" transform="translate(170,129)"/>
<path d="M0 0 C0.78660533 -0.00256327 1.57321066 -0.00512655 2.38365251 -0.0077675 C5.02789146 -0.01272156 7.67156349 0.00381399 10.31575012 0.02018738 C12.20779405 0.0210333 14.09983897 0.02055919 15.99188232 0.01885986 C21.1362545 0.01799713 26.28041795 0.03566792 31.42474151 0.05658174 C36.797931 0.07530219 42.17112497 0.07709532 47.54434204 0.08065796 C57.72283742 0.08999206 67.90123643 0.11462431 78.07968932 0.14470643 C89.66598197 0.17820799 101.25227915 0.19472576 112.83860815 0.20979273 C136.67585023 0.24117267 160.5130067 0.29395968 184.35017395 0.36076355 C185.34017395 2.34076355 185.34017395 2.34076355 186.35017395 4.36076355 C185.1815834 4.38359909 184.01299286 4.40643463 182.80899048 4.42996216 C171.70477878 4.64733603 160.60063272 4.86783211 149.49654102 5.09125423 C143.79014743 5.20597404 138.08373741 5.31965766 132.37727356 5.43083191 C126.8528793 5.53849954 121.32854965 5.64907344 115.80425072 5.76152229 C113.71435724 5.80357879 111.62444369 5.84465135 109.53450966 5.88464165 C98.27958244 6.10069148 87.04820139 6.44102584 75.80584621 7.01809883 C68.47284995 7.38299904 61.1545601 7.50942322 53.81341171 7.52942848 C50.90969715 7.53943611 48.00617136 7.56527043 45.1025486 7.58974743 C39.75118581 7.63472672 34.39996001 7.67330441 29.04841614 7.68669128 C25.26977468 7.69674624 21.49170632 7.72594185 17.71329117 7.76801109 C16.28677816 7.78029565 14.86018461 7.78544699 13.43362045 7.78321266 C11.45831444 7.78087044 9.48303057 7.80515518 7.50788879 7.83073425 C6.38764313 7.83660049 5.26739746 7.84246674 4.11320496 7.84851074 C1.24847993 8.10660901 1.24847993 8.10660901 -0.49040222 10.23197937 C-5.53323227 19.49097212 -4.07071886 33.31801288 -4.27482605 43.67326355 C-4.31311918 45.30023496 -4.35217692 46.92718857 -4.39201355 48.55412292 C-4.48674252 52.48952069 -4.5712069 56.42501235 -4.64982605 60.36076355 C-6.29982605 60.36076355 -7.94982605 60.36076355 -9.64982605 60.36076355 C-10.65762207 57.3373755 -10.78807124 55.27371089 -10.81095886 52.11076355 C-10.82056641 51.03955261 -10.83017395 49.96834167 -10.84007263 48.8646698 C-10.84432251 47.70838074 -10.84857239 46.55209167 -10.85295105 45.36076355 C-10.85865112 44.17353699 -10.8643512 42.98631042 -10.870224 41.7631073 C-10.87967427 39.25139762 -10.88620809 36.73967555 -10.89006042 34.22795105 C-10.89978714 30.3761707 -10.93081966 26.52491911 -10.96232605 22.67326355 C-10.96885391 20.23576673 -10.97410523 17.79826608 -10.97795105 15.36076355 C-10.99029785 14.20447449 -11.00264465 13.04818542 -11.0153656 11.8568573 C-11.01086395 10.25004089 -11.01086395 10.25004089 -11.00627136 8.61076355 C-11.00991699 7.6671698 -11.01356262 6.72357605 -11.01731873 5.75138855 C-10.64982605 3.36076355 -10.64982605 3.36076355 -9.60497189 1.73389721 C-6.60827322 -0.37073751 -3.52975745 -0.0417769 0 0 Z " fill="#A2CE9D" transform="translate(161.6498260498047,48.63923645019531)"/>
<path d="M0 0 C5.083819 2.73019909 9.15176989 6.4299429 11.375 11.8125 C12.34707352 18.59565036 11.73216964 23.52846375 7.76171875 29.15625 C4.07906593 33.55468604 1.09393994 35.28909364 -4.734375 36.109375 C-10.0188904 36.4373794 -13.55723854 35.4142864 -17.8984375 32.37890625 C-22.35172977 28.33870218 -24.39906721 23.03417239 -25 17.125 C-24.91543371 11.37449241 -22.01864217 7.23007859 -18.0625 3.234375 C-12.38633658 -1.70388717 -7.11333306 -2.3302298 0 0 Z " fill="#26501C" transform="translate(256.625,411.1875)"/>
<path d="M0 0 C4.3043075 3.89437345 8.28332956 7.55748988 8.828125 13.64453125 C8.96213021 20.91431384 7.71320588 25.33349232 2.625 30.6875 C-0.95393403 34.2384736 -4.25435265 34.56960088 -9.1875 34.6875 C-14.44290476 34.63678439 -17.40114201 34.05081864 -21.375 30.375 C-25.86066947 25.51552474 -27.89040294 21.21334723 -27.6875 14.4921875 C-26.90297063 9.17700104 -24.33968845 4.93241666 -20.3125 1.4375 C-14.31406392 -2.77416788 -6.58184301 -3.16903552 0 0 Z " fill="#274F1C" transform="translate(259.375,179.625)"/>
<path d="M0 0 C5.97599938 1.99199979 9.35988116 5.95406502 12.3125 11.4375 C14.0083462 17.75838128 13.01181931 23.31100796 10 29 C6.45972242 33.17571202 3.50553891 35.59079552 -1.91796875 36.4765625 C-8.29496482 36.76607965 -12.25811571 36.555209 -17.1875 32.25 C-21.24378198 28.18619245 -23.28508283 24.99080049 -23.3125 19.1875 C-23.16773597 13.71059407 -22.27748851 9.33020815 -18.3125 5.2734375 C-12.26566381 -0.04273932 -8.0391536 -0.61489277 0 0 Z " fill="#274E1C" transform="translate(210,140)"/>
<path d="M0 0 C4.77829366 2.17957255 6.87109741 6.27326468 8.8984375 10.8515625 C10.717098 16.17878927 10.45548683 20.43473964 8.15625 25.625 C5.49906367 30.42873898 2.06825659 33.67516447 -3.21875 35.4375 C-8.96430599 36.17077774 -13.79687622 36.30944463 -18.65625 32.875 C-23.00748686 29.03304548 -25.77641656 25.59834107 -26.59375 19.7578125 C-26.85216664 13.79807863 -26.35703497 10.00022445 -22.21875 5.4375 C-21.76757812 4.87933594 -21.31640625 4.32117188 -20.8515625 3.74609375 C-15.22458274 -2.28681241 -7.6169331 -1.93105346 0 0 Z " fill="#264E1C" transform="translate(213.21875,449.5625)"/>
<path d="M0 0 C5.03810178 4.03048142 8.09180044 9.66637028 8.875 16.0625 C8.32561461 21.83104656 6.21337309 27.4087287 1.9375 31.4921875 C-3.18953922 35.00420936 -8.44526444 35.99164173 -14.5 35 C-19.70747565 32.67449253 -24.4030014 29.28515448 -26.90625 24.046875 C-28.39885586 18.90131269 -28.54913204 13.678635 -26.58203125 8.65625 C-20.58835689 -1.74054437 -11.10810056 -3.17374302 0 0 Z " fill="#274E1D" transform="translate(214.5,218)"/>
<path d="M0 0 C4.83735148 2.61364524 8.06265925 6.09032151 9.79296875 11.28125 C10.49277661 17.26062098 10.8385684 22.67904563 7.29296875 27.78125 C3.53404288 32.01665943 -0.65728651 34.70074663 -6.28515625 35.62109375 C-12.42648568 35.91409611 -16.30450028 33.87406663 -20.89453125 30.03125 C-24.42945999 25.82755095 -26.34061777 21.71877896 -26.58203125 16.21875 C-26.00713266 10.18231477 -24.13362278 6.90605736 -19.64453125 2.96875 C-14.010264 -1.64771413 -7.00387263 -2.28090719 0 0 Z " fill="#27501C" transform="translate(258.20703125,256.71875)"/>
<path d="M0 0 C4.90438132 2.86860039 8.49863147 6.49589442 10.3125 11.9375 C11.05425619 18.78354488 10.37344517 24.26527659 6.3125 29.9375 C0.9757753 35.01389666 -3.62695342 35.28270365 -10.73828125 35.22265625 C-14.67484117 34.84203522 -16.76872896 33.56439393 -19.6875 30.9375 C-20.43 30.31875 -21.1725 29.7 -21.9375 29.0625 C-25.40971918 24.84623385 -26.09947283 20.20145209 -25.9375 14.88671875 C-25.08228421 8.21870811 -20.40696529 4.12818038 -15.4375 0.125 C-10.20441593 -2.13474085 -5.38414772 -1.5513646 0 0 Z " fill="#264F1C" transform="translate(257.6875,334.0625)"/>
<path d="M0 0 C4.91042659 2.29509069 8.98651749 5.90707365 11 11 C12.30086253 16.32636627 12.41271086 20.9912548 10.22265625 26.07421875 C7.33820957 30.61745265 3.09641451 34.30119516 -2 36 C-8.44100476 36.77495324 -13.72172648 35.90496706 -19 32 C-23.45067147 26.40813071 -24.41766289 21.84414314 -24.34375 14.859375 C-23.64361552 9.03552906 -20.52869267 5.52869267 -16.5 1.5 C-11.01955997 -0.84876001 -5.85895929 -0.95029462 0 0 Z " fill="#274F1D" transform="translate(302,449)"/>
<path d="M0 0 C5.94557609 3.1351437 8.62234734 7.99690839 10.76171875 14.21875 C11.90386867 20.61478953 9.26626324 25.94348829 5.76171875 31.21875 C0.69351218 35.79249739 -4.75645593 35.56800356 -11.32421875 35.49609375 C-15.30927595 35.11681887 -17.34814121 33.96438304 -20.23828125 31.21875 C-24.90603964 25.03712402 -26.21160437 19.846887 -25.23828125 12.21875 C-23.20580478 6.72916401 -19.56676632 2.88861744 -14.4765625 0.0703125 C-9.56258208 -1.79922979 -4.94697462 -1.72669271 0 0 Z " fill="#264E1D" transform="translate(212.23828125,371.78125)"/>
<path d="M0 0 C4.60728735 2.60936087 8.14287762 5.92286976 9.65234375 11.12109375 C10.37375051 16.64436429 10.62411403 22.08476146 7.96484375 27.12109375 C5.26572587 30.62265209 2.6131747 33.14067828 -1.34765625 35.12109375 C-7.10879182 35.60649329 -12.48101333 35.92108357 -17.84765625 33.62109375 C-22.90242575 28.56632425 -25.63440948 24.49955218 -26.03515625 17.18359375 C-25.75518417 10.86422386 -23.67553815 6.67886314 -19.34765625 2.12109375 C-13.94292738 -2.02672143 -6.32055598 -2.36626472 0 0 Z " fill="#284E1D" transform="translate(303.34765625,140.87890625)"/>
<path d="M0 0 C5.18841336 2.74212197 8.41841991 6.60391927 11.40625 11.62890625 C12.61375265 16.82116766 11.65166577 21.61842626 9.84375 26.56640625 C7.06427693 30.78353781 3.91312442 33.68911478 -0.96875 35.31640625 C-6.43345748 35.79742668 -11.32803179 36.03235601 -16.40625 33.81640625 C-21.3573374 28.98607708 -24.24623715 24.90241526 -24.53125 17.81640625 C-24.26519922 12.63201137 -23.1647556 8.46046244 -19.96875 4.31640625 C-14.08042181 -0.37022231 -7.35375716 -2.5533879 0 0 Z " fill="#274F1D" transform="translate(301.96875,371.68359375)"/>
<path d="M0 0 C5.29141597 2.5064602 8.53850513 6.22315975 11.25 11.375 C13.03264159 17.61424557 12.03332655 22.35173677 9 28 C4.93237936 32.83717049 0.92111117 35.68133333 -5.4375 36.375 C-13.50055165 35.52625772 -17.73637625 31.8263175 -22.8125 25.875 C-25.01555868 20.54127898 -25.01555868 14.45872102 -22.8125 9.125 C-15.67995801 0.76270939 -10.91484001 -1.08879562 0 0 Z " fill="#274E1D" transform="translate(211,295)"/>
<path d="M0 0 C3.7229703 2.6592645 6.55543557 5.73587115 8.625 9.875 C9.12678565 16.32101568 9.58729274 22.45986659 5.625 27.875 C0.86617297 32.42692151 -2.67786909 34.56549317 -9.1875 35.3125 C-14.14789061 35.18122312 -17.60146629 32.9457026 -21.375 29.875 C-26.12891349 24.75540085 -26.78057693 20.53509743 -26.7265625 13.73828125 C-26.05866061 8.2985914 -23.21941405 4.55667163 -19.25 0.9375 C-13.47822516 -2.33317241 -6.14706108 -2.04902036 0 0 Z " fill="#284F1D" transform="translate(304.375,218.125)"/>
<path d="M0 0 C5.18257661 2.38334541 8.4885011 5.90291668 11 11 C12.02071339 17.17966789 12.15283163 23.26738712 8.5 28.5625 C4.56160232 32.90577969 0.43734674 35.79248216 -5.5234375 36.15234375 C-12.40585327 35.7493194 -16.65283349 33.60091425 -21.3125 28.4375 C-24.81046257 23.3848874 -24.59778309 17.93631814 -24 12 C-20.17166582 0.61902827 -10.68223722 -1.3228004 0 0 Z " fill="#284F1D" transform="translate(302,295)"/>
<path d="M0 0 C0.99 0 1.98 0 3 0 C3.66 1.65 4.32 3.3 5 5 C93.605 5.495 93.605 5.495 184 6 C184 6.33 184 6.66 184 7 C127.9 7 71.8 7 14 7 C14 7.99 14 8.98 14 10 C14.66 10 15.32 10 16 10 C16 134.74 16 259.48 16 388 C15.67 388 15.34 388 15 388 C14.67 263.92 14.34 139.84 14 12 C10.37 11.67 6.74 11.34 3 11 C-0.1875 8.5625 -0.1875 8.5625 -2 6 C-2 4 -2 4 0 2 C0 1.34 0 0.68 0 0 Z " fill="#0F2B33" transform="translate(148,108)"/>
<path d="M0 0 C0.33 0 0.66 0 1 0 C1 20.79 1 41.58 1 63 C0.34 63 -0.32 63 -1 63 C-1.268125 63.61875 -1.53625 64.2375 -1.8125 64.875 C-3 67 -3 67 -6 69 C-9.13671875 69.1953125 -9.13671875 69.1953125 -12.6875 69.125 C-13.86699219 69.10695313 -15.04648437 69.08890625 -16.26171875 69.0703125 C-17.16535156 69.04710938 -18.06898438 69.02390625 -19 69 C-19 69.66 -19 70.32 -19 71 C-19.66 71 -20.32 71 -21 71 C-21 70.34 -21 69.68 -21 69 C-21.7734375 69.2165625 -21.7734375 69.2165625 -22.5625 69.4375 C-29.3131178 70.99533488 -35.87898506 71.16534814 -42.7800293 71.20532227 C-43.84488556 71.21522186 -44.90974182 71.22512146 -46.00686646 71.23532104 C-49.52929486 71.26689211 -53.05173583 71.29172777 -56.57421875 71.31640625 C-59.05630292 71.33703026 -61.53838401 71.35802792 -64.02046204 71.37937927 C-69.90949253 71.42896179 -75.79854464 71.47415141 -81.68762475 71.51740164 C-87.60080563 71.5611395 -93.5139316 71.61054466 -99.42706108 71.66068459 C-105.80943146 71.71454697 -112.19182311 71.76563954 -118.57421875 71.81640625 C-120.43950037 71.83152189 -120.43950037 71.83152189 -122.34246445 71.8469429 C-134.45096423 71.94322925 -146.5576763 72.02454061 -158.66650391 71.95654297 C-159.53531724 71.95247279 -160.40413057 71.94840261 -161.29927158 71.9442091 C-165.21451897 71.9250913 -169.12913322 71.89626691 -173.04411316 71.84657288 C-174.35447037 71.83782639 -175.66482758 71.8290799 -177.01489258 71.82006836 C-178.13511307 71.80681015 -179.25533356 71.79355194 -180.40950012 71.77989197 C-183.16331865 71.73351683 -183.16331865 71.73351683 -185 74 C-185 72.35 -185 70.7 -185 69 C-184.19786135 68.99761165 -183.39572269 68.99522329 -182.56927681 68.99276257 C-163.0740973 68.93369125 -143.57904525 68.85819202 -124.08400154 68.76428509 C-114.65643555 68.71927127 -105.22890781 68.67986963 -95.80126953 68.65356445 C-87.58654703 68.63062947 -79.37194502 68.59728224 -71.157318 68.55129844 C-66.805535 68.52730522 -62.45387177 68.50861656 -58.10202408 68.50238609 C-54.00948958 68.49636263 -49.91726178 68.47646314 -45.82484055 68.44572449 C-44.31957372 68.43690004 -42.81426688 68.43323073 -41.30897522 68.43499184 C-39.26023925 68.43663256 -37.21151588 68.41825534 -35.16287231 68.39872742 C-34.01431826 68.39411845 -32.8657642 68.38950949 -31.68240547 68.38476086 C-30.79721167 68.25778977 -29.91201786 68.13081869 -29 68 C-28.01 66.515 -28.01 66.515 -27 65 C-22.26009904 63.12192603 -16.55410295 63.55810016 -11.53125 63.28125 C-8.82452427 63.06567007 -6.58770511 62.70573776 -4 62 C-3.01 62 -2.02 62 -1 62 C-1.00222061 61.23800797 -1.00444122 60.47601593 -1.00672913 59.69093323 C-1.02673157 52.52448288 -1.04197388 45.35804599 -1.05181217 38.19157505 C-1.05704008 34.50685502 -1.06413605 30.82215797 -1.07543945 27.13745117 C-1.08627162 23.58429169 -1.09227753 20.03115437 -1.09487724 16.47797966 C-1.0967309 15.11954334 -1.10035038 13.76110829 -1.10573006 12.40268135 C-1.11294475 10.50617777 -1.11340809 8.60965207 -1.11352539 6.71313477 C-1.115746 5.63169693 -1.11796661 4.55025909 -1.12025452 3.43605042 C-1 1 -1 1 0 0 Z " fill="#699A5F" transform="translate(355,50)"/>
<path d="M0 0 C0.85307739 0.00719055 1.70615479 0.0143811 2.58508301 0.02178955 C3.48270355 0.0214975 4.3803241 0.02120544 5.30514526 0.02090454 C8.28120488 0.0223013 11.25701618 0.03787877 14.23303223 0.05352783 C16.29283512 0.05725673 18.35263977 0.06010428 20.41244507 0.06210327 C25.84093093 0.06974943 31.26931023 0.08940634 36.69775391 0.11151123 C42.23423826 0.13194853 47.77073979 0.14110045 53.30725098 0.15118408 C64.17578745 0.17265131 75.04424474 0.20679908 85.91271973 0.24884033 C85.91271973 0.57884033 85.91271973 0.90884033 85.91271973 1.24884033 C84.85449509 1.2591478 83.79627045 1.26945526 82.70597839 1.28007507 C72.7440249 1.37773713 62.78213486 1.4804644 52.82028484 1.58817959 C47.69853057 1.64339635 42.57677058 1.69681443 37.45495605 1.74615479 C32.5141936 1.79381663 27.57350108 1.84616021 22.63282204 1.90178108 C20.74575347 1.92219636 18.85866573 1.94091082 16.97156334 1.95791435 C14.33298166 1.98197659 11.69453228 2.01202877 9.05603027 2.04351807 C7.87998985 2.05215126 7.87998985 2.05215126 6.68019104 2.06095886 C3.50156017 2.10421462 0.94997314 2.23642253 -2.08728027 3.24884033 C-1.02526291 5.47623735 -1.02526291 5.47623735 0.91271973 8.24884033 C0.69250488 11.39141846 0.69250488 11.39141846 0.07678223 15.28009033 C-1.24795391 24.43443583 -1.52720059 33.51220715 -1.71228027 42.74884033 C-1.75060708 44.36213923 -1.78966634 45.97542089 -1.82946777 47.58868408 C-1.92380356 51.4752572 -2.00838742 55.36192435 -2.08728027 59.24884033 C-3.73728027 59.24884033 -5.38728027 59.24884033 -7.08728027 59.24884033 C-8.09842687 56.21540053 -8.21976449 54.15658181 -8.23254395 50.98297119 C-8.2389238 49.90853256 -8.24530365 48.83409393 -8.25187683 47.72709656 C-8.25298965 46.56767044 -8.25410248 45.40824432 -8.25524902 44.21368408 C-8.25857742 43.02408585 -8.26190582 41.83448761 -8.26533508 40.60884094 C-8.27040031 38.09292996 -8.27274353 35.57701226 -8.27258301 33.06109619 C-8.27477341 29.19843598 -8.29294443 25.3360595 -8.31188965 21.47344971 C-8.31482278 19.03269548 -8.31680811 16.59193989 -8.31774902 14.15118408 C-8.32493454 12.98973373 -8.33212006 11.82828339 -8.33952332 10.63163757 C-8.33644669 9.5603511 -8.33337006 8.48906464 -8.3302002 7.38531494 C-8.33162521 6.43950058 -8.33305023 5.49368622 -8.33451843 4.51921082 C-7.77841429 -0.58745405 -4.30351319 0.01523042 0 0 Z " fill="#AEDBAB" transform="translate(159.0872802734375,49.75115966796875)"/>
<path d="M0 0 C5.083819 2.73019909 9.15176989 6.4299429 11.375 11.8125 C12.34707352 18.59565036 11.73216964 23.52846375 7.76171875 29.15625 C4.07906593 33.55468604 1.09393994 35.28909364 -4.734375 36.109375 C-10.0188904 36.4373794 -13.55723854 35.4142864 -17.8984375 32.37890625 C-22.35172977 28.33870218 -24.39906721 23.03417239 -25 17.125 C-24.91543371 11.37449241 -22.01864217 7.23007859 -18.0625 3.234375 C-12.38633658 -1.70388717 -7.11333306 -2.3302298 0 0 Z M-18.4375 8.8125 C-20.28019446 13.46772811 -20.26278003 17.87695223 -19.625 22.8125 C-17.75843392 26.99360801 -16.29488464 28.41314569 -12.375 30.75 C-7.68097494 32.07997377 -5.36318235 31.95883444 -0.625 30.8125 C3.64393904 28.25113658 5.64396578 25.45896027 7.375 20.8125 C8.20223542 15.22866093 6.77508462 12.09226257 3.859375 7.51171875 C1.53772189 4.8540369 -0.54469114 3.94775818 -4.02734375 3.51171875 C-10.35078202 3.48248868 -14.03292115 3.95227506 -18.4375 8.8125 Z " fill="#041103" transform="translate(256.625,411.1875)"/>
<path d="M0 0 C4.77829366 2.17957255 6.87109741 6.27326468 8.8984375 10.8515625 C10.717098 16.17878927 10.45548683 20.43473964 8.15625 25.625 C5.49906367 30.42873898 2.06825659 33.67516447 -3.21875 35.4375 C-8.96430599 36.17077774 -13.79687622 36.30944463 -18.65625 32.875 C-23.00748686 29.03304548 -25.77641656 25.59834107 -26.59375 19.7578125 C-26.85216664 13.79807863 -26.35703497 10.00022445 -22.21875 5.4375 C-21.76757812 4.87933594 -21.31640625 4.32117188 -20.8515625 3.74609375 C-15.22458274 -2.28681241 -7.6169331 -1.93105346 0 0 Z M-20.21875 9.4375 C-22.44478595 13.22176112 -22.59802518 16.03790794 -22.21875 20.4375 C-20.48793726 25.08336577 -18.51506838 27.91574791 -14.21875 30.4375 C-9.75112966 31.64317943 -6.30839934 31.80756959 -1.90625 30.3125 C1.26927111 28.09702016 2.94741923 26.89356569 4.78125 23.4375 C5.38263866 17.94982847 5.93486349 12.21538264 2.78125 7.4375 C-1.73000986 4.123105 -5.36679417 2.66352419 -11.00390625 2.9140625 C-14.98188249 3.85418387 -17.65622765 6.34259767 -20.21875 9.4375 Z " fill="#041003" transform="translate(213.21875,449.5625)"/>
<path d="M0 0 C4.3043075 3.89437345 8.28332956 7.55748988 8.828125 13.64453125 C8.96213021 20.91431384 7.71320588 25.33349232 2.625 30.6875 C-0.95393403 34.2384736 -4.25435265 34.56960088 -9.1875 34.6875 C-14.44290476 34.63678439 -17.40114201 34.05081864 -21.375 30.375 C-25.86066947 25.51552474 -27.89040294 21.21334723 -27.6875 14.4921875 C-26.90297063 9.17700104 -24.33968845 4.93241666 -20.3125 1.4375 C-14.31406392 -2.77416788 -6.58184301 -3.16903552 0 0 Z M-20.6875 8.125 C-22.58884112 11.78684215 -23.30258925 14.24758741 -23.375 18.375 C-21.88124711 23.01349581 -20.17630239 26.28644181 -16.375 29.375 C-11.3821527 31.03928243 -7.05392901 30.92388064 -2.125 29.3125 C1.33073708 26.87777615 3.38006954 24.38816093 4.625 20.375 C4.95940442 15.68518186 4.03216706 12.18933412 1.9375 8 C-1.4028262 4.20827837 -4.36297605 2.62650299 -9.375 2 C-14.44833278 2.6341666 -17.39235978 4.20645487 -20.6875 8.125 Z " fill="#040E02" transform="translate(259.375,179.625)"/>
<path d="M0 0 C4.83735148 2.61364524 8.06265925 6.09032151 9.79296875 11.28125 C10.49277661 17.26062098 10.8385684 22.67904563 7.29296875 27.78125 C3.53404288 32.01665943 -0.65728651 34.70074663 -6.28515625 35.62109375 C-12.42648568 35.91409611 -16.30450028 33.87406663 -20.89453125 30.03125 C-24.42945999 25.82755095 -26.34061777 21.71877896 -26.58203125 16.21875 C-26.00713266 10.18231477 -24.13362278 6.90605736 -19.64453125 2.96875 C-14.010264 -1.64771413 -7.00387263 -2.28090719 0 0 Z M-19.20703125 7.28125 C-22.29954742 12.12868885 -21.82781807 17.74716261 -21.20703125 23.28125 C-19.11245039 27.02157296 -17.10191481 28.66646731 -13.20703125 30.28125 C-8.850646 30.90641103 -4.27637006 31.26898174 -0.2265625 29.3359375 C2.97314208 26.82357687 4.85820264 24.20726766 5.79296875 20.28125 C6.46854173 14.20109316 5.17215879 11.16230228 1.79296875 6.28125 C-2.11477438 2.65263138 -5.36838246 2.78168508 -10.5078125 2.92578125 C-14.27495369 3.42188812 -16.43440607 4.72190368 -19.20703125 7.28125 Z " fill="#061504" transform="translate(258.20703125,256.71875)"/>
<path d="M0 0 C5.97599938 1.99199979 9.35988116 5.95406502 12.3125 11.4375 C14.0083462 17.75838128 13.01181931 23.31100796 10 29 C6.45972242 33.17571202 3.50553891 35.59079552 -1.91796875 36.4765625 C-8.29496482 36.76607965 -12.25811571 36.555209 -17.1875 32.25 C-21.24378198 28.18619245 -23.28508283 24.99080049 -23.3125 19.1875 C-23.16773597 13.71059407 -22.27748851 9.33020815 -18.3125 5.2734375 C-12.26566381 -0.04273932 -8.0391536 -0.61489277 0 0 Z M-17.375 10.75 C-19.36617451 14.73234901 -19.86437141 17.63448785 -19 22 C-16.76447692 26.30545186 -14.21886501 29.56243355 -10 32 C-5.27662709 32.87173361 -1.30164495 32.47964727 2.9375 30.1875 C6.14105566 28.17262526 6.14105566 28.17262526 8 25 C8.62976838 20.03477351 9.13384828 14.53944532 7.0546875 9.8828125 C4.57678752 6.7503729 1.8467222 4.91588624 -2 4 C-9.14075897 3.22100811 -12.76118353 5.40768619 -17.375 10.75 Z " fill="#061104" transform="translate(210,140)"/>
<path d="M0 0 C4.91042659 2.29509069 8.98651749 5.90707365 11 11 C12.30086253 16.32636627 12.41271086 20.9912548 10.22265625 26.07421875 C7.33820957 30.61745265 3.09641451 34.30119516 -2 36 C-8.44100476 36.77495324 -13.72172648 35.90496706 -19 32 C-23.45067147 26.40813071 -24.41766289 21.84414314 -24.34375 14.859375 C-23.64361552 9.03552906 -20.52869267 5.52869267 -16.5 1.5 C-11.01955997 -0.84876001 -5.85895929 -0.95029462 0 0 Z M-18.63671875 9.8046875 C-21.15960668 13.86733224 -20.59467598 18.38959071 -20 23 C-18.22696952 26.81883489 -16.70132149 28.49439614 -13.3125 30.9375 C-8.89228603 32.35530448 -5.43626229 32.41468329 -1 31 C2.31015748 28.87952668 5.22464779 26.55070443 7 23 C7.54644038 18.01933027 7.54204675 14.1041693 5.3125 9.5625 C1.66616794 5.52196988 -0.9944373 3.84561232 -6.4375 3.5625 C-11.7824137 3.74926071 -15.05901428 5.85982004 -18.63671875 9.8046875 Z " fill="#051104" transform="translate(302,449)"/>
<path d="M0 0 C5.03810178 4.03048142 8.09180044 9.66637028 8.875 16.0625 C8.32561461 21.83104656 6.21337309 27.4087287 1.9375 31.4921875 C-3.18953922 35.00420936 -8.44526444 35.99164173 -14.5 35 C-19.70747565 32.67449253 -24.4030014 29.28515448 -26.90625 24.046875 C-28.39885586 18.90131269 -28.54913204 13.678635 -26.58203125 8.65625 C-20.58835689 -1.74054437 -11.10810056 -3.17374302 0 0 Z M-20.8359375 7.578125 C-23.45231116 11.69752183 -24.13828491 15.07608787 -23.5 20 C-21.66453628 24.28274867 -18.68846156 27.86642042 -14.5 30 C-9.49453362 30.94412049 -5.66486644 30.55066414 -1.0625 28.375 C3.02639939 24.58528837 4.29978656 21.57668087 5 16.0625 C4.79330889 11.37151036 2.87267924 8.1951698 -0.5 5 C-7.66768249 0.39570282 -15.19941099 0.91977205 -20.8359375 7.578125 Z " fill="#051204" transform="translate(214.5,218)"/>
<path d="M0 0 C5.18841336 2.74212197 8.41841991 6.60391927 11.40625 11.62890625 C12.61375265 16.82116766 11.65166577 21.61842626 9.84375 26.56640625 C7.06427693 30.78353781 3.91312442 33.68911478 -0.96875 35.31640625 C-6.43345748 35.79742668 -11.32803179 36.03235601 -16.40625 33.81640625 C-21.3573374 28.98607708 -24.24623715 24.90241526 -24.53125 17.81640625 C-24.26519922 12.63201137 -23.1647556 8.46046244 -19.96875 4.31640625 C-14.08042181 -0.37022231 -7.35375716 -2.5533879 0 0 Z M-18.40625 8.81640625 C-20.60086173 13.73233652 -21.01059381 18.02292043 -19.96875 23.31640625 C-17.9682447 26.79899322 -15.58060319 29.51047965 -11.96875 31.31640625 C-7.60664121 31.81534026 -3.00772116 32.31786556 1.01953125 30.33984375 C4.57058966 27.4672754 6.65798515 24.45909006 7.4375 19.984375 C7.61761772 15.21876045 7.42717782 12.09737045 4.34375 8.31640625 C1.07115713 5.05149553 -1.74611427 3.60885832 -6.34375 3.00390625 C-11.34880682 3.59974635 -14.88447903 5.20433346 -18.40625 8.81640625 Z " fill="#051204" transform="translate(301.96875,371.68359375)"/>
<path d="M0 0 C4.90438132 2.86860039 8.49863147 6.49589442 10.3125 11.9375 C11.05425619 18.78354488 10.37344517 24.26527659 6.3125 29.9375 C0.9757753 35.01389666 -3.62695342 35.28270365 -10.73828125 35.22265625 C-14.67484117 34.84203522 -16.76872896 33.56439393 -19.6875 30.9375 C-20.43 30.31875 -21.1725 29.7 -21.9375 29.0625 C-25.40971918 24.84623385 -26.09947283 20.20145209 -25.9375 14.88671875 C-25.08228421 8.21870811 -20.40696529 4.12818038 -15.4375 0.125 C-10.20441593 -2.13474085 -5.38414772 -1.5513646 0 0 Z M-18.6875 7.9375 C-21.80179245 12.60893867 -21.28725277 17.46746566 -20.6875 22.9375 C-19.22789965 26.71232849 -17.06342387 28.68688409 -13.6875 30.9375 C-9.03230792 31.57565764 -4.00737339 31.96708191 0.36328125 30.02734375 C3.9426812 27.26507728 5.55519936 24.3130148 6.3125 19.9375 C6.44854826 15.20982311 6.01651131 11.3113269 3.0625 7.5 C-0.46178837 4.21600402 -2.80887512 3.22973054 -7.5 2.5 C-11.95494329 3.11146281 -15.19870317 5.14803406 -18.6875 7.9375 Z " fill="#041103" transform="translate(257.6875,334.0625)"/>
<path d="M0 0 C4.60728735 2.60936087 8.14287762 5.92286976 9.65234375 11.12109375 C10.37375051 16.64436429 10.62411403 22.08476146 7.96484375 27.12109375 C5.26572587 30.62265209 2.6131747 33.14067828 -1.34765625 35.12109375 C-7.10879182 35.60649329 -12.48101333 35.92108357 -17.84765625 33.62109375 C-22.90242575 28.56632425 -25.63440948 24.49955218 -26.03515625 17.18359375 C-25.75518417 10.86422386 -23.67553815 6.67886314 -19.34765625 2.12109375 C-13.94292738 -2.02672143 -6.32055598 -2.36626472 0 0 Z M-19.72265625 8.05859375 C-22.30962558 12.93403594 -22.20125365 17.72956827 -21.34765625 23.12109375 C-19.75434397 26.41477881 -17.44043258 28.29209102 -14.53515625 30.49609375 C-9.50725776 31.93263618 -5.1435443 31.84518665 -0.53515625 29.43359375 C3.45305876 26.54018286 5.16753303 24.74450879 6.0703125 19.859375 C6.39204017 15.89544735 6.29768244 13.1742865 4.1875 9.73046875 C1.49383068 6.56412595 -0.35471175 4.45207525 -4.34765625 3.12109375 C-10.86717449 2.62905464 -14.68686696 3.95044986 -19.72265625 8.05859375 Z " fill="#040F03" transform="translate(303.34765625,140.87890625)"/>
<path d="M0 0 C5.94557609 3.1351437 8.62234734 7.99690839 10.76171875 14.21875 C11.90386867 20.61478953 9.26626324 25.94348829 5.76171875 31.21875 C0.69351218 35.79249739 -4.75645593 35.56800356 -11.32421875 35.49609375 C-15.30927595 35.11681887 -17.34814121 33.96438304 -20.23828125 31.21875 C-24.90603964 25.03712402 -26.21160437 19.846887 -25.23828125 12.21875 C-23.20580478 6.72916401 -19.56676632 2.88861744 -14.4765625 0.0703125 C-9.56258208 -1.79922979 -4.94697462 -1.72669271 0 0 Z M-18.5 8.796875 C-21.15207555 12.92852955 -21.96005382 16.2565636 -21.23828125 21.21875 C-18.9690364 25.50510138 -16.48087005 28.82076503 -12.23828125 31.21875 C-7.23644035 32.03982271 -3.39722638 31.76661497 1.19921875 29.59375 C5.10451399 25.97420807 6.56971437 23.01079088 7.13671875 17.71875 C6.63367278 13.02365427 5.70492132 9.8818513 2.02734375 6.734375 C-5.2830947 1.69073917 -12.5261088 1.32488724 -18.5 8.796875 Z " fill="#051204" transform="translate(212.23828125,371.78125)"/>
<path d="M0 0 C5.18257661 2.38334541 8.4885011 5.90291668 11 11 C12.02071339 17.17966789 12.15283163 23.26738712 8.5 28.5625 C4.56160232 32.90577969 0.43734674 35.79248216 -5.5234375 36.15234375 C-12.40585327 35.7493194 -16.65283349 33.60091425 -21.3125 28.4375 C-24.81046257 23.3848874 -24.59778309 17.93631814 -24 12 C-20.17166582 0.61902827 -10.68223722 -1.3228004 0 0 Z M-18.640625 9.80078125 C-21.14235929 13.84812724 -20.49846952 18.40452072 -20 23 C-18.72190519 26.22887109 -17.51325239 27.54896002 -14.9375 29.8125 C-10.59279562 31.56886986 -6.6205761 31.66642925 -2 31 C2.40617281 28.83696971 5.1644597 26.58885076 7 22 C7.71062194 17.26252043 7.47089401 13.94178801 5.3125 9.625 C2.40542645 6.32507867 0.34201838 4.35130276 -4.109375 3.68359375 C-10.44352485 3.35413294 -14.29103587 5.02658937 -18.640625 9.80078125 Z " fill="#040F03" transform="translate(302,295)"/>
<path d="M0 0 C5.29141597 2.5064602 8.53850513 6.22315975 11.25 11.375 C13.03264159 17.61424557 12.03332655 22.35173677 9 28 C4.93237936 32.83717049 0.92111117 35.68133333 -5.4375 36.375 C-13.50055165 35.52625772 -17.73637625 31.8263175 -22.8125 25.875 C-25.01555868 20.54127898 -25.01555868 14.45872102 -22.8125 9.125 C-15.67995801 0.76270939 -10.91484001 -1.08879562 0 0 Z M-18 9 C-20.35904217 12.89754794 -20.39383683 16.51026018 -20 21 C-18.18602527 26.13959507 -15.91624028 28.63292134 -11 31 C-6.37099547 31.82630682 -2.34642478 31.49909957 1.875 29.375 C5.35344677 26.73138045 6.62552731 25.12341806 8 21 C8.559524 15.77777599 7.9224897 12.38373454 5 8 C1.51936626 4.77404678 -1.29114832 3.69876902 -5.9375 3.4375 C-11.10699567 3.65581958 -14.45390416 5.24713472 -18 9 Z " fill="#051204" transform="translate(211,295)"/>
<path d="M0 0 C3.7229703 2.6592645 6.55543557 5.73587115 8.625 9.875 C9.12678565 16.32101568 9.58729274 22.45986659 5.625 27.875 C0.86617297 32.42692151 -2.67786909 34.56549317 -9.1875 35.3125 C-14.14789061 35.18122312 -17.60146629 32.9457026 -21.375 29.875 C-26.12891349 24.75540085 -26.78057693 20.53509743 -26.7265625 13.73828125 C-26.05866061 8.2985914 -23.21941405 4.55667163 -19.25 0.9375 C-13.47822516 -2.33317241 -6.14706108 -2.04902036 0 0 Z M-21.375 8.875 C-23.37265403 12.87030807 -23.02443255 17.54346361 -22.375 21.875 C-20.40222292 25.36529792 -17.97810735 28.07344633 -14.375 29.875 C-10.01029525 30.37423094 -5.39303644 30.9018594 -1.38671875 28.86328125 C1.66382053 26.34261232 4.36790384 23.61189384 4.9609375 19.60546875 C5.04978902 13.82123463 4.59835819 10.4002135 0.625 5.875 C-3.31125292 2.33832351 -6.46225517 2.26185855 -11.60546875 2.37890625 C-15.98896052 3.16410153 -18.59471696 5.50019102 -21.375 8.875 Z " fill="#041003" transform="translate(304.375,218.125)"/>
<path d="M0 0 C1.65 0 3.3 0 5 0 C4.89171684 10.02404729 4.7789382 20.04803346 4.66066074 30.07196808 C4.60585643 34.72813361 4.55251224 39.38430568 4.50268555 44.04052734 C4.45440538 48.54692676 4.40205406 53.05326327 4.34705925 57.55958557 C4.32691952 59.26565451 4.30816585 60.97174048 4.29092598 62.67784119 C4.1805834 73.4851751 3.78885688 84.21909124 3 95 C2.34 94.67 1.68 94.34 1 94 C-1.00184492 84.00200795 -0.12856942 73.05442054 -0.09765625 62.890625 C-0.09578724 61.06931599 -0.09436562 59.24800647 -0.09336853 57.42669678 C-0.08958138 52.67243012 -0.07978432 47.91819484 -0.06866455 43.16394043 C-0.05836793 38.29679793 -0.05385337 33.42965029 -0.04882812 28.5625 C-0.03815801 19.04165301 -0.02112823 9.52082913 0 0 Z " fill="#8BC684" transform="translate(170,129)"/>
<path d="M0 0 C0.33 0 0.66 0 1 0 C2.30755782 5.96318756 2.12597009 11.89105712 2.09765625 17.9609375 C2.0962413 19.10664215 2.09482635 20.2523468 2.09336853 21.43276978 C2.0877858 25.08020678 2.07523641 28.72758165 2.0625 32.375 C2.05748277 34.85286369 2.05292025 37.33072835 2.04882812 39.80859375 C2.03782201 45.87241691 2.02110103 51.93620402 2 58 C1.01 58 0.02 58 -1 58 C-0.67 58.99 -0.34 59.98 0 61 C-1.485 61.495 -1.485 61.495 -3 62 C-3 42.2 -3 22.4 -3 2 C-2.34 2 -1.68 2 -1 2 C-0.67 1.34 -0.34 0.68 0 0 Z " fill="#000402" transform="translate(149,50)"/>
<path d="M0 0 C0.33 0 0.66 0 1 0 C1 20.79 1 41.58 1 63 C0.34 63 -0.32 63 -1 63 C-1.268125 63.61875 -1.53625 64.2375 -1.8125 64.875 C-3 67 -3 67 -6 69 C-9.13671875 69.1953125 -9.13671875 69.1953125 -12.6875 69.125 C-13.86699219 69.10695313 -15.04648437 69.08890625 -16.26171875 69.0703125 C-17.16535156 69.04710938 -18.06898438 69.02390625 -19 69 C-19 69.66 -19 70.32 -19 71 C-19.66 71 -20.32 71 -21 71 C-21 70.34 -21 69.68 -21 69 C-22.485 69.495 -22.485 69.495 -24 70 C-26.6875 69.5625 -26.6875 69.5625 -29 69 C-28.25 67.0625 -28.25 67.0625 -27 65 C-22.17844349 63.20947052 -16.60411061 63.56085649 -11.53125 63.28125 C-8.82452427 63.06567007 -6.58770511 62.70573776 -4 62 C-3.01 62 -2.02 62 -1 62 C-1.00222061 61.23800797 -1.00444122 60.47601593 -1.00672913 59.69093323 C-1.02673157 52.52448288 -1.04197388 45.35804599 -1.05181217 38.19157505 C-1.05704008 34.50685502 -1.06413605 30.82215797 -1.07543945 27.13745117 C-1.08627162 23.58429169 -1.09227753 20.03115437 -1.09487724 16.47797966 C-1.0967309 15.11954334 -1.10035038 13.76110829 -1.10573006 12.40268135 C-1.11294475 10.50617777 -1.11340809 8.60965207 -1.11352539 6.71313477 C-1.115746 5.63169693 -1.11796661 4.55025909 -1.12025452 3.43605042 C-1 1 -1 1 0 0 Z " fill="#557880" transform="translate(355,50)"/>
<path d="M0 0 C0.99 0 1.98 0 3 0 C3.66 1.65 4.32 3.3 5 5 C93.605 5.495 93.605 5.495 184 6 C184 6.33 184 6.66 184 7 C127.9 7 71.8 7 14 7 C13.67 7.99 13.34 8.98 13 10 C9.36217368 11.21260877 6.82264001 11.39544552 3 11 C0.0625 8.625 0.0625 8.625 -2 6 C-2 4 -2 4 0 2 C0 1.34 0 0.68 0 0 Z " fill="#112C0C" transform="translate(148,108)"/>
<path d="M0 0 C0.66 0 1.32 0 2 0 C2 19.8 2 39.6 2 60 C0.02 60.495 0.02 60.495 -2 61 C-3.03860697 57.88417909 -3.09982621 55.81371431 -3.0534668 52.55053711 C-3.0398259 51.43605698 -3.026185 50.32157684 -3.01213074 49.17332458 C-2.99136978 47.97015091 -2.97060883 46.76697723 -2.94921875 45.52734375 C-2.9303511 44.29335342 -2.91148346 43.0593631 -2.89204407 41.78797913 C-2.85014558 39.17786148 -2.80540657 36.56778812 -2.75805664 33.95776367 C-2.70943852 31.27585443 -2.66791374 28.59398838 -2.63305664 25.91186523 C-2.58166026 22.05429464 -2.51722137 18.1971533 -2.44921875 14.33984375 C-2.43453049 13.13464584 -2.41984222 11.92944794 -2.40470886 10.68772888 C-2.38161148 9.57640091 -2.3585141 8.46507294 -2.3347168 7.32006836 C-2.31837692 6.33872421 -2.30203705 5.35738007 -2.28520203 4.34629822 C-2 2 -2 2 0 0 Z " fill="#000203" transform="translate(352,52)"/>
<path d="M0 0 C1.21628334 -0.00262848 1.21628334 -0.00262848 2.45713806 -0.00531006 C5.14275248 -0.00971343 7.82830089 -0.00678902 10.51391602 -0.00341797 C12.40788282 -0.00409306 14.30184953 -0.00506479 16.19581604 -0.00631714 C20.1829612 -0.0077934 24.170084 -0.00564779 28.15722656 -0.00097656 C33.17386403 0.00462471 38.19044731 0.00141632 43.20708275 -0.00442886 C65.43549342 -0.02624988 87.62101716 0.1472091 109.83032227 1.12939453 C109.83032227 1.45939453 109.83032227 1.78939453 109.83032227 2.12939453 C109.23194455 2.13178288 108.63356684 2.13417124 108.01705647 2.13663197 C93.45281542 2.19578478 78.88872319 2.27133664 64.32466602 2.36510944 C57.28156341 2.41006259 50.2385113 2.44947829 43.1953125 2.47583008 C36.40008479 2.50126968 29.60509107 2.5421776 22.81000328 2.5925808 C20.21566242 2.60928444 17.62128267 2.62077686 15.02689552 2.62700844 C11.39708447 2.63661119 7.76785273 2.66462601 4.13818359 2.69702148 C3.06212357 2.6955864 1.98606354 2.69415131 0.87739563 2.69267273 C-4.33586346 2.75860905 -7.89771721 2.81778676 -12.16967773 6.12939453 C-13.15967773 6.45939453 -14.14967773 6.78939453 -15.16967773 7.12939453 C-14.50967773 5.14939453 -13.84967773 3.16939453 -13.16967773 1.12939453 C-8.777932 0.04345837 -4.49506421 -0.01200787 0 0 Z " fill="#48656F" transform="translate(161.169677734375,42.87060546875)"/>
<path d="M0 0 C0.33 0.99 0.66 1.98 1 3 C2.65 3.33 4.3 3.66 6 4 C6 4.66 6 5.32 6 6 C64.74 6 123.48 6 184 6 C184 6.66 184 7.32 184 8 C123.94 8 63.88 8 2 8 C0 4 0 4 0 0 Z " fill="#6CA15F" transform="translate(151,106)"/>
<path d="M0 0 C0.99 1.485 0.99 1.485 2 3 C2.66 3 3.32 3 4 3 C4 19.17 4 35.34 4 52 C2.68 52 1.36 52 0 52 C0 34.84 0 17.68 0 0 Z " fill="#A4E49F" transform="translate(175,448)"/>
<path d="M0 0 C15.18 0 30.36 0 46 0 C46.495 1.485 46.495 1.485 47 3 C31.82 3 16.64 3 1 3 C0.67 2.01 0.34 1.02 0 0 Z " fill="#B6E8B4" transform="translate(301,50)"/>
<path d="M0 0 C5.38227973 2.00695177 8.25403554 3.60626255 11 8.75 C13.06673592 13.40879602 13.46687196 16.95778283 13 22 C12.67 22 12.34 22 12 22 C12 19.69 12 17.38 12 15 C11.34 15 10.68 15 10 15 C9.67 17.31 9.34 19.62 9 22 C8.67 22 8.34 22 8 22 C7.93941406 21.32453125 7.87882813 20.6490625 7.81640625 19.953125 C7.73261719 19.06109375 7.64882812 18.1690625 7.5625 17.25 C7.48128906 16.36828125 7.40007812 15.4865625 7.31640625 14.578125 C7.03509042 12.28592195 6.73153627 10.18969917 6 8 C4.13355094 6.81669817 4.13355094 6.81669817 2 6 C1.01 5.34 0.02 4.68 -1 4 C-0.67 2.68 -0.34 1.36 0 0 Z " fill="#050F03" transform="translate(210,449)"/>
<path d="M0 0 C0.99 0 1.98 0 3 0 C3.144375 0.78375 3.28875 1.5675 3.4375 2.375 C4.71536857 5.15156763 4.71536857 5.15156763 7.13671875 5.77734375 C9.41974691 6.26835609 11.68695927 6.68112401 14 7 C13.67 7.99 13.34 8.98 13 10 C9.36217368 11.21260877 6.82264001 11.39544552 3 11 C0.0625 8.625 0.0625 8.625 -2 6 C-2 4 -2 4 0 2 C0 1.34 0 0.68 0 0 Z " fill="#020405" transform="translate(148,108)"/>
<path d="M0 0 C0.66 0 1.32 0 2 0 C2 6.6 2 13.2 2 20 C0.68 20 -0.64 20 -2 20 C-2.02687279 18.18757948 -2.04633715 16.37504767 -2.0625 14.5625 C-2.07410156 13.55316406 -2.08570313 12.54382813 -2.09765625 11.50390625 C-2 9 -2 9 -1 8 C-0.76924918 6.65252916 -0.58846937 5.29622435 -0.4375 3.9375 C-0.293125 2.638125 -0.14875 1.33875 0 0 Z " fill="#C1ECBF" transform="translate(154,88)"/>
<path d="M0 0 C0.99 0.33 1.98 0.66 3 1 C3 14.86 3 28.72 3 43 C2.67 43 2.34 43 2 43 C1.67 29.8 1.34 16.6 1 3 C-0.32 2.67 -1.64 2.34 -3 2 C-2.01 1.34 -1.02 0.68 0 0 Z " fill="#0C313A" transform="translate(161,117)"/>
<path d="M0 0 C10.23 0 20.46 0 31 0 C31 0.33 31 0.66 31 1 C30.26885986 1.01458252 29.53771973 1.02916504 28.78442383 1.04418945 C25.45992629 1.1188291 22.13641533 1.21543801 18.8125 1.3125 C17.66201172 1.33505859 16.51152344 1.35761719 15.32617188 1.38085938 C14.21435547 1.41630859 13.10253906 1.45175781 11.95703125 1.48828125 C10.42526245 1.52755737 10.42526245 1.52755737 8.86254883 1.56762695 C5.60414676 2.05979156 3.7269725 3.19725924 1 5 C0.01 5.33 -0.98 5.66 -2 6 C-1.34 4.02 -0.68 2.04 0 0 Z " fill="#00070E" transform="translate(148,44)"/>
<path d="M0 0 C10.6744186 -0.20930233 10.6744186 -0.20930233 14 1 C15.0625 2.8125 15.0625 2.8125 16 5 C17.31266518 6.35368596 18.64567325 7.68799596 20 9 C22 12 22 12 21.625 14.1875 C21.315625 15.0846875 21.315625 15.0846875 21 16 C19 14 19 14 17.1875 10.625 C15.22044332 7.18443905 13.4906823 5.04887874 10 3 C6.69469994 2.11147848 3.38437203 1.49944131 0 1 C0 0.67 0 0.34 0 0 Z " fill="#7CB270" transform="translate(248,177)"/>
<path d="M0 0 C1.65 0 3.3 0 5 0 C4.625 2.4375 4.625 2.4375 4 5 C3.01 5.495 3.01 5.495 2 6 C1.67 14.25 1.34 22.5 1 31 C0.67 31 0.34 31 0 31 C0 20.77 0 10.54 0 0 Z " fill="#8BBB83" transform="translate(170,129)"/>
<path d="M0 0 C0 1.32 0 2.64 0 4 C0.33 3.01 0.66 2.02 1 1 C1.99 1.33 2.98 1.66 4 2 C4 3.65 4 5.3 4 7 C3.01 7.495 3.01 7.495 2 8 C0.16015625 7.07421875 0.16015625 7.07421875 -1.9375 5.6875 C-2.97197266 5.01267578 -2.97197266 5.01267578 -4.02734375 4.32421875 C-4.67832031 3.88722656 -5.32929688 3.45023438 -6 3 C-6.99 2.34 -7.98 1.68 -9 1 C-5.92677456 0.08941469 -3.19902639 -0.08886184 0 0 Z " fill="#81B473" transform="translate(307,138)"/>
<path d="M0 0 C0.66 0.33 1.32 0.66 2 1 C1.67 1.99 1.34 2.98 1 4 C0.48234702 10.34124904 0.43069331 15.49731886 4 21 C3.01 21.33 2.02 21.66 1 22 C-1.58902299 14.34080699 -3.72635622 7.68560971 0 0 Z " fill="#79AC70" transform="translate(187,303)"/>
<path d="M0 0 C4.29 0 8.58 0 13 0 C9.72220127 3.27779873 9.1639187 3.40494034 4.8125 3.6875 C3.91144531 3.75324219 3.01039063 3.81898437 2.08203125 3.88671875 C1.05142578 3.94279297 1.05142578 3.94279297 0 4 C0 2.68 0 1.36 0 0 Z " fill="#5A9749" transform="translate(156,109)"/>
<path d="M0 0 C0.33 0 0.66 0 1 0 C1 10.23 1 20.46 1 31 C-0.32 31.33 -1.64 31.66 -3 32 C-2.51781006 31.21157715 -2.51781006 31.21157715 -2.02587891 30.40722656 C-0.71894784 27.34051063 -0.676765 24.81471656 -0.5859375 21.484375 C-0.54726563 20.23398438 -0.50859375 18.98359375 -0.46875 17.6953125 C-0.4378125 16.39335938 -0.406875 15.09140625 -0.375 13.75 C-0.33632813 12.43257812 -0.29765625 11.11515625 -0.2578125 9.7578125 C-0.16353818 6.50534839 -0.0779325 3.25289004 0 0 Z " fill="#6AA65C" transform="translate(347,82)"/>
<path d="M0 0 C0.66 0 1.32 0 2 0 C1.88617347 1.95901454 1.75858875 3.9172338 1.625 5.875 C1.55539063 6.96554687 1.48578125 8.05609375 1.4140625 9.1796875 C1 12 1 12 -1 14 C-2.16983345 11.6603331 -2.1661241 10.16608473 -2.1875 7.5625 C-2.20167969 6.78003906 -2.21585938 5.99757813 -2.23046875 5.19140625 C-2 3 -2 3 0 0 Z " fill="#000700" transform="translate(190,381)"/>
<path d="M0 0 C0.99 0 1.98 0 3 0 C3.66 1.98 4.32 3.96 5 6 C3.68 6.33 2.36 6.66 1 7 C1.99 7.33 2.98 7.66 4 8 C4.33 8.99 4.66 9.98 5 11 C2.625 10.3125 2.625 10.3125 0 9 C-1.3125 6.375 -1.3125 6.375 -2 4 C-1.34 3.34 -0.68 2.68 0 2 C0 1.34 0 0.68 0 0 Z " fill="#182B28" transform="translate(148,108)"/>
<path d="M0 0 C1.38658473 2.55984874 2.41465165 5.1356457 3.375 7.875 C4.77209798 11.70089908 6.61398884 14.70895013 9 18 C6.64453125 17.7890625 6.64453125 17.7890625 4 17 C0.56726854 11.86565666 -0.52697546 6.06021774 0 0 Z " fill="#7FB175" transform="translate(185,232)"/>
<path d="M0 0 C-0.33 0.66 -0.66 1.32 -1 2 C-0.01 2.33 0.98 2.66 2 3 C-2.43076923 6.07692308 -2.43076923 6.07692308 -5.3125 5.6875 C-5.869375 5.460625 -6.42625 5.23375 -7 5 C-6.67 4.67 -6.34 4.34 -6 4 C-7.65 3.67 -9.3 3.34 -11 3 C-11 2.67 -11 2.34 -11 2 C-9.54494642 1.47007308 -8.08581873 0.9513211 -6.625 0.4375 C-5.81289063 0.14746094 -5.00078125 -0.14257812 -4.1640625 -0.44140625 C-2 -1 -2 -1 0 0 Z " fill="#081705" transform="translate(305,170)"/>
<path d="M0 0 C0.99 0.99 1.98 1.98 3 3 C1.02 5.31 -0.96 7.62 -3 10 C-3.99 9.34 -4.98 8.68 -6 8 C-4.68 7.01 -3.36 6.02 -2 5 C-2.33 4.34 -2.66 3.68 -3 3 C-2.01 2.01 -1.02 1.02 0 0 Z " fill="#081606" transform="translate(263,435)"/>
<path d="M0 0 C5.72398793 0.74660712 11.34853777 1.82877141 17 3 C17 3.33 17 3.66 17 4 C11.31150252 5.49697302 6.58190932 4.3348044 1 3 C0.67 2.01 0.34 1.02 0 0 Z " fill="#7DB573" transform="translate(239,290)"/>
<path d="M0 0 C0.66 0 1.32 0 2 0 C2 0.66 2 1.32 2 2 C3.98 2 5.96 2 8 2 C5.47764868 3.68156755 2.96413358 5.16468006 0.3125 6.625 C-0.49574219 7.07101563 -1.30398438 7.51703125 -2.13671875 7.9765625 C-2.75160156 8.31429687 -3.36648438 8.65203125 -4 9 C-3.6875 6.125 -3.6875 6.125 -3 3 C-2.01 2.34 -1.02 1.68 0 1 C0 0.67 0 0.34 0 0 Z " fill="#86B878" transform="translate(285,137)"/>
<path d="M0 0 C3.63 0 7.26 0 11 0 C11.33 1.32 11.66 2.64 12 4 C9.69 4 7.38 4 5 4 C4.67 3.01 4.34 2.02 4 1 C2.02 1.99 2.02 1.99 0 3 C0 2.01 0 1.02 0 0 Z " fill="#031701" transform="translate(162,115)"/>
<path d="M0 0 C2.68433048 2.45091043 3.91789741 4.28241384 4.09765625 8.04296875 C4.06510417 10.02864583 4.03255208 12.01432292 4 14 C3.67 14 3.34 14 3 14 C3 11.69 3 9.38 3 7 C2.34 7 1.68 7 1 7 C0.67 9.31 0.34 11.62 0 14 C-0.33 14 -0.66 14 -1 14 C-1.18451025 4.58997722 -1.18451025 4.58997722 0 0 Z " fill="#142B11" transform="translate(219,457)"/>
<path d="M0 0 C0.33 0.66 0.66 1.32 1 2 C0.67 2.66 0.34 3.32 0 4 C-0.09555417 5.45579587 -0.12984691 6.9160796 -0.125 8.375 C-0.12757813 9.14585937 -0.13015625 9.91671875 -0.1328125 10.7109375 C-0.00200419 12.96545724 0.26061368 14.86607493 1 17 C2.96672915 18.1500831 2.96672915 18.1500831 5 19 C5.33 19.66 5.66 20.32 6 21 C3.06692685 20.12800528 1.29276934 19.31296033 -0.8125 17.0625 C-2.59056454 12.47696513 -2.57969813 7.86344143 -2 3 C-1.34 2.01 -0.68 1.02 0 0 Z " fill="#2C4A22" transform="translate(239,420)"/>
<path d="M0 0 C-0.33 1.32 -0.66 2.64 -1 4 C-2.27875 4.061875 -3.5575 4.12375 -4.875 4.1875 C-5.59429687 4.22230469 -6.31359375 4.25710938 -7.0546875 4.29296875 C-7.69664062 4.19628906 -8.33859375 4.09960938 -9 4 C-9.66 3.01 -10.32 2.02 -11 1 C-7.26513121 0.4254048 -3.78706732 0 0 0 Z " fill="#000900" transform="translate(257,287)"/>
<path d="M0 0 C1.89492188 0.01353516 1.89492188 0.01353516 3.828125 0.02734375 C4.79234375 0.03894531 5.7565625 0.05054687 6.75 0.0625 C6.75 0.3925 6.75 0.7225 6.75 1.0625 C-1.17 1.5575 -1.17 1.5575 -9.25 2.0625 C-8.92 3.0525 -8.59 4.0425 -8.25 5.0625 C-9.9 5.0625 -11.55 5.0625 -13.25 5.0625 C-12.5 3.125 -12.5 3.125 -11.25 1.0625 C-7.61867645 -0.3341629 -3.83809586 -0.03553792 0 0 Z " fill="#041B02" transform="translate(339.25,113.9375)"/>
<path d="M0 0 C0.33 0.99 0.66 1.98 1 3 C2.65 3.33 4.3 3.66 6 4 C6 4.66 6 5.32 6 6 C7.65 6.33 9.3 6.66 11 7 C11 7.33 11 7.66 11 8 C8.03 8 5.06 8 2 8 C0 4 0 4 0 0 Z " fill="#649257" transform="translate(151,106)"/>
<path d="M0 0 C0.66 0.33 1.32 0.66 2 1 C1.01 2.485 1.01 2.485 0 4 C0.33 4.66 0.66 5.32 1 6 C0.01 7.32 -0.98 8.64 -2 10 C-2 9.01 -2 8.02 -2 7 C-2.66 7 -3.32 7 -4 7 C-4.33 7.99 -4.66 8.98 -5 10 C-5.33 9.34 -5.66 8.68 -6 8 C-2.25 2.25 -2.25 2.25 0 0 Z " fill="#081D07" transform="translate(194,374)"/>
<path d="M0 0 C0.66 0.66 1.32 1.32 2 2 C1 3 1 3 -1.06640625 3.09765625 C-1.89011719 3.08605469 -2.71382812 3.07445312 -3.5625 3.0625 C-4.38878906 3.05347656 -5.21507812 3.04445312 -6.06640625 3.03515625 C-6.70449219 3.02355469 -7.34257812 3.01195312 -8 3 C-7.67 2.01 -7.34 1.02 -7 0 C-4.29393021 -1.35303489 -2.8671629 -0.7884698 0 0 Z " fill="#000300" transform="translate(208,141)"/>
<path d="M0 0 C0.99 0.33 1.98 0.66 3 1 C3 3.64 3 6.28 3 9 C1.68 9.33 0.36 9.66 -1 10 C-0.67 6.7 -0.34 3.4 0 0 Z " fill="#000800" transform="translate(219,463)"/>
<path d="M0 0 C0.66 0 1.32 0 2 0 C5.44419134 9.41002278 5.44419134 9.41002278 5 14 C4.01 14.33 3.02 14.66 2 15 C2.04125 14.01 2.0825 13.02 2.125 12 C2.1423348 7.76164134 1.14191162 4.06806015 0 0 Z " fill="#7AB172" transform="translate(311,456)"/>
<path d="M0 0 C2.61125422 0.95745988 3.79164659 1.65621688 5.25 4.0625 C6.2734742 8.07110729 6.16131784 11.8863951 6 16 C5.67 16 5.34 16 5 16 C4.89042969 15.40832031 4.78085937 14.81664062 4.66796875 14.20703125 C3.732075 9.54278029 2.67286745 6.00930117 0 2 C0 1.34 0 0.68 0 0 Z " fill="#7CB272" transform="translate(309,376)"/>
<path d="M0 0 C0.66 0 1.32 0 2 0 C2 1.32 2 2.64 2 4 C0.68 4.33 -0.64 4.66 -2 5 C-2 5.99 -2 6.98 -2 8 C-3.65 8.66 -5.3 9.32 -7 10 C-5.32598022 6.04322598 -2.86850715 3.15535787 0 0 Z " fill="#7DB670" transform="translate(312,242)"/>
<path d="M0 0 C0.66 0.33 1.32 0.66 2 1 C2 3.64 2 6.28 2 9 C1.01 9.33 0.02 9.66 -1 10 C-1.125 2.25 -1.125 2.25 0 0 Z " fill="#000601" transform="translate(234,268)"/>
<path d="M0 0 C1.45880109 0.14107747 2.91703551 0.28802415 4.375 0.4375 C5.59316406 0.55931641 5.59316406 0.55931641 6.8359375 0.68359375 C9 1 9 1 11 2 C11.625 4.0625 11.625 4.0625 12 6 C7.96479403 4.41037341 3.98188718 2.71767682 0 1 C0 0.67 0 0.34 0 0 Z " fill="#7EB072" transform="translate(206,138)"/>
<path d="M0 0 C-2.475 3.465 -2.475 3.465 -5 7 C-7 3.25 -7 3.25 -7 1 C-3.375 -1.125 -3.375 -1.125 0 0 Z " fill="#72B066" transform="translate(218,328)"/>
<path d="M0 0 C-1.21236328 0.18175781 -1.21236328 0.18175781 -2.44921875 0.3671875 C-3.51785156 0.53476562 -4.58648437 0.70234375 -5.6875 0.875 C-6.74324219 1.03742188 -7.79898437 1.19984375 -8.88671875 1.3671875 C-11.79794914 1.95893069 -14.28955607 2.8031806 -17 4 C-16.37109375 2.0859375 -16.37109375 2.0859375 -15 0 C-12.28515625 -0.8984375 -12.28515625 -0.8984375 -9.0625 -1.375 C-7.47115234 -1.63410156 -7.47115234 -1.63410156 -5.84765625 -1.8984375 C-3 -2 -3 -2 0 0 Z " fill="#80B776" transform="translate(301,294)"/>
<path d="M0 0 C0.556875 0.226875 1.11375 0.45375 1.6875 0.6875 C0.6975 1.1825 0.6975 1.1825 -0.3125 1.6875 C-0.3125 2.6775 -0.3125 3.6675 -0.3125 4.6875 C-1.6325 5.0175 -2.9525 5.3475 -4.3125 5.6875 C-4.3125 5.0275 -4.3125 4.3675 -4.3125 3.6875 C-5.3025 3.3575 -6.2925 3.0275 -7.3125 2.6875 C-2.88173077 -0.38942308 -2.88173077 -0.38942308 0 0 Z " fill="#0A1C07" transform="translate(201.3125,140.3125)"/>
<path d="M0 0 C0.33 0.99 0.66 1.98 1 3 C0.67 3.33 0.34 3.66 0 4 C-0.23701239 6.85877909 -0.42219182 9.69883297 -0.5625 12.5625 C-0.60568359 13.36880859 -0.64886719 14.17511719 -0.69335938 15.00585938 C-0.79975262 17.00368805 -0.90040888 19.0018207 -1 21 C-1.33 21 -1.66 21 -2 21 C-2.05791844 17.87507749 -2.09356746 14.75029234 -2.125 11.625 C-2.14175781 10.73554688 -2.15851563 9.84609375 -2.17578125 8.9296875 C-2.18222656 8.07890625 -2.18867188 7.228125 -2.1953125 6.3515625 C-2.20578613 5.56604004 -2.21625977 4.78051758 -2.22705078 3.97119141 C-2 2 -2 2 0 0 Z " fill="#7DBE75" transform="translate(181,131)"/>
<path d="M0 0 C0.66 0 1.32 0 2 0 C2 3.3 2 6.6 2 10 C0.68 10.33 -0.64 10.66 -2 11 C-1.34 7.37 -0.68 3.74 0 0 Z " fill="#B8E7B5" transform="translate(154,88)"/>
<path d="M0 0 C6.15234375 -0.09765625 6.15234375 -0.09765625 8 0 C9 1 9 1 9 6 C6.03 4.35 3.06 2.7 0 1 C0 0.67 0 0.34 0 0 Z " fill="#75AD6B" transform="translate(300,371)"/>
<path d="M0 0 C1.11375 0.3403125 1.11375 0.3403125 2.25 0.6875 C0.6 2.3375 -1.05 3.9875 -2.75 5.6875 C-4.07 4.6975 -5.39 3.7075 -6.75 2.6875 C-4.29511132 0.41445492 -3.41240272 -0.38777304 0 0 Z " fill="#071B05" transform="translate(262.75,361.3125)"/>
<path d="M0 0 C1.2065625 0.0309375 1.2065625 0.0309375 2.4375 0.0625 C2.7675 1.0525 3.0975 2.0425 3.4375 3.0625 C1.1275 3.3925 -1.1825 3.7225 -3.5625 4.0625 C-3.5625 0.08689024 -3.5625 0.08689024 0 0 Z " fill="#010900" transform="translate(243.5625,334.9375)"/>
<path d="M0 0 C2.56995074 1.28497537 2.90434463 2.49912373 4.125 5.0625 C4.47820312 5.79597656 4.83140625 6.52945312 5.1953125 7.28515625 C5.46085937 7.85105469 5.72640625 8.41695313 6 9 C5.01 9.33 4.02 9.66 3 10 C2.67 9.01 2.34 8.02 2 7 C1.01 7.495 1.01 7.495 0 8 C0 5.36 0 2.72 0 0 Z " fill="#75AC6B" transform="translate(277,317)"/>
<path d="M0 0 C0.33 0 0.66 0 1 0 C1.39141851 3.42491198 1.13357065 4.79010327 -0.75 7.75 C-3.06501562 10.06501562 -3.92891893 10.40642971 -7 11 C-6.66226562 10.54109375 -6.32453125 10.0821875 -5.9765625 9.609375 C-2.63691049 5.01807574 -2.63691049 5.01807574 0 0 Z " fill="#7DB372" transform="translate(313,163)"/>
<path d="M0 0 C0.94875 0.04125 1.8975 0.0825 2.875 0.125 C-1.875 5 -1.875 5 -4.125 6.125 C-4.75 4.25 -4.75 4.25 -5.125 2.125 C-3.125 0.125 -3.125 0.125 0 0 Z " fill="#74AC6B" transform="translate(240.125,410.875)"/>
<path d="M0 0 C0.99 1.32 1.98 2.64 3 4 C1.6875 6 1.6875 6 0 8 C-0.99 8 -1.98 8 -3 8 C-2.37240135 5.07120629 -1.41377341 2.63904371 0 0 Z " fill="#0B1C07" transform="translate(282,376)"/>
<path d="M0 0 C3.86107457 2.57404971 3.94319692 4.61020259 5 9 C4.01 9.495 4.01 9.495 3 10 C-0.875 4.25 -0.875 4.25 -2 2 C-1.34 2 -0.68 2 0 2 C0 1.34 0 0.68 0 0 Z " fill="#75AD6B" transform="translate(309,218)"/>
<path d="M0 0 C0.99 0.33 1.98 0.66 3 1 C2.3125 3.4375 2.3125 3.4375 1 6 C-1.625 6.8125 -1.625 6.8125 -4 7 C-2.92598892 4.08482708 -2.22189824 2.22189824 0 0 Z " fill="#091B06" transform="translate(284,143)"/>
<path d="M0 0 C0.8353125 0.37125 0.8353125 0.37125 1.6875 0.75 C1.048125 1.018125 0.40875 1.28625 -0.25 1.5625 C-2.64381686 2.63667752 -2.64381686 2.63667752 -3.3125 5.75 C-4.6325 5.09 -5.9525 4.43 -7.3125 3.75 C-2.88173077 -0.31153846 -2.88173077 -0.31153846 0 0 Z " fill="#7CB573" transform="translate(309.3125,480.25)"/>
<path d="M0 0 C0.33 0 0.66 0 1 0 C1.49230769 7.26153846 1.49230769 7.26153846 -1 11 C-1.66 11.66 -2.32 12.32 -3 13 C-3.66 12.67 -4.32 12.34 -5 12 C-4.319375 10.9790625 -4.319375 10.9790625 -3.625 9.9375 C-1.83163514 6.69564814 -0.91246131 3.5796559 0 0 Z " fill="#2F4B29" transform="translate(308,464)"/>
<path d="M0 0 C0.66 0.66 1.32 1.32 2 2 C0.68 4.31 -0.64 6.62 -2 9 C-2.66 8.67 -3.32 8.34 -4 8 C-3.67 7.34 -3.34 6.68 -3 6 C-3.66 5.67 -4.32 5.34 -5 5 C-3.625 3.5 -3.625 3.5 -2 2 C-1.34 2 -0.68 2 0 2 C0 1.34 0 0.68 0 0 Z " fill="#81B875" transform="translate(281,374)"/>
<path d="M0 0 C1.99609375 0.0859375 1.99609375 0.0859375 4.4375 0.375 C5.64212891 0.51035156 5.64212891 0.51035156 6.87109375 0.6484375 C9 1 9 1 11 2 C10.67 2.66 10.34 3.32 10 4 C8.54077307 3.88590407 7.08259402 3.75834456 5.625 3.625 C4.40683594 3.52058594 4.40683594 3.52058594 3.1640625 3.4140625 C1 3 1 3 -1 1 C-0.67 0.67 -0.34 0.34 0 0 Z " fill="#26421F" transform="translate(247,337)"/>
<path d="M0 0 C-1.65 1.32 -3.3 2.64 -5 4 C-7.475 3.01 -7.475 3.01 -10 2 C-3.75 -1.125 -3.75 -1.125 0 0 Z " fill="#0A1E07" transform="translate(310,324)"/>
<path d="M0 0 C2.96175123 0.61277612 4.38058783 1.25372522 7 3 C6.67 4.65 6.34 6.3 6 8 C3.87961365 5.38485683 1.86908256 2.80362384 0 0 Z " fill="#7CB472" transform="translate(262,259)"/>
<path d="M0 0 C2.64 0 5.28 0 8 0 C7.67 0.99 7.34 1.98 7 3 C5.02 3 3.04 3 1 3 C0.67 2.01 0.34 1.02 0 0 Z " fill="#010402" transform="translate(292,481)"/>
<path d="M0 0 C1.5 1.375 1.5 1.375 3 3 C3 3.66 3 4.32 3 5 C4.65 5 6.3 5 8 5 C8 5.33 8 5.66 8 6 C4.63295715 6.2295711 2.58629732 6.33943529 -0.375 4.625 C-0.91125 4.08875 -1.4475 3.5525 -2 3 C-2 2.34 -2 1.68 -2 1 C-1.34 0.67 -0.68 0.34 0 0 Z " fill="#2C4A24" transform="translate(197,474)"/>
<path d="M0 0 C2.72426311 2.35277269 3.8141763 4.62496331 5 8 C4.34 8 3.68 8 3 8 C2.34 8.66 1.68 9.32 1 10 C0.0604059 6.47652211 0 3.68770169 0 0 Z " fill="#0A1E07" transform="translate(217,376)"/>
<path d="M0 0 C0.66 0 1.32 0 2 0 C4 3 4 3 3.625 5.1875 C3.41875 5.785625 3.2125 6.38375 3 7 C2.01 6.67 1.02 6.34 0 6 C0 4.02 0 2.04 0 0 Z " fill="#010C00" transform="translate(235,278)"/>
<path d="M0 0 C0.99 0 1.98 0 3 0 C2.75 1.875 2.75 1.875 2 4 C-0.0625 5.25 -0.0625 5.25 -2 6 C-1.125 1.125 -1.125 1.125 0 0 Z " fill="#182F30" transform="translate(351,112)"/>
<path d="M0 0 C1.65 0 3.3 0 5 0 C3.38405168 2.04119788 1.7143618 4.04072937 0 6 C-0.66 6 -1.32 6 -2 6 C-1.34 4.02 -0.68 2.04 0 0 Z " fill="#75A86C" transform="translate(191,450)"/>
<path d="M0 0 C0 0.99 0 1.98 0 3 C-1.98 3.99 -1.98 3.99 -4 5 C-4 5.66 -4 6.32 -4 7 C-5.32 7.33 -6.64 7.66 -8 8 C-7.04578192 6.85073734 -6.08647955 5.70569459 -5.125 4.5625 C-4.59132813 3.92441406 -4.05765625 3.28632813 -3.5078125 2.62890625 C-2 1 -2 1 0 0 Z " fill="#7FB973" transform="translate(267,438)"/>
<path d="M0 0 C-0.25 1.875 -0.25 1.875 -1 4 C-3.0625 5.25 -3.0625 5.25 -5 6 C-5 4.68 -5 3.36 -5 2 C-2 0 -2 0 0 0 Z " fill="#7AB26F" transform="translate(264,287)"/>
<path d="M0 0 C0.99386719 0.00902344 1.98773438 0.01804688 3.01171875 0.02734375 C4.15060547 0.04474609 4.15060547 0.04474609 5.3125 0.0625 C1.80136112 2.40325925 -0.5070491 2.76913502 -4.6875 3.0625 C-7.125 2.125 -7.125 2.125 -8.6875 1.0625 C-5.53819107 0.01273036 -3.29935544 -0.03881595 0 0 Z " fill="#0C1F0A" transform="translate(250.6875,177.9375)"/>
<path d="M0 0 C0.99 0.33 1.98 0.66 3 1 C3 4.63 3 8.26 3 12 C2.67 12 2.34 12 2 12 C1.67 9.03 1.34 6.06 1 3 C-0.32 2.67 -1.64 2.34 -3 2 C-2.01 1.34 -1.02 0.68 0 0 Z " fill="#2C4344" transform="translate(161,117)"/>
<path d="M0 0 C2.91517292 1.07401108 4.77810176 1.77810176 7 4 C6.67 5.32 6.34 6.64 6 8 C4.02 5.36 2.04 2.72 0 0 Z " fill="#7DB271" transform="translate(306,297)"/>
<path d="M0 0 C0.66 0.99 1.32 1.98 2 3 C-3.53846154 3.36923077 -3.53846154 3.36923077 -5.875 1.5 C-6.24625 1.005 -6.6175 0.51 -7 0 C-3.98968256 -0.93423645 -3.13349732 -1.04449911 0 0 Z " fill="#2E5224" transform="translate(249,284)"/>
<path d="M0 0 C2.31 0.66 4.62 1.32 7 2 C6.67 3.32 6.34 4.64 6 6 C2.26360784 4.75453595 1.81243487 3.36595047 0 0 Z " fill="#020801" transform="translate(258,261)"/>
<path d="M0 0 C1.65 0 3.3 0 5 0 C4.34 1.98 3.68 3.96 3 6 C1.68 4.68 0.36 3.36 -1 2 C-0.67 1.34 -0.34 0.68 0 0 Z " fill="#071A04" transform="translate(263,200)"/>
<path d="M0 0 C2 1 2 1 4 4 C1.36 4.66 -1.28 5.32 -4 6 C-2.84826645 3.53199953 -1.95216435 1.95216435 0 0 Z " fill="#0E1F0D" transform="translate(240,180)"/>
<path d="M0 0 C0.268125 0.598125 0.53625 1.19625 0.8125 1.8125 C1.88236968 4.03033235 1.88236968 4.03033235 3.5625 5.5625 C5 7 5 7 6 10 C2.83884224 8.63016497 2.0072908 8.0109362 0 5 C-0.125 2.3125 -0.125 2.3125 0 0 Z " fill="#304D27" transform="translate(282,159)"/>
<path d="M0 0 C1.32 0.33 2.64 0.66 4 1 C4 1.99 4 2.98 4 4 C1.03 3.505 1.03 3.505 -2 3 C-1.34 2.01 -0.68 1.02 0 0 Z " fill="#000900" transform="translate(253,334)"/>
<path d="M0 0 C0.33 0 0.66 0 1 0 C1.144375 1.11375 1.28875 2.2275 1.4375 3.375 C1.78372035 6.82142047 1.78372035 6.82142047 3 9 C2.67 9.66 2.34 10.32 2 11 C1.01 11 0.02 11 -1 11 C-0.67 7.37 -0.34 3.74 0 0 Z " fill="#659159" transform="translate(313,231)"/>
<path d="M0 0 C2.97 0.33 5.94 0.66 9 1 C5 3 5 3 2 3 C1.34 3.66 0.68 4.32 0 5 C0 3.35 0 1.7 0 0 Z " fill="#74A568" transform="translate(170,119)"/>
<path d="M0 0 C0.99 0.33 1.98 0.66 3 1 C2.01 3.97 1.02 6.94 0 10 C-0.33 10 -0.66 10 -1 10 C-0.67 6.7 -0.34 3.4 0 0 Z " fill="#7CB376" transform="translate(187,455)"/>
<path d="M0 0 C1.65 0.33 3.3 0.66 5 1 C5 1.99 5 2.98 5 4 C2.69 4.33 0.38 4.66 -2 5 C-0.68 3.68 0.64 2.36 2 1 C1.34 0.67 0.68 0.34 0 0 Z " fill="#061804" transform="translate(254,209)"/>
<path d="M0 0 C1.0625 1.8125 1.0625 1.8125 2 4 C1.67 4.99 1.34 5.98 1 7 C0.01 7.33 -0.98 7.66 -2 8 C-1.125 2.25 -1.125 2.25 0 0 Z " fill="#7CB16F" transform="translate(268,199)"/>
<path d="M0 0 C0.33 0 0.66 0 1 0 C1.36923077 7.50769231 1.36923077 7.50769231 -0.5 10 C-0.995 10.33 -1.49 10.66 -2 11 C-1.40049704 7.31733897 -0.75241109 3.65456815 0 0 Z " fill="#2F4D29" transform="translate(308,155)"/>
<path d="M0 0 C1.32 0.33 2.64 0.66 4 1 C3.6875 2.9375 3.6875 2.9375 3 5 C2.01 5.33 1.02 5.66 0 6 C0 4.02 0 2.04 0 0 Z " fill="#7FB973" transform="translate(171,129)"/>
<path d="M0 0 C2.125 0.375 2.125 0.375 4 1 C2 3 0 5 -2 7 C-2.125 4.625 -2.125 4.625 -2 2 C-1.34 1.34 -0.68 0.68 0 0 Z " fill="#BFE1BC" transform="translate(153,50)"/>
<path d="M0 0 C1.32 0.33 2.64 0.66 4 1 C2.71937515 2.7074998 1.38232443 4.37373596 0 6 C-0.66 6 -1.32 6 -2 6 C-1.34 4.02 -0.68 2.04 0 0 Z " fill="#496D76" transform="translate(148,44)"/>
</svg>
